<?xml version="1.0" standalone="no"?>
<!DOCTYPE svg PUBLIC "-//W3C//DTD SVG 1.1//EN" "http://www.w3.org/Graphics/SVG/1.1/DTD/svg11.dtd" >
<svg>
<metadata>
Created by FontForge 20090914 at Fri Mar 23 16:31:50 2018
 By www-data
Digitized data copyright &#194;&#169; 2012-2015, The Mozilla Foundation and Telefonica S.A.
</metadata>
<defs>
<font id="FiraMono-Medium" horiz-adv-x="600" >
  <font-face 
    font-family="Fira Mono Medium"
    font-weight="500"
    font-stretch="normal"
    units-per-em="1000"
    panose-1="2 11 6 9 5 0 0 2 0 4"
    ascent="800"
    descent="-200"
    x-height="528"
    cap-height="690"
    bbox="-628 -500 1192 1050"
    underline-thickness="50"
    underline-position="-50"
    unicode-range="U+000D-U+1F310"
  />
<missing-glyph 
d="M510 1050v-1400h-420v1400h420zM456 998h-311v-1296h311v1296zM299.5 155.5c-5 -4.33301 -10.8359 -6.50195 -17.5029 -6.50195s-12.5 2.16699 -17.5 6.5s-7.5 10.166 -7.5 17.499v84c35.333 2 59.333 8.5 72 19.5s19 30.167 19 57.5c0 22 -4.33301 39 -13 51
s-24.667 18 -48 18c-19.333 0 -36.666 -3.66699 -51.999 -11c-4.66699 -2 -9 -3 -13 -3c-7.33301 0 -13.166 2.16699 -17.499 6.5s-6.5 9.83301 -6.5 16.5c0 12.667 9.83301 22.334 29.5 29.001s40.834 10 63.501 10c40 0 68.5 -10.667 85.5 -32s25.5 -49 25.5 -83
c0 -35.333 -7.5 -62.666 -22.5 -81.999s-39.167 -31.333 -72.5 -36v-45c0 -7.33301 -2.5 -13.166 -7.5 -17.499zM256.997 109.998c6.66699 6.66699 15 10 25 10s18.333 -3.33301 25 -10s10 -15 10 -25c0 -10.667 -3.33301 -19.5 -10 -26.5s-15 -10.5 -25 -10.5
s-18.333 3.5 -25 10.5s-10 15.833 -10 26.5c0 10 3.33301 18.333 10 25z" />
    <glyph glyph-name=".notdef" 
d="M510 1050v-1400h-420v1400h420zM456 998h-311v-1296h311v1296zM299.5 155.5c-5 -4.33301 -10.8359 -6.50195 -17.5029 -6.50195s-12.5 2.16699 -17.5 6.5s-7.5 10.166 -7.5 17.499v84c35.333 2 59.333 8.5 72 19.5s19 30.167 19 57.5c0 22 -4.33301 39 -13 51
s-24.667 18 -48 18c-19.333 0 -36.666 -3.66699 -51.999 -11c-4.66699 -2 -9 -3 -13 -3c-7.33301 0 -13.166 2.16699 -17.499 6.5s-6.5 9.83301 -6.5 16.5c0 12.667 9.83301 22.334 29.5 29.001s40.834 10 63.501 10c40 0 68.5 -10.667 85.5 -32s25.5 -49 25.5 -83
c0 -35.333 -7.5 -62.666 -22.5 -81.999s-39.167 -31.333 -72.5 -36v-45c0 -7.33301 -2.5 -13.166 -7.5 -17.499zM256.997 109.998c6.66699 6.66699 15 10 25 10s18.333 -3.33301 25 -10s10 -15 10 -25c0 -10.667 -3.33301 -19.5 -10 -26.5s-15 -10.5 -25 -10.5
s-18.333 3.5 -25 10.5s-10 15.833 -10 26.5c0 10 3.33301 18.333 10 25z" />
    <glyph glyph-name="nonmarkingreturn" unicode="&#xd;" 
 />
    <glyph glyph-name="space" unicode=" " 
 />
    <glyph glyph-name="exclam" unicode="!" 
d="M347 238h-95l-14 452h122zM353.5 116c14.333 -14.667 21.498 -32.334 21.498 -53.001c0 -21.333 -7.16699 -39.333 -21.5 -54s-32.5 -22 -54.5 -22c-21.333 0 -39.166 7.33301 -53.499 22s-21.5 32.667 -21.5 54c0 20.667 7.33301 38.334 22 53.001s32.334 22 53.001 22
c22 0 40.167 -7.33301 54.5 -22z" />
    <glyph glyph-name="quotedbl" unicode="&#x22;" 
d="M151 740h122l-17 -267h-89zM327 740h122l-16 -267h-89z" />
    <glyph glyph-name="numbersign" unicode="#" 
d="M443 240h74v-80h-85l-21 -160h-93l21 160h-127l-21 -160h-94l21 160h-72v80h82l29 212h-74v81h85l21 157h94l-22 -157h127l21 157h94l-22 -157h73v-81h-83zM349 240l29 212h-128l-28 -212h127z" />
    <glyph glyph-name="dollar" unicode="$" 
d="M347 702c38 -4 73 -13.1641 105 -27.4971s59.667 -31.833 83 -52.5l-60 -63c-38 32.667 -80.667 51.667 -128 57v-207c63.333 -20.667 112.333 -47.5 147 -80.5s52 -77.5 52 -133.5c0 -52.667 -17.333 -97.834 -52 -135.501s-83.667 -60.5 -147 -68.5v-147h-73v144
c-44.667 2.66699 -85.167 12.667 -121.5 30s-67.5 38.666 -93.5 63.999l60 68c48 -46 99.667 -70.667 155 -74v250c-64.667 21.333 -112.5 47.666 -143.5 78.999s-46.5 70.333 -46.5 117s16.833 86.667 50.5 120s80.167 53 139.5 59v150h73v-149zM214.5 586.003
c-14.333 -14.667 -21.5 -33.668 -21.5 -57.001c0 -21.333 5.66699 -39.166 17 -53.499s32.666 -28.166 63.999 -41.499v181c-25.333 -4.66699 -45.166 -14.334 -59.499 -29.001zM347 79.002c57.333 12 86 47.999 86 107.999c0 25.333 -6.33301 46.833 -19 64.5
s-35 33.834 -67 48.501v-221z" />
    <glyph glyph-name="percent" unicode="%" 
d="M540 675l-424 -698l-64 35l423 698zM265 659c26 -30 39 -67.999 39 -113.999s-13 -84.167 -39 -114.5s-61.333 -45.5 -106 -45.5s-80.167 15.167 -106.5 45.5s-39.5 68.5 -39.5 114.5c0 45.333 13.167 83.166 39.5 113.499s61.833 45.5 106.5 45.5s80 -15 106 -45z
M115 613.501c-10 -15.667 -15 -38.5 -15 -68.5c0 -29.333 5.16699 -52.333 15.5 -69s24.833 -25 43.5 -25s33 7.83301 43 23.5s15 39.167 15 70.5c0 61.333 -19.333 92 -58 92c-19.333 0 -34 -7.83301 -44 -23.5zM549 268.001c26 -30 39 -67.999 39 -113.999
s-13 -84.167 -39 -114.5s-61.333 -45.5 -106 -45.5s-80.167 15.167 -106.5 45.5s-39.5 68.5 -39.5 114.5c0 45.333 13.167 83.166 39.5 113.499s61.833 45.5 106.5 45.5s80 -15 106 -45zM384 154.002c0 -30 5.16699 -53.167 15.5 -69.5s24.833 -24.5 43.5 -24.5
c38.667 0 58 31.333 58 94c0 61.333 -19.333 92 -58 92c-39.333 0 -59 -30.667 -59 -92z" />
    <glyph glyph-name="ampersand" unicode="&#x26;" 
d="M375 686c28 -11.333 54.998 -30.999 80.998 -58.999l-63 -57c-17.333 18.667 -34.166 32.167 -50.499 40.5s-35.5 12.5 -57.5 12.5c-30 0 -53 -8.33301 -69 -25s-24 -39.334 -24 -68.001c0 -29.333 10.667 -54.166 32 -74.499s48 -30.5 80 -30.5h271v-80h-80v-268
c-52.667 -60 -125 -90 -217 -90c-50 0 -92.333 9.5 -127 28.5s-60.5 44.333 -77.5 76s-25.5 66.5 -25.5 104.5c0 52 13.167 94.167 39.5 126.5s64.5 54.166 114.5 65.499v3c-40.667 10 -70.667 27.833 -90 53.5s-29 56.5 -29 92.5c0 30.667 8.16699 58.5 24.5 83.5
s39.333 45 69 60s63.834 22.5 102.501 22.5c36 0 68 -5.66699 96 -17zM291.998 345.001c-30 0 -54.999 -7 -74.999 -21s-35 -31.833 -45 -53.5s-15 -44.5 -15 -68.5c0 -37.333 10.667 -68.333 32 -93s52.666 -37 93.999 -37c23.333 0 44.5 3.83301 63.5 11.5
s34.167 18.167 45.5 31.5v230h-100z" />
    <glyph glyph-name="quotesingle" unicode="'" 
d="M239 740h122l-17 -267h-88z" />
    <glyph glyph-name="parenleft" unicode="(" 
d="M252 183c14 -48 35.5 -92.999 64.5 -134.999s68.5 -87 118.5 -135l-61 -60c-86.667 72 -151.334 146.167 -194.001 222.5s-64 167.833 -64 274.5s21.333 198.167 64 274.5s107.334 150.5 194.001 222.5l61 -60c-49.333 -47.333 -88.5 -91.833 -117.5 -133.5
s-50.667 -86.834 -65 -135.501s-21.5 -104.667 -21.5 -168s7 -119 21 -167z" />
    <glyph glyph-name="parenright" unicode=")" 
d="M347.5 518c-14.333 48.667 -36 93.833 -65 135.5s-68.167 86.167 -117.5 133.5l61 60c86.667 -72 151.334 -146.167 194.001 -222.5s64 -167.833 64 -274.5s-21.333 -198.167 -64 -274.5s-107.334 -150.5 -194.001 -222.5l-61 60c50 48 89.5 93 118.5 135
s50.5 87 64.5 135s21 103.667 21 167s-7.16699 119.333 -21.5 168z" />
    <glyph glyph-name="asterisk" unicode="*" 
d="M334 369l146 63l31 -97l-154 -32l108 -116l-83 -63l-82 138l-76 -140l-86 60l106 121l-155 32l31 97l145 -63l-17 159h104z" />
    <glyph glyph-name="plus" unicode="+" 
d="M348 356h149v-89h-149v-152h-98v152h-147v89h147v152h98v-152z" />
    <glyph glyph-name="comma" unicode="," 
d="M365.5 154c17.667 -17.333 26.5 -38.6641 26.5 -63.9971c0 -14.667 -2.16699 -29.334 -6.5 -44.001s-11.833 -33.667 -22.5 -57l-77 -177h-87l48 203c-11.333 8 -20.5 18.667 -27.5 32s-10.5 27.666 -10.5 42.999c0 25.333 8.83301 46.666 26.5 63.999s39.167 26 64.5 26
c26 0 47.833 -8.66699 65.5 -26z" />
    <glyph glyph-name="hyphen" unicode="-" 
d="M119 359h362v-92h-362v92z" />
    <glyph glyph-name="period" unicode="." 
d="M231 152c18.667 18.667 41.334 28 68.001 28c27.333 0 50.333 -9.33301 69 -28s28 -41.334 28 -68.001c0 -27.333 -9.33301 -50.333 -28 -69s-41.667 -28 -69 -28c-26.667 0 -49.334 9.33301 -68.001 28s-28 41.667 -28 69c0 26.667 9.33301 49.334 28 68.001z" />
    <glyph glyph-name="slash" unicode="/" 
d="M44 -66l424 878l88 -41l-423 -877z" />
    <glyph glyph-name="zero" unicode="0" 
d="M475 611.5c40 -61.667 60 -150.167 60 -265.5s-20 -204 -60 -266s-98.333 -93 -175 -93s-135 31 -175 93s-60 150.667 -60 266s20 203.833 60 265.5s98.333 92.5 175 92.5s135 -30.833 175 -92.5zM209 553c-20.667 -43.333 -31 -112.333 -31 -207
c0 -96 10.333 -165.667 31 -209s51 -65 91 -65s70.333 21.667 91 65s31 113 31 209c0 95.333 -10.333 164.5 -31 207.5s-51 64.5 -91 64.5s-70.333 -21.667 -91 -65zM347 391c12.667 -12.667 19 -28 19 -46c0 -18.667 -6.33301 -34.334 -19 -47.001s-28.334 -19 -47.001 -19
s-34.167 6.33301 -46.5 19s-18.5 28.334 -18.5 47.001c0 18 6.16699 33.333 18.5 46s27.833 19 46.5 19s34.334 -6.33301 47.001 -19z" />
    <glyph glyph-name="one" unicode="1" 
d="M530 88v-88h-417v88h168v487l-152 -93l-48 78l212 130h99v-602h138z" />
    <glyph glyph-name="two" unicode="2" 
d="M389.5 678c33 -17.333 58.167 -40.6689 75.5 -70.002s26 -62.333 26 -99c0 -40.667 -9.33301 -80.167 -28 -118.5s-49 -80.666 -91 -126.999s-101.333 -104.166 -178 -173.499h313l-12 -90h-429v85c86.667 83.333 151.334 148.5 194.001 195.5s72.667 87.167 90 120.5
s26 67 26 101c0 34.667 -10 62 -30 82s-47.333 30 -82 30c-30 0 -55.5 -5.5 -76.5 -16.5s-42.167 -29.5 -63.5 -55.5l-72 56c27.333 35.333 58.666 61.833 93.999 79.5s77.333 26.5 126 26.5c45.333 0 84.5 -8.66699 117.5 -26z" />
    <glyph glyph-name="three" unicode="3" 
d="M387 680.5c33.333 -15.667 58.999 -36.832 76.999 -63.499s27 -56 27 -88c0 -41.333 -12.833 -76.333 -38.5 -105s-58.5 -47.667 -98.5 -57c46.667 -4.66699 84.834 -21.334 114.501 -50.001s44.5 -68.667 44.5 -120c0 -39.333 -10.333 -75 -31 -107
s-50 -57.167 -88 -75.5s-81.667 -27.5 -131 -27.5c-44.667 0 -86.667 8.16699 -126 24.5s-72 40.166 -98 71.499l69 60c18.667 -22.667 41 -39.667 67 -51s53.333 -17 82 -17c43.333 0 77.5 11.333 102.5 34s37.5 53.334 37.5 92.001c0 80.667 -44.667 121 -134 121h-59
l13 82h42c34.667 0 63.5 9.33301 86.5 28s34.5 45.667 34.5 81c0 32.667 -11 58.167 -33 76.5s-50.667 27.5 -86 27.5c-28 0 -53.333 -5 -76 -15s-45 -25.667 -67 -47l-59 64c58.667 56.667 129 85 211 85c44.667 0 83.667 -7.83301 117 -23.5z" />
    <glyph glyph-name="four" unicode="4" 
d="M538 159h-82v-159h-108v159h-286v78l198 467l94 -37l-175 -421h170l11 184h96v-184h82v-87z" />
    <glyph glyph-name="five" unicode="5" 
d="M483 606h-265.001v-192c35.333 18 73 27 113 27c36.667 0 69.5 -8.66699 98.5 -26s51.667 -42.5 68 -75.5s24.5 -72.167 24.5 -117.5c0 -46 -10.333 -86.833 -31 -122.5s-49.667 -63.334 -87 -83.001s-80.666 -29.5 -129.999 -29.5c-84.667 0 -155 30 -211 90l66 63
c39.333 -43.333 86 -65 140 -65c42.667 0 76 12.833 100 38.5s36 61.834 36 108.501c0 48 -10.167 82.833 -30.5 104.5s-47.833 32.5 -82.5 32.5c-16 0 -31.5 -1.83301 -46.5 -5.5s-32.167 -9.5 -51.5 -17.5h-83v354h387z" />
    <glyph glyph-name="six" unicode="6" 
d="M440 429c29.333 -16.667 52.667 -41.6699 70 -75.0029s26 -73.666 26 -120.999c0 -48.667 -9.83301 -91.667 -29.5 -129s-46.667 -66.166 -81 -86.499s-73.5 -30.5 -117.5 -30.5c-82.667 0 -143.334 29.833 -182.001 89.5s-58 141.167 -58 244.5
c0 76.667 10.833 143.834 32.5 201.501s53.167 102.334 94.5 134.001s90 47.5 146 47.5c52.667 0 100 -14 142 -42l-43 -72c-30.667 19.333 -63.667 29 -99 29c-46.667 0 -84 -21.833 -112 -65.5s-43.333 -103.834 -46 -180.501c40.667 54 93.334 81 158.001 81
c36.667 0 69.667 -8.33301 99 -25zM394.001 113.997c19.333 28 29.0029 65.999 29.0029 113.999c0 95.333 -35 143 -105 143c-26.667 0 -51.5 -7.16699 -74.5 -21.5s-42.833 -34.166 -59.5 -59.499c1.33301 -75.333 11.666 -130.5 30.999 -165.5s50.666 -52.5 93.999 -52.5
c37.333 0 65.666 14 84.999 42z" />
    <glyph glyph-name="seven" unicode="7" 
d="M138 20l264 582h-316v88h429v-80l-272 -622z" />
    <glyph glyph-name="eight" unicode="8" 
d="M487 441c-18.667 -24 -47.332 -47.001 -85.999 -69.001c46 -20.667 81.167 -46.667 105.5 -78s36.5 -67.333 36.5 -108c0 -37.333 -9.83301 -71.166 -29.5 -101.499s-48 -54.166 -85 -71.499s-80.5 -26 -130.5 -26c-50.667 0 -94.167 8.66699 -130.5 26
s-63.833 40.833 -82.5 70.5s-28 62.834 -28 99.501c0 78.667 44.667 138 134 178c-37.333 19.333 -64.333 41.166 -81 65.499s-25 55.5 -25 93.5c0 39.333 10.167 72.833 30.5 100.5s47 48.5 80 62.5s67.833 21 104.5 21c39.333 0 75.166 -6.83301 107.499 -20.5
s58.333 -33.834 78 -60.501s29.5 -59 29.5 -97c0 -32.667 -9.33301 -61 -28 -85zM208.002 464.999c10 -14 24 -25.499 42 -34.499s43 -19.167 75 -30.5c29.333 18 50.333 36 63 54s19 40 19 66c0 31.333 -9.33301 56.166 -28 74.499s-45 27.5 -79 27.5s-60.333 -9 -79 -27
s-28 -43.333 -28 -76c0 -22 5 -40 15 -54zM409.002 250.5c-12.667 17 -29.832 30.832 -51.499 41.499s-53.167 23.334 -94.5 38.001c-60.667 -31.333 -91 -79 -91 -143c0 -36 10.833 -64.167 32.5 -84.5s53.167 -30.5 94.5 -30.5s73.166 10.5 95.499 31.5
s33.5 48.167 33.5 81.5c0 26.667 -6.33301 48.5 -19 65.5z" />
    <glyph glyph-name="nine" unicode="9" 
d="M468 631c40 -48 60.001 -113.999 60.001 -197.999c0 -93.333 -13.333 -169.5 -40 -228.5s-67.834 -106 -123.501 -141s-130.5 -64.167 -224.5 -87.5l-25 81c92.667 24.667 163.334 57.5 212.001 98.5s76.334 96.167 83.001 165.5
c-42.667 -48.667 -94.334 -73.334 -155.001 -74.001c-37.333 0 -71 9 -101 27s-53.5 43.667 -70.5 77s-25.5 72.333 -25.5 117c0 48.667 10.167 90.667 30.5 126s48.166 62.333 83.499 81s75.333 28 120 28c77.333 0 136 -24 176 -72zM353.001 350.001
c20.667 12 40.333 29.332 59 51.999c1.33301 78 -7.16699 133.5 -25.5 166.5s-50.166 49.5 -95.499 49.5c-38.667 0 -68.167 -12.667 -88.5 -38s-30.5 -62.666 -30.5 -111.999c0 -47.333 9.66699 -82 29 -104s46.666 -33 81.999 -33c26 0.666992 49.333 7 70 19z" />
    <glyph glyph-name="colon" unicode=":" 
d="M236 495.5c17.333 17.667 38.333 26.5 63 26.5c25.333 0 46.666 -8.83301 63.999 -26.5s26 -38.834 26 -63.501s-8.66699 -45.834 -26 -63.501s-38.666 -26.5 -63.999 -26.5c-24.667 0 -45.667 8.83301 -63 26.5s-26 38.834 -26 63.501s8.66699 45.834 26 63.501z
M236 140c17.333 17.333 38.333 26 63 26c26 0 47.5 -8.66699 64.5 -26s25.5 -38.333 25.5 -63c0 -25.333 -8.5 -46.666 -25.5 -63.999s-38.5 -26 -64.5 -26c-24.667 0 -45.667 8.66699 -63 26s-26 38.666 -26 63.999c0 24.667 8.66699 45.667 26 63z" />
    <glyph glyph-name="semicolon" unicode=";" 
d="M363 495.5c17.333 -17.667 26 -38.834 26 -63.501s-8.66699 -45.834 -26 -63.501s-38.666 -26.5 -63.999 -26.5c-24.667 0 -45.667 8.83301 -63 26.5s-26 38.834 -26 63.501s8.66699 45.834 26 63.501s38.333 26.5 63 26.5c25.333 0 46.666 -8.83301 63.999 -26.5z
M363.5 152c17 -17.333 25.5 -38.666 25.5 -63.999c0 -14 -2 -28.5 -6 -43.5s-11 -33.5 -21 -55.5l-77 -176h-86l48 201c-11.333 8 -20.333 18.667 -27 32s-10 27.333 -10 42c0 25.333 8.5 46.666 25.5 63.999s38.167 26 63.5 26c26 0 47.5 -8.66699 64.5 -26z" />
    <glyph glyph-name="less" unicode="&#x3c;" 
d="M520 520l-343 -207l343 -206l-55 -81l-384 239v97l387 239z" />
    <glyph glyph-name="equal" unicode="=" 
d="M507 364h-414v92h414v-92zM507 167h-414v91h414v-91z" />
    <glyph glyph-name="greater" unicode="&#x3e;" 
d="M520 362v-97l-384 -239l-55 80l342 207l-342 205l52 83z" />
    <glyph glyph-name="question" unicode="?" 
d="M410.5 682c31.667 -14.667 55.8311 -34.334 72.498 -59.001s25 -51 25 -79c0 -26 -4.5 -48.167 -13.5 -66.5s-19.833 -33.333 -32.5 -45s-29.667 -25.167 -51 -40.5c-19.333 -14 -34.666 -26 -45.999 -36s-20.833 -22.333 -28.5 -37s-11.5 -32 -11.5 -52v-29h-107v34
c0 28.667 4.83301 53.167 14.5 73.5s21.334 37 35.001 50s31.167 27.5 52.5 43.5c24.667 18.667 42.667 34.5 54 47.5s17 29.5 17 49.5c0 24 -9.66699 42.833 -29 56.5s-44.333 20.5 -75 20.5c-24 0 -47.833 -5.66699 -71.5 -17s-44.834 -28.666 -63.501 -51.999l-75 58
c58.667 68 132.334 102 221.001 102c43.333 0 80.833 -7.33301 112.5 -22zM327.997 116c14.667 -14.667 21.998 -32.334 21.998 -53.001c0 -21.333 -7.33301 -39.333 -22 -54s-32.667 -22 -54 -22s-39.166 7.33301 -53.499 22s-21.5 32.667 -21.5 54
c0 20.667 7.33301 38.334 22 53.001s32.334 22 53.001 22c21.333 0 39.333 -7.33301 54 -22z" />
    <glyph glyph-name="at" unicode="@" 
d="M524.5 592c44.333 -74.667 66.5029 -175.665 66.5029 -302.998c0 -89.333 -4.16699 -161.333 -12.5 -216s-23.5 -95.834 -45.5 -123.501s-53 -41.5 -93 -41.5c-25.333 0 -46.833 7.33301 -64.5 22s-30.834 32.834 -39.501 54.501s-13.667 43.167 -15 64.5h-4
c-11.333 -28 -28.333 -51 -51 -69s-51.667 -27 -87 -27c-53.333 0 -92.5 20.667 -117.5 62s-37.5 97 -37.5 167c0 85.333 17.333 150.333 52 195s85 67 151 67c50.667 0 101 -13.333 151 -40v-297c0 -44.667 5 -75.834 15 -93.501s24.667 -26.5 44 -26.5
c16.667 0 28.834 11.333 36.501 34s12.5 53.5 14.5 92.5s3 96.167 3 171.5c0 72.667 -5.5 133.167 -16.5 181.5s-31.833 86.166 -62.5 113.499s-73.667 41 -129 41c-37.333 0 -74.333 -6.83301 -111 -20.5s-74.334 -37.5 -113.001 -71.5l-54 63
c85.333 74.667 178.666 112 279.999 112c115.333 0 195.166 -37.333 239.499 -112zM150.003 325.002c-14.667 -28.667 -22 -76.334 -22 -143.001c0 -50.667 5.16699 -88.667 15.5 -114s27.833 -38 52.5 -38c26 0 45 7.83301 57 23.5s21.667 34.834 29 57.501v244
c-17.333 8.66699 -35.333 13 -54 13c-37.333 0 -63.333 -14.333 -78 -43z" />
    <glyph glyph-name="A" unicode="A" 
d="M175 166l-48 -166h-119l220 690h144l220 -690h-123l-48 166h-246zM397 256l-99 344l-99 -344h198z" />
    <glyph glyph-name="B" unicode="B" 
d="M476 46c-50.667 -30.667 -114.999 -46 -192.999 -46h-202v690h189c73.333 0 133.666 -13.5 180.999 -40.5s71 -71.833 71 -134.5c0 -40 -12.167 -72.833 -36.5 -98.5s-54.833 -42.5 -91.5 -50.5c45.333 -8 83 -24.833 113 -50.5s45 -64.5 45 -116.5
c0 -71.333 -25.333 -122.333 -76 -153zM372.501 580c-21 15.333 -51.832 23.001 -92.499 23.001h-83v-199h90c39.333 0 68.666 8.16699 87.999 24.5s29 42.166 29 77.499c0 34 -10.5 58.667 -31.5 74zM395.002 290.501c-24 17.667 -57.333 26.5 -100 26.5h-98v-227h94
c93.333 0 140 36.333 140 109c0 43.333 -12 73.833 -36 91.5z" />
    <glyph glyph-name="C" unicode="C" 
d="M474 687c32 -11.333 62.666 -29 91.999 -53l-60 -72c-42 34 -89.667 51 -143 51c-56 0 -101.667 -21.5 -137 -64.5s-53 -110.5 -53 -202.5c0 -90.667 17.333 -157.5 52 -200.5s81 -64.5 139 -64.5c33.333 0 61.833 5.16699 85.5 15.5s47.167 24.833 70.5 43.5l56 -71
c-56 -54.667 -128 -82 -216 -82c-59.333 0 -112.333 13.833 -159 41.5s-83.167 68.5 -109.5 122.5s-39.5 119 -39.5 195c0 74.667 13.5 139 40.5 193s63.833 95 110.5 123s98.334 42 155.001 42c45.333 0 84 -5.66699 116 -17z" />
    <glyph glyph-name="D" unicode="D" 
d="M470 76.5c-60.667 -51 -137.333 -76.5 -230 -76.5h-169v690h158c100 0 180.333 -24.167 241 -72.5s91 -137.833 91 -268.5s-30.333 -221.5 -91 -272.5zM387.501 549c-34.333 34.667 -79.833 51.999 -136.5 51.999h-64v-513h65c124.667 0 187 87 187 261
c0 98.667 -17.167 165.334 -51.5 200.001z" />
    <glyph glyph-name="E" unicode="E" 
d="M229 394h250v-87h-250v-219h305v-88h-421v690h415l-13 -88h-286v-208z" />
    <glyph glyph-name="F" unicode="F" 
d="M243 382h260v-88h-260v-294h-116v690h424l-12 -88h-296v-220z" />
    <glyph glyph-name="G" unicode="G" 
d="M110.5 78.5c-49 61 -73.502 150.167 -73.502 267.5c0 76 13.5 141 40.5 195s63.333 94.667 109 122s96.167 41 151.5 41c44.667 0 82.834 -6.5 114.501 -19.5s61.834 -33.167 90.501 -60.5l-65 -67c-21.333 19.333 -42.833 33.5 -64.5 42.5s-45.834 13.5 -72.501 13.5
c-53.333 0 -97.166 -21.5 -131.499 -64.5s-51.5 -110.5 -51.5 -202.5c0 -94.667 13.5 -163.167 40.5 -205.5s68.5 -63.5 124.5 -63.5c42.667 0 80.667 9.66699 114 29v190h-117l-12 89h242v-335c-35.333 -20 -71.5 -35.5 -108.5 -46.5s-78.167 -16.5 -123.5 -16.5
c-89.333 0 -158.5 30.5 -207.5 91.5z" />
    <glyph glyph-name="H" unicode="H" 
d="M413 314h-226v-314h-116v690h116v-281h226v281h116v-690h-116v314z" />
    <glyph glyph-name="I" unicode="I" 
d="M508 602h-150v-513h150v-89h-416v89h150v513h-150v88h416v-88z" />
    <glyph glyph-name="J" unicode="J" 
d="M508 237c0 -72.667 -20.832 -132.5 -62.499 -179.5s-104.834 -70.5 -189.501 -70.5c-72.667 0 -138 21.333 -196 64l47 73c26 -16.667 50.667 -28.5 74 -35.5s47 -10.5 71 -10.5c43.333 0 77.5 14 102.5 42s37.5 67.667 37.5 119v362h-207v89h323v-453z" />
    <glyph glyph-name="K" unicode="K" 
d="M88 0v690h116v-690h-116zM448 690h128l-241 -314l260 -376h-139l-247 369z" />
    <glyph glyph-name="L" unicode="L" 
d="M120 690h115v-593h310l-13 -97h-412v690z" />
    <glyph glyph-name="M" unicode="M" 
d="M575 0l-107 -0.000976562l-16 336c-2 44 -3 86.333 -3 127c0 52.667 1 94.334 3 125.001l-102 -466h-101l-109 466c2.66699 -34 4 -86.333 4 -157c0 -42.667 -0.333008 -74.667 -1 -96l-14 -335h-104l39 690h139l99 -462l94 462h140z" />
    <glyph glyph-name="N" unicode="N" 
d="M158 587c10.667 -109.333 16 -200.667 16 -274v-313h-103v690h151l220 -587c-4.66699 49.333 -8.5 93.833 -11.5 133.5s-4.5 86.167 -4.5 139.5v314h103v-690h-151z" />
    <glyph glyph-name="O" unicode="O" 
d="M494.5 84c-45 -64.667 -109.833 -97 -194.5 -97s-149.5 31.833 -194.5 95.5s-67.5 150.834 -67.5 261.501c0 109.333 22.5 196.666 67.5 261.999s109.833 98 194.5 98s149.5 -32.167 194.5 -96.5s67.5 -151.833 67.5 -262.5c0 -109.333 -22.5 -196.333 -67.5 -261z
M409 547c-22.667 44 -59 66 -109 66s-86.333 -22 -109 -66s-34 -111.667 -34 -203c0 -90 11.5 -157 34.5 -201s59.167 -66 108.5 -66c50 0 86.333 22 109 66s34 111.333 34 202s-11.333 158 -34 202z" />
    <glyph glyph-name="P" unicode="P" 
d="M492 301.5c-48 -37 -113.667 -55.5 -197 -55.5h-84v-246h-115v690h191c88.667 0 157 -18.167 205 -54.5s72 -90.5 72 -162.5c0 -77.333 -24 -134.5 -72 -171.5zM295 603h-84.001v-269h85c46.667 0 82.834 10.667 108.501 32s38.5 57 38.5 107
c0 86.667 -49.333 130 -148 130z" />
    <glyph glyph-name="Q" unicode="Q" 
d="M528.5 152.5c-22.333 -53 -59.1689 -93.168 -110.502 -120.501c51.333 -10 91.5 -27.167 120.5 -51.5s52.167 -62.166 69.5 -113.499l-107 -40c-15.333 38 -31.666 68.5 -48.999 91.5s-39 40.5 -65 52.5s-58.333 18 -97 18c-80.667 0 -142.5 31.5 -185.5 94.5
s-64.5 149.833 -64.5 260.5c0 110 22.5 197.5 67.5 262.5s109.5 97.5 193.5 97.5c84.667 0 149.334 -32 194.001 -96s67 -151.667 67 -263c0 -75.333 -11.167 -139.5 -33.5 -192.5zM408.497 547.499c-21.667 43.667 -57.5 65.501 -107.5 65.501s-85.833 -22 -107.5 -66
s-32.5 -111.667 -32.5 -203c0 -90.667 11.167 -157.834 33.5 -201.501s57.833 -65.5 106.5 -65.5c50 0 85.833 21.833 107.5 65.5s32.5 111.167 32.5 202.5s-10.833 158.833 -32.5 202.5z" />
    <glyph glyph-name="R" unicode="R" 
d="M503 370c-28.667 -32 -66.667 -55.333 -114 -70l196 -300h-135l-174 284h-75v-284h-116v690h192c179.333 0 269 -66.667 269 -200c0 -48 -14.333 -88 -43 -120zM390.5 577c-23 18 -58.499 27 -106.499 27h-83v-235h86c45.333 0 79.666 9.66699 102.999 29s35 50 35 92
c0 40 -11.5 69 -34.5 87z" />
    <glyph glyph-name="S" unicode="S" 
d="M517.5 86c-21 -31.333 -51.332 -55.666 -90.999 -72.999s-86.834 -26 -141.501 -26c-106.667 0 -191.334 30.667 -254.001 92l64 71c52 -48 115.333 -72 190 -72c41.333 0 75.5 9.66699 102.5 29s40.5 46.666 40.5 81.999c0 20.667 -4.16699 38 -12.5 52
s-22.5 26.5 -42.5 37.5s-48.667 22.167 -86 33.5c-76.667 22.667 -133 49.667 -169 81s-54 72.666 -54 123.999c0 36.667 10.167 69.167 30.5 97.5s48.5 50.333 84.5 66s76.667 23.5 122 23.5c92.667 0 169.667 -27.667 231 -83l-61 -69
c-47.333 40.667 -101.666 61 -162.999 61c-37.333 0 -67.5 -7.66699 -90.5 -23s-34.5 -37.333 -34.5 -66c0 -18 4.83301 -33.333 14.5 -46s26 -24.167 49 -34.5s55.5 -21.833 97.5 -34.5c66.667 -20 117.5 -45.667 152.5 -77s52.5 -77 52.5 -137
c0 -41.333 -10.5 -77.666 -31.5 -108.999z" />
    <glyph glyph-name="T" unicode="T" 
d="M357 0h-116v596h-208v94h535l-12 -94h-199v-596z" />
    <glyph glyph-name="U" unicode="U" 
d="M539 226c0 -46.667 -9.50098 -88 -28.501 -124s-46.5 -64.167 -82.5 -84.5s-79 -30.5 -129 -30.5c-75.333 0 -133.833 21.667 -175.5 65s-62.5 101.333 -62.5 174v464h116v-442c0 -57.333 9.83301 -99.833 29.5 -127.5s50.5 -41.5 92.5 -41.5
c42.667 0 73.834 13.833 93.501 41.5s29.5 70.167 29.5 127.5v442h117v-464z" />
    <glyph glyph-name="V" unicode="V" 
d="M467 690h118l-219 -690h-132l-219 690h124l163 -580z" />
    <glyph glyph-name="W" unicode="W" 
d="M503 0h-136l-68 511l-71 -511h-138l-88 690h112l54 -578l74 498h119l69 -498l64 578h104z" />
    <glyph glyph-name="X" unicode="X" 
d="M167 690l133 -248l135 248h123l-191 -317l213 -373h-129l-153 293l-154 -293h-123l208 367l-191 323h129z" />
    <glyph glyph-name="Y" unicode="Y" 
d="M358 0h-116v263l-231 427h128l163 -327l165 327h122l-231 -426v-264z" />
    <glyph glyph-name="Z" unicode="Z" 
d="M540 96l-12 -96h-469v90l351 506h-315v94h443v-91l-346 -503h348z" />
    <glyph glyph-name="bracketleft" unicode="[" 
d="M173 818h273v-89h-167v-759h167v-88h-273v936z" />
    <glyph glyph-name="backslash" unicode="\" 
d="M132 812l424 -878l-89 -40l-423 877z" />
    <glyph glyph-name="bracketright" unicode="]" 
d="M427 -118h-273v89h167v758h-167v89h273v-936z" />
    <glyph glyph-name="asciicircum" unicode="^" 
d="M539 527h-115l-125 223l-123 -223h-115l189 314h100z" />
    <glyph glyph-name="underscore" unicode="_" 
d="M50 -91h500v-92h-500v92z" />
    <glyph glyph-name="grave" unicode="`" 
d="M176 715l52 90l197 -124l-34 -59z" />
    <glyph glyph-name="a" unicode="a" 
d="M502 84.5c6 -9.66699 16.332 -16.8301 30.999 -21.4971l-26 -76c-55.333 6.66699 -91.666 31 -108.999 73c-19.333 -24 -43.5 -42.167 -72.5 -54.5s-60.833 -18.5 -95.5 -18.5c-53.333 0 -95.666 15 -126.999 45s-47 69.667 -47 119c0 55.333 21.833 98 65.5 128
s105.5 45 185.5 45h75v34c0 33.333 -10 57.666 -30 72.999s-49 23 -87 23c-18.667 0 -40.334 -2.33301 -65.001 -7s-49.667 -11.334 -75 -20.001l-28 79c63.333 24 125 36 185 36c70 0 122.667 -15.333 158 -46s53 -74.334 53 -131.001v-236c0 -20 3 -34.833 9 -44.5z
M330.499 87.0039c21.667 12 38.833 28.667 51.5 50v117h-62c-50.667 0 -87.667 -8.5 -111 -25.5s-35 -41.5 -35 -73.5c0 -28 7.5 -49.333 22.5 -64s37.167 -22 66.5 -22c23.333 0 45.833 6 67.5 18z" />
    <glyph glyph-name="b" unicode="b" 
d="M265.5 522c25 13.333 51.833 20 80.5 20c67.333 0 117 -24.333 149 -73s48 -116.667 48 -204c0 -82.667 -18.5 -149.667 -55.5 -201s-88.833 -77 -155.5 -77c-58.667 0 -104.667 21.667 -138 65l-6 -52h-99v740l112 13v-288c18 24.667 39.5 43.667 64.5 57zM393.5 119.5
c20.333 31.667 30.5 79.832 30.5 144.499c0 66.667 -9.16699 115.334 -27.5 146.001s-45.5 46 -81.5 46c-22.667 0 -43.834 -7 -63.501 -21s-36.5 -32.333 -50.5 -55v-247c26.667 -40.667 61.334 -61 104.001 -61c38.667 0 68.167 15.833 88.5 47.5z" />
    <glyph glyph-name="c" unicode="c" 
d="M474 124l51.001 -71.999c-23.333 -20 -51.333 -35.833 -84 -47.5s-66.334 -17.5 -101.001 -17.5c-80.667 0 -143.667 24.833 -189 74.5s-68 116.167 -68 199.5c0 54 10.333 102.167 31 144.5s50.5 75.666 89.5 99.999s85.167 36.5 138.5 36.5c70 0 131 -21.333 183 -64
l-52 -70c-42.667 29.333 -85.667 44 -129 44c-44 0 -78.667 -15.833 -104 -47.5s-38 -79.5 -38 -143.5c0 -62.667 12.667 -108.667 38 -138s60 -44 104 -44c42 0 85.333 15 130 45z" />
    <glyph glyph-name="d" unicode="d" 
d="M511 740l-0.000976562 -740.001h-99l-8 65c-17.333 -25.333 -38.666 -44.666 -63.999 -57.999s-53.333 -20 -84 -20c-66 0 -115.667 24.667 -149 74s-50 117 -50 203c0 54 8.5 102 25.5 144s41.167 74.833 72.5 98.5s68.333 35.5 111 35.5c54 0 98.333 -19.333 133 -58
v269zM206.499 408.499c-20.333 -31.667 -30.5 -79.833 -30.5 -144.5c0 -128 36.667 -192 110 -192c44 0 81.667 25.333 113 76v249c-27.333 39.333 -62 59 -104 59c-38.667 0 -68.167 -15.833 -88.5 -47.5z" />
    <glyph glyph-name="e" unicode="e" 
d="M226.5 112.5c26.333 -25.667 59.502 -38.5 99.502 -38.5c24.667 0 48.167 3.83301 70.5 11.5s45.166 19.167 68.499 34.5l48 -68c-24.667 -20.667 -53.667 -36.667 -87 -48s-68.333 -17 -105 -17c-80.667 0 -143.334 25.167 -188.001 75.5s-67 117.5 -67 201.5
c0 52.667 9.66699 100.167 29 142.5s47.333 75.5 84 99.5s79.334 36 128.001 36c70 0 125.5 -23.5 166.5 -70.5s61.5 -111.5 61.5 -193.5c0 -20 -1 -36.667 -3 -50h-350c3.33301 -51.333 18.166 -89.833 44.499 -115.5zM220.002 420c-22.667 -26 -35.667 -64.667 -39 -116
h245c-1.33301 50 -12 88.333 -32 115s-48.667 40 -86 40c-36 0 -65.333 -13 -88 -39z" />
    <glyph glyph-name="f" unicode="f" 
d="M568 722l-33.999 -77.999c-34 14.667 -71.667 22 -113 22c-34.667 0 -60.334 -6.66699 -77.001 -20s-25 -34 -25 -62v-94h177l-13 -83h-164v-407h-112v407h-120v83h120v95c0 33.333 8.5 62.666 25.5 87.999s40.833 45 71.5 59s66 21 106 21c57.333 0 110 -10.333 158 -31
z" />
    <glyph glyph-name="g" unicode="g" 
d="M563 502c-19.333 -6.66699 -41.1699 -11.166 -65.5029 -13.499s-53.5 -3.5 -87.5 -3.5c32 -14.667 56 -33 72 -55s24 -48.667 24 -80c0 -34.667 -8.5 -65.334 -25.5 -92.001s-41.167 -47.667 -72.5 -63s-68.333 -23 -111 -23c-30 0 -54 3 -72 9
c-7.33301 -5.33301 -13 -11.833 -17 -19.5s-6 -15.834 -6 -24.501c0 -26.667 21.667 -40 65 -40h92c37.333 0 70.666 -6.33301 99.999 -19s52.166 -30.167 68.499 -52.5s24.5 -47.5 24.5 -75.5c0 -52.667 -22.667 -93.5 -68 -122.5s-110.666 -43.5 -195.999 -43.5
c-59.333 0 -106.166 6.16699 -140.499 18.5s-58.666 30.333 -72.999 54s-21.5 54.167 -21.5 91.5h100c0 -20 3.83301 -35.833 11.5 -47.5s21.167 -20.334 40.5 -26.001s47.333 -8.5 84 -8.5c53.333 0 91.666 6.5 114.999 19.5s35 32.167 35 57.5
c0 21.333 -9.16699 37.833 -27.5 49.5s-43.166 17.5 -74.499 17.5h-91c-47.333 0 -83.166 9.66699 -107.499 29s-36.5 43.666 -36.5 72.999c0 18 5 35.333 15 52s24.333 31 43 43c-31.333 16.667 -54.166 36.834 -68.499 60.501s-21.5 52.834 -21.5 87.501
c0 36.667 9.33301 69.167 28 97.5s44.667 50.333 78 66s71.333 23.5 114 23.5c57.333 -0.666992 102.833 3.33301 136.5 12s69.5 22.334 107.5 41.001zM210.996 434.501c-18 -19.667 -26.998 -46.167 -26.998 -79.5c0 -34 9.16699 -60.833 27.5 -80.5
s45.166 -29.5 80.499 -29.5c33.333 0 58.666 9.66699 75.999 29s26 47 26 83c0 71.333 -34.333 107 -103 107c-35.333 0 -62 -9.83301 -80 -29.5z" />
    <glyph glyph-name="h" unicode="h" 
d="M201 463c21.333 26 46.167 45.667 74.5 59s58.166 20 89.499 20c48.667 0 85.334 -13.5 110.001 -40.5s37 -65.833 37 -116.5v-385h-112v368c0 31.333 -6 53.833 -18 67.5s-31.333 20.5 -58 20.5c-23.333 0 -45.833 -7.5 -67.5 -22.5s-40.167 -33.5 -55.5 -55.5v-378
h-112v739l112 12v-288z" />
    <glyph glyph-name="i" unicode="i" 
d="M352.5 766.5c13.667 -13.667 20.5 -30.5 20.5 -50.5s-6.83301 -36.667 -20.5 -50s-31.167 -20 -52.5 -20c-22 0 -39.667 6.66699 -53 20s-20 30 -20 50c0 20.667 6.83301 37.667 20.5 51s31.167 20 52.5 20s38.833 -6.83301 52.5 -20.5zM377 82h144v-82h-413v82h157v364
h-152v82h264v-446z" />
    <glyph glyph-name="j" unicode="j" 
d="M421 767c13.333 -13.333 20 -30.333 20 -51c0 -20 -6.66699 -36.667 -20 -50s-31 -20 -53 -20c-21.333 0 -38.833 6.66699 -52.5 20s-20.5 30 -20.5 50s6.83301 36.833 20.5 50.5s31.167 20.5 52.5 20.5c22 0 39.667 -6.66699 53 -20zM455 111
c0 -95.333 -29 -168.332 -87 -218.999s-146 -86.667 -264 -108l-18 86c85.333 16 149.5 41.667 192.5 77s64.5 87.666 64.5 156.999v342h-208v82h320v-417z" />
    <glyph glyph-name="k" unicode="k" 
d="M204 0h-112v740l112 13v-753zM341 292l235 -292h-137l-227 289l212 239h130z" />
    <glyph glyph-name="l" unicode="l" 
d="M321 144c0 -44.667 26.668 -67 80.001 -67c26.667 0 54.667 6 84 18l28 -78c-36.667 -20 -82 -30 -136 -30c-52.667 0 -93.834 14.833 -123.501 44.5s-44.5 70.5 -44.5 122.5v504h-159v82h271v-596z" />
    <glyph glyph-name="m" unicode="m" 
d="M530 508c18.667 -22.667 27.999 -61.3311 27.999 -115.998v-392h-99v377c0 29.333 -2.16699 49.666 -6.5 60.999s-13.833 17 -28.5 17c-28 0 -54 -17.667 -78 -53v-402h-91v377c0 29.333 -2.16699 49.666 -6.5 60.999s-13.833 17 -28.5 17c-28 0 -54 -17.667 -78 -53
v-402h-100v528h84l8 -57c16.667 23.333 33.667 41 51 53s38 18 62 18c46.667 0 76.667 -22.333 90 -67c16 21.333 33.333 37.833 52 49.5s40 17.5 64 17.5c32.667 0 58.334 -11.333 77.001 -34z" />
    <glyph glyph-name="n" unicode="n" 
d="M89 528l96.999 -0.000976562l8 -69c22 26.667 47.833 47.167 77.5 61.5s60.834 21.5 93.501 21.5c48.667 0 85.334 -13.667 110.001 -41s37 -66 37 -116v-385h-112v329c0 32.667 -1.83301 57.834 -5.5 75.501s-10.834 30.667 -21.501 39s-26.667 12.5 -48 12.5
c-24 0 -46.833 -7.33301 -68.5 -22s-40.167 -33 -55.5 -55v-379h-112v528z" />
    <glyph glyph-name="o" unicode="o" 
d="M477 467.5c41.333 -49.667 62.001 -117.167 62.001 -202.5s-21 -153 -63 -203s-100.667 -75 -176 -75c-76 0 -134.833 24.5 -176.5 73.5s-62.5 116.833 -62.5 203.5c0 84 21.167 151.333 63.5 202s101.166 76 176.499 76c76 0 134.667 -24.833 176 -74.5zM209.501 408
c-20.333 -31.333 -30.5 -79.332 -30.5 -143.999c0 -65.333 10 -113.5 30 -144.5s50.333 -46.5 91 -46.5s71 15.667 91 47s30 79.666 30 144.999c0 64.667 -10 112.5 -30 143.5s-50 46.5 -90 46.5c-40.667 0 -71.167 -15.667 -91.5 -47z" />
    <glyph glyph-name="p" unicode="p" 
d="M539 265c0 -83.333 -17.668 -150.5 -53.001 -201.5s-85.666 -76.5 -150.999 -76.5c-55.333 0 -100 19.333 -134 58v-248l-112 -13v744h97l7 -68c20 26.667 43.167 47 69.5 61s54.5 21 84.5 21c128 0 192 -92.333 192 -277zM251.999 435
c-19.333 -14 -36.335 -32.332 -51.002 -54.999v-247c26 -39.333 60.667 -59 104 -59c38.667 0 67.667 15.333 87 46s29 78.667 29 144c0 67.333 -8.66699 116.166 -26 146.499s-43.666 45.5 -78.999 45.5c-23.333 0 -44.666 -7 -63.999 -21z" />
    <glyph glyph-name="q" unicode="q" 
d="M407 476l6.99902 52h97v-744l-112 13v261c-36 -47.333 -84 -71 -144 -71c-66.667 0 -115.667 24.167 -147 72.5s-47 116.5 -47 204.5c0 82.667 18.167 149.667 54.5 201s86.833 77 151.5 77c58.667 0 105.334 -22 140.001 -66zM178.999 264
c0 -66 8.83398 -114.167 26.501 -144.5s44.167 -45.5 79.5 -45.5c24 0 45.5 6.66699 64.5 20s35.5 31.333 49.5 54v249c-26.667 39.333 -61.334 59 -104.001 59c-77.333 0 -116 -64 -116 -192z" />
    <glyph glyph-name="r" unicode="r" 
d="M543 528l-19.001 -194.998h-80v108c-36.667 -0.666992 -68.5 -15.334 -95.5 -44.001s-48.5 -69 -64.5 -121v-196h106v-80h-296v80h78v368h-78v80h163l20 -122c20.667 45.333 45.834 79.166 75.501 101.499s66.5 33.5 110.5 33.5c27.333 0 54 -4.33301 80 -13z" />
    <glyph glyph-name="s" unicode="s" 
d="M364.5 91c20.333 12.667 30.499 30.001 30.499 52.001c0 15.333 -3 27.833 -9 37.5s-18 18.667 -36 27s-45 17.166 -81 26.499c-58 14.667 -101.5 33.5 -130.5 56.5s-43.5 56.167 -43.5 99.5c0 46 19 82.833 57 110.5s89.333 41.5 154 41.5c78 0 145 -20.333 201 -61
l-48 -71c-47.333 31.333 -97.333 47 -150 47c-66.667 0 -100 -19.333 -100 -58c0 -13.333 3.83301 -24.333 11.5 -33s20.834 -16.834 39.501 -24.501s46.334 -16.5 83.001 -26.5c57.333 -16 100.166 -35.667 128.499 -59s42.5 -58.333 42.5 -105
c0 -54 -22.333 -94.833 -67 -122.5s-100 -41.5 -166 -41.5c-87.333 0 -159.666 24.667 -216.999 74l59 68c22 -17.333 46.5 -31.166 73.5 -41.499s55.167 -15.5 84.5 -15.5c35.333 0 63.166 6.33301 83.499 19z" />
    <glyph glyph-name="t" unicode="t" 
d="M460 -2c-26.667 -7.33301 -54.667 -10.999 -84 -10.999c-60 0 -106.333 15.5 -139 46.5s-49 73.167 -49 126.5v286h-117v82h117v118l112 13v-131h179l-13 -82h-166v-285c0 -28.667 7.33301 -49.834 22 -63.501s38 -20.5 70 -20.5c35.333 0 68 8.33301 98 25l40 -74
c-20 -12.667 -43.333 -22.667 -70 -30z" />
    <glyph glyph-name="u" unicode="u" 
d="M201 159c0 -30.667 6.16895 -52.833 18.502 -66.5s31.166 -20.5 56.499 -20.5c24 0 47.167 7 69.5 21s40.166 31.667 53.499 53v382h112v-528h-97l-7 68c-18.667 -26 -43 -46 -73 -60s-61 -21 -93 -21c-50.667 0 -88.667 13.667 -114 41s-38 66.333 -38 117v383h112v-369
z" />
    <glyph glyph-name="v" unicode="v" 
d="M365 0h-130l-187 528h121l133 -435l135 435h115z" />
    <glyph glyph-name="w" unicode="w" 
d="M362 0l-60 375l-64 -375h-137l-89 528h108l55 -458l74 391h112l68 -391l55 458h104l-86 -528h-140z" />
    <glyph glyph-name="x" unicode="x" 
d="M43 0l190 278l-169 250h129l108 -186l108 186h123l-165 -245l190 -283h-131l-130 216l-129 -216h-124z" />
    <glyph glyph-name="y" unicode="y" 
d="M369 -2c-21.333 -64 -52.167 -114.167 -92.5 -150.5s-95.833 -57.5 -166.5 -63.5l-14 84c34.667 5.33301 62.667 13.5 84 24.5s38.333 24.833 51 41.5s24 38.667 34 66h-38l-178 528h119l133 -450l135 450h115z" />
    <glyph glyph-name="z" unicode="z" 
d="M508 90l-12 -90h-405v82l281 356h-259v90h391v-82l-279 -356h283z" />
    <glyph glyph-name="braceleft" unicode="{" 
d="M457 754c-38 0 -66.999 -5.50098 -86.999 -16.501s-28.667 -29.833 -26 -56.5l18 -184c0.666992 -6 1 -14.333 1 -25c0 -36.667 -9.83301 -64.5 -29.5 -83.5s-48.834 -31.833 -87.501 -38.5c40 -6.66699 69.5 -19 88.5 -37s28.5 -45.667 28.5 -83
c0 -12 -0.333008 -21 -1 -27l-18 -184c-2.66699 -27.333 6 -46.333 26 -57s49 -16 87 -16v-83c-70 0 -123.833 10.833 -161.5 32.5s-56.5 58.5 -56.5 110.5c0 10 0.333008 17.667 1 23l19 173c0.666992 3.33301 1 8.66602 1 15.999c0 30.667 -11.333 52.834 -34 66.501
s-60.334 20.5 -113.001 20.5v90c52.667 0 90.334 6.83301 113.001 20.5s34 35.834 34 66.501c0 6.66699 -0.333008 11.667 -1 15l-19 173c-0.666992 5.33301 -1 13 -1 23c0 52 18.833 89 56.5 111s91.5 33 161.5 33v-83z" />
    <glyph glyph-name="bar" unicode="|" 
d="M351 -103h-103v911h103v-911z" />
    <glyph glyph-name="braceright" unicode="}" 
d="M304.5 804.5c37.667 -21.667 56.498 -58.499 56.498 -110.499c0 -10 -0.333008 -17.667 -1 -23l-19 -174l-1 -14c0 -30.667 11.833 -53 35.5 -67s60.834 -21 111.501 -21v-90c-50.667 0 -87.834 -7.16699 -111.501 -21.5s-35.5 -36.833 -35.5 -67.5l1 -14l19 -172
c0.666992 -5.33301 1 -13 1 -23c0 -52 -18.833 -89 -56.5 -111s-91.5 -33 -161.5 -33v83c38 0 67 5.33301 87 16s28.667 29.667 26 57l-18 184c-0.666992 6 -1 14.667 -1 26c0 37.333 10 65.166 30 83.499s51.333 30.5 94 36.5c-42 7.33301 -73.167 20.333 -93.5 39
s-30.5 46.667 -30.5 84c0 10.667 0.333008 19 1 25l18 184c2.66699 26.667 -6.16602 45.5 -26.499 56.5s-49.166 16.5 -86.499 16.5v83c70 0 123.833 -10.833 161.5 -32.5z" />
    <glyph glyph-name="asciitilde" unicode="~" 
d="M267 397c17.333 -10 36.999 -24.667 58.999 -44c16.667 -14.667 30 -25.167 40 -31.5s21 -9.5 33 -9.5c18.667 0 35.667 7 51 21s30 34.333 44 61l71 -34c-21.333 -43.333 -44.833 -77.333 -70.5 -102s-58.5 -37 -98.5 -37c-23.333 0 -43.666 5 -60.999 15
s-36.666 24.333 -57.999 43c-16 14 -29.5 24.5 -40.5 31.5s-22.833 10.5 -35.5 10.5c-19.333 0 -36.333 -7 -51 -21s-29.334 -34.333 -44.001 -61l-71 34c21.333 42.667 44.833 76.5 70.5 101.5s58.5 37.5 98.5 37.5c24.667 0 45.667 -5 63 -15z" />
    <glyph glyph-name="uni00A0" unicode="&#xa0;" 
 />
    <glyph glyph-name="exclamdown" unicode="&#xa1;" 
d="M353 481.5c14.667 -15 22 -33.167 22 -54.5c0 -20.667 -7.33301 -38.334 -22 -53.001s-32.667 -22 -54 -22c-20.667 0 -38.334 7.33301 -53.001 22s-22 32.334 -22 53.001c0 21.333 7.33301 39.5 22 54.5s32.334 22.5 53.001 22.5c21.333 0 39.333 -7.5 54 -22.5z
M362 -200h-124l15 452h93z" />
    <glyph glyph-name="cent" unicode="&#xa2;" 
d="M380 537c46.667 -6 87.998 -24.332 123.998 -54.999l-52 -70c-20 14.667 -38.5 25 -55.5 31s-35.167 9 -54.5 9c-40.667 0 -72 -15.667 -94 -47s-33 -79.333 -33 -144c0 -121.333 42.333 -182 127 -182c19.333 0 37.5 3.16699 54.5 9.5s35.5 17.166 55.5 32.499l52 -75
c-35.333 -30 -76.666 -48 -123.999 -54v-148h-89v149c-63.333 9.33301 -111.666 37.5 -144.999 84.5s-50 108.167 -50 183.5c0 74 17 135.667 51 185s82.333 79 145 89v151h88v-149z" />
    <glyph glyph-name="sterling" unicode="&#xa3;" 
d="M538 612l-72 -54c-15.333 20 -31.833 34.5 -49.5 43.5s-38.167 13.5 -61.5 13.5c-66 0 -99 -37 -99 -111v-111h197v-68h-197v-106c0 -30 -4.5 -55.667 -13.5 -77s-25.5 -38.666 -49.5 -51.999h334l-14 -90h-451v85c24.667 8 43 18 55 30s19.5 25.667 22.5 41
s4.5 36.333 4.5 63v106h-78v68h78v117c0 37.333 8.16699 70.666 24.5 99.999s40 52.333 71 69s67.5 25 109.5 25c82 0 145 -30.667 189 -92z" />
    <glyph glyph-name="currency" unicode="&#xa4;" 
d="M179 524c34.667 21.333 75.333 31.999 122 31.999s86.667 -10.667 120 -32l85 86l61 -61l-84 -84c23.333 -34.667 35 -75.667 35 -123c0 -46.667 -12 -88 -36 -124l85 -84l-61 -60l-86 84c-34 -20.667 -73.667 -31 -119 -31c-46 0 -86.667 10.333 -122 31l-85 -86l-61 61
l86 86c-22.667 34 -34 75 -34 123c0 46.667 11 87.334 33 122.001l-85 86l61 61zM213.999 438.499c-20 -23 -30 -55.167 -30 -96.5c0 -42 10 -74.333 30 -97s49 -34 87 -34s66.833 11.333 86.5 34s29.5 55 29.5 97c0 41.333 -9.83301 73.5 -29.5 96.5s-48.5 34.5 -86.5 34.5
s-67 -11.5 -87 -34.5z" />
    <glyph glyph-name="yen" unicode="&#xa5;" 
d="M385 348h112v-67h-139v-80h139v-67h-139v-134h-115v134h-137v67h137v80h-137v67h109l-188 342h123l151 -304h4l151 304h117z" />
    <glyph glyph-name="brokenbar" unicode="&#xa6;" 
d="M351 450h-103v358h103v-358zM351 -103h-103v358h103v-358z" />
    <glyph glyph-name="section" unicode="&#xa7;" 
d="M494 649l-45.999 -69.998c-20.667 14 -41.334 24.333 -62.001 31s-43.667 10 -69 10c-26.667 0 -47.834 -5.66699 -63.501 -17s-23.5 -26.333 -23.5 -45c0 -14 3.16699 -25.5 9.5 -34.5s18 -17.667 35 -26s42.5 -18.166 76.5 -29.499c54 -17.333 93 -37.5 117 -60.5
s36 -54.167 36 -93.5c0 -26.667 -7.33301 -50.834 -22 -72.501s-34 -39.834 -58 -54.501c38.667 -28.667 58 -65.334 58 -110.001c0 -46 -18.667 -82.833 -56 -110.5s-86.666 -41.5 -147.999 -41.5c-69.333 0 -129 18.333 -179 55l45 72c21.333 -14 42.833 -24.667 64.5 -32
s44.834 -11 69.501 -11c27.333 0 49.5 5.66699 66.5 17s25.5 26.333 25.5 45c0 14 -3.16699 25.5 -9.5 34.5s-18 17.667 -35 26s-42.833 18.166 -77.5 29.499c-54 18 -93 38.333 -117 61s-36 53.667 -36 93c0 26 7.66699 49.833 23 71.5s35 39.834 59 54.501
c-39.333 30 -59 67 -59 111c0 30 8.66699 56.5 26 79.5s41.166 40.833 71.499 53.5s64.5 19 102.5 19c65.333 0 124 -18.333 176 -55zM210.001 370.502c-6.66699 -13.667 -10.002 -26.834 -10.002 -39.501c0 -18 4.16699 -32 12.5 -42s22.5 -19.333 42.5 -28s55 -22 105 -40
c12.667 12 22.5 24.833 29.5 38.5s10.5 26.834 10.5 39.501c0 16.667 -4.16699 30 -12.5 40s-22.666 19.5 -42.999 28.5s-55.166 22.5 -104.499 40.5c-13.333 -11.333 -23.333 -23.833 -30 -37.5z" />
    <glyph glyph-name="dieresis" unicode="&#xa8;" 
d="M145 662c-12.667 12 -19 27 -19 45c0 18.667 6.33301 34 19 46s28.334 18 47.001 18c18 0 33.167 -6 45.5 -18s18.5 -27.333 18.5 -46c0 -18 -6.16699 -33 -18.5 -45s-27.5 -18 -45.5 -18c-18.667 0 -34.334 6 -47.001 18zM362 662c-12.667 12 -19 27 -19 45
s6.33301 33.167 19 45.5s28 18.5 46 18.5c18.667 0 34.167 -6 46.5 -18s18.5 -27.333 18.5 -46c0 -18 -6.16699 -33 -18.5 -45s-27.833 -18 -46.5 -18c-18 0 -33.333 6 -46 18z" />
    <glyph glyph-name="copyright" unicode="&#xa9;" 
d="M450 709c42 -28 74.002 -66.332 96.002 -114.999s33 -103 33 -163c0 -59.333 -11 -113.333 -33 -162s-54 -87 -96 -115s-91.667 -42 -149 -42c-58 0 -108.167 14 -150.5 42s-74.5 66.167 -96.5 114.5s-33 102.5 -33 162.5s11.167 114.167 33.5 162.5
s54.666 86.666 96.999 114.999s92.166 42.5 149.499 42.5s107 -14 149 -42zM142.502 620.001c-36.333 -49.333 -54.5 -112.333 -54.5 -189c0 -76 18.167 -138.5 54.5 -187.5s89.166 -73.5 158.499 -73.5c68.667 0 121.167 24.5 157.5 73.5s54.5 111.5 54.5 187.5
c0 76.667 -18.167 139.667 -54.5 189s-88.833 74 -157.5 74c-69.333 0 -122.166 -24.667 -158.499 -74zM370.002 614.001c18 -6.66699 35.666 -17.334 52.999 -32.001l-40 -53c-22.667 18 -46 27 -70 27c-25.333 0 -45.666 -10 -60.999 -30s-23 -51.333 -23 -94
c0 -41.333 7.5 -72 22.5 -92s35.5 -30 61.5 -30c28.667 0 54.667 10.667 78 32l37 -54c-34.667 -32 -75 -48 -121 -48c-50 0 -90 16.833 -120 50.5s-45 80.834 -45 141.501c0 40 7.16699 74.5 21.5 103.5s34 51 59 66s52.833 22.5 83.5 22.5c24.667 0 46 -3.33301 64 -10z
" />
    <glyph glyph-name="ordfeminine" unicode="&#xaa;" 
d="M422.5 715.5c29 -25 43.498 -60.835 43.498 -107.502v-185c0 -14 2.5 -24.833 7.5 -32.5s13.167 -13.167 24.5 -16.5l-23 -67c-24 2.66699 -43.5 8.5 -58.5 17.5s-26.833 22.5 -35.5 40.5c-16.667 -18.667 -36.667 -33.167 -60 -43.5s-48 -15.5 -74 -15.5
c-45.333 0 -82 12.333 -110 37s-42 57.334 -42 98.001c0 44.667 19 79.334 57 104.001s91.333 37 160 37h57v23c0 25.333 -7.66699 43.5 -23 54.5s-38.666 16.5 -69.999 16.5c-14.667 0 -32.667 -2 -54 -6s-43.333 -10 -66 -18l-27 70c56.667 20.667 110.334 31 161.001 31
c59.333 0 103.5 -12.5 132.5 -37.5zM320.998 514.998c-41.333 0 -71.499 -5.83301 -90.499 -17.5s-28.5 -29.167 -28.5 -52.5c0 -22 6.16699 -38.667 18.5 -50s30.166 -17 53.499 -17c18 0 35.333 4.66699 52 14s31 22.333 43 39v84h-48zM503.999 -0.00195312h-400v88h400
v-88z" />
    <glyph glyph-name="guillemotleft" unicode="&#xab;" 
d="M244 41l-173 212v76l173 212l66 -41l-128 -209l128 -209zM463 41l-175 212v76l175 212l66 -41l-128 -209l128 -209z" />
    <glyph glyph-name="logicalnot" unicode="&#xac;" 
d="M497 123h-98v146h-296v91h394v-237z" />
    <glyph glyph-name="uni00AD" unicode="&#xad;" 
d="M141 359h318v-92h-318v92z" />
    <glyph glyph-name="registered" unicode="&#xae;" 
d="M432 716c40 -23.333 71.5 -55 94.5 -95s34.5 -84 34.5 -132s-11.5 -91.833 -34.5 -131.5s-54.5 -71 -94.5 -94s-84 -34.5 -132 -34.5s-92 11.5 -132 34.5s-71.667 54.333 -95 94s-35 83.5 -35 131.5s11.667 92 35 132s55 71.667 95 95s84 35 132 35s92 -11.667 132 -35z
M198 669.5c-30.667 -18.333 -54.666 -43.5 -71.999 -75.5s-26 -67 -26 -105s8.66699 -72.833 26 -104.5s41.166 -56.5 71.499 -74.5s64.5 -27 102.5 -27c37.333 0 71.166 9 101.499 27s54.166 42.833 71.499 74.5s26 66.5 26 104.5s-8.66699 73 -26 105
s-41.166 57.167 -71.499 75.5s-64.166 27.5 -101.499 27.5s-71.333 -9.16699 -102 -27.5zM410.001 550c0 -20 -5.66797 -36.667 -17.001 -50s-26.666 -23 -45.999 -29l82 -118h-72l-70 107h-27v-107h-62v283h86c84 0 126 -28.667 126 -86zM260 588v-80h29c38 0 57 14 57 42
c0 25.333 -19.667 38 -59 38h-27z" />
    <glyph glyph-name="macron" unicode="&#xaf;" 
d="M158 669v81h283v-81h-283z" />
    <glyph glyph-name="degree" unicode="&#xb0;" 
d="M318 733.5c26 -13 46.833 -31.833 62.5 -56.5s23.5 -53.334 23.5 -86.001s-7.83301 -61.167 -23.5 -85.5s-36.5 -43 -62.5 -56s-53.333 -19.5 -82 -19.5s-56 6.5 -82 19.5s-47 31.833 -63 56.5s-24 53.334 -24 86.001s8 61.167 24 85.5s37 43 63 56s53.333 19.5 82 19.5
s56 -6.5 82 -19.5zM177.5 657.5c-15.667 -15.667 -23.5 -37.502 -23.5 -65.502c0 -28.667 7.83301 -51 23.5 -67s35.167 -24 58.5 -24s42.833 7.83301 58.5 23.5s23.5 37.834 23.5 66.501s-7.83301 50.834 -23.5 66.501s-35.167 23.5 -58.5 23.5
s-42.833 -7.83301 -58.5 -23.5z" />
    <glyph glyph-name="plusminus" unicode="&#xb1;" 
d="M350 394h147v-90h-147v-137h-100v137h-147v90h147v152h100v-152zM497 0h-394v91h394v-91z" />
    <glyph glyph-name="uni00B2" unicode="&#xb2;" 
d="M423.5 482.5c-9.66699 -15.667 -25.832 -30.998 -48.499 -45.998s-54.667 -32.5 -96 -52.5h170l-11 -69h-280v61c55.333 32 95.666 56.333 120.999 73s42.833 31 52.5 43s14.5 24.667 14.5 38s-4.66699 23.833 -14 31.5s-22 11.5 -38 11.5c-32.667 0 -61 -14.333 -85 -43
l-58 43c40 46 90.333 69 151 69c42.667 0 76 -9.83301 100 -29.5s36 -44.834 36 -75.501c0 -20.667 -4.83301 -38.834 -14.5 -54.501z" />
    <glyph glyph-name="uni00B3" unicode="&#xb3;" 
d="M405.5 617.5c23.667 -16.333 35.5 -37.833 35.5 -64.5c0 -18.667 -5.5 -33.5 -16.5 -44.5s-28.833 -18.833 -53.5 -23.5c29.333 -4.66699 50.666 -12.667 63.999 -24s20 -28.666 20 -51.999c0 -30 -14 -54.167 -42 -72.5s-66.667 -27.5 -116 -27.5
c-29.333 0 -57.666 4.66699 -84.999 14s-50.333 23.666 -69 42.999l53 45c28.667 -24.667 62.667 -37 102 -37c22 0 38.5 3.66699 49.5 11s16.5 17.333 16.5 30c0 14 -5.16699 24.167 -15.5 30.5s-26.166 9.5 -47.499 9.5h-49l9 51h37c36 0 54 11.333 54 34
c0 25.333 -17.667 38 -53 38c-18 0 -34.833 -2.66699 -50.5 -8s-31.834 -14.333 -48.501 -27l-46 47c43.333 34.667 94.333 52 153 52c42 0 74.833 -8.16699 98.5 -24.5z" />
    <glyph glyph-name="acute" unicode="&#xb4;" 
d="M428 722l-219 -89l-33 59l205 119z" />
    <glyph glyph-name="uni00B5" unicode="&#xb5;" 
d="M499 176c0 -54.667 7.33203 -113.333 21.999 -176l-103 -13c-4 9.33301 -8 21.833 -12 37.5s-6.66699 30.5 -8 44.5c-16 -24.667 -35.667 -44.5 -59 -59.5s-47.333 -22.5 -72 -22.5c-24 0 -42.833 3.66699 -56.5 11s-27.5 20.333 -41.5 39
c6.66699 -23.333 11.667 -43.333 15 -60s5 -33.667 5 -51v-129l-109 -12v743h112v-298c0 -37.333 1.66699 -66.333 5 -87s10.333 -36.667 21 -48s27.334 -17 50.001 -17c24.667 0 47 6.33301 67 19s37.333 29.667 52 51v380h112v-352z" />
    <glyph glyph-name="paragraph" unicode="&#xb6;" 
d="M566 -204l-98 -10.999v821h-101v-810l-98 -11v495c-76 2.66699 -134.167 22.5 -174.5 59.5s-60.5 85.167 -60.5 144.5c0 39.333 9.66699 74.666 29 105.999s48 55.833 86 73.5s84 26.5 138 26.5h279v-894z" />
    <glyph glyph-name="periodcentered" unicode="&#xb7;" 
d="M231 410c18.667 18.667 41.334 28 68.001 28c27.333 0 50.333 -9.33301 69 -28s28 -41.334 28 -68.001c0 -27.333 -9.33301 -50.333 -28 -69s-41.667 -28 -69 -28c-26.667 0 -49.334 9.33301 -68.001 28s-28 41.667 -28 69c0 26.667 9.33301 49.334 28 68.001z" />
    <glyph glyph-name="cedilla" unicode="&#xb8;" 
d="M310.5 -111c-14.333 5.33301 -36.501 8.00098 -66.501 8.00098l10 119h70v-70c32 -2.66699 56.167 -12.167 72.5 -28.5s24.5 -36.5 24.5 -60.5c0 -32 -12.667 -57.333 -38 -76s-57 -28 -95 -28c-20.667 0 -40.667 2.33301 -60 7s-35.666 11 -48.999 19l30 58
c22.667 -11.333 44.667 -17 66 -17c38 0 57 12.667 57 38c0 15.333 -7.16699 25.666 -21.5 30.999z" />
    <glyph glyph-name="uni00B9" unicode="&#xb9;" 
d="M343 543l-89 -47l-42 57l146 83h72v-321h-87v228z" />
    <glyph glyph-name="ordmasculine" unicode="&#xba;" 
d="M453.5 692c37.667 -40.667 56.499 -94.667 56.499 -162c0 -44 -8.5 -82.833 -25.5 -116.5s-41.5 -60 -73.5 -79s-69 -28.5 -111 -28.5c-64.667 0 -116 20.333 -154 61s-57 95 -57 163c0 43.333 8.66699 81.833 26 115.5s42 60 74 79s69 28.5 111 28.5
c64.667 0 115.834 -20.333 153.501 -61zM221.999 640c-18.667 -24 -28 -60.667 -28 -110s9.33301 -86 28 -110s44.667 -36 78 -36s59.166 12 77.499 36s27.5 60.667 27.5 110s-9.16699 86 -27.5 110s-44.166 36 -77.499 36s-59.333 -12 -78 -36zM500.999 0h-401v88h401v-88z
" />
    <glyph glyph-name="guillemotright" unicode="&#xbb;" 
d="M71 500l66 41l173 -212v-76l-173 -212l-66 41l127 209zM288 500l66 41l175 -212v-76l-175 -212l-66 41l128 209z" />
    <glyph glyph-name="onequarter" unicode="&#xbc;" 
d="M123 597l-89 -48l-42 58l146 83h72v-321h-87v228zM14 243l535 256l33 -62l-534 -256zM556 0h-84v56h-180v55l130 220l74 -28l-109 -182h85l10 83h74v-83h51v-65h-51v-56z" />
    <glyph glyph-name="onehalf" unicode="&#xbd;" 
d="M120 597l-89 -48l-42 58l146 83h72v-321h-87v228zM10 243l535 256l33 -62l-534 -256zM584.5 167.5c-9.66699 -15.667 -25.832 -30.998 -48.499 -45.998s-54.667 -32.5 -96 -52.5h170l-11 -69h-280v61c55.333 32 95.666 56.333 120.999 73s42.833 31 52.5 43
s14.5 24.667 14.5 38s-4.66699 23.833 -14 31.5s-22 11.5 -38 11.5c-32.667 0 -61 -14.333 -85 -43l-58 43c40 46 90.333 69 151 69c42.667 0 76 -9.83301 100 -29.5s36 -44.834 36 -75.501c0 -20.667 -4.83301 -38.834 -14.5 -54.501z" />
    <glyph glyph-name="threequarters" unicode="&#xbe;" 
d="M255.5 671.5c23.667 -16.333 35.5 -37.833 35.5 -64.5c0 -18.667 -5.5 -33.5 -16.5 -44.5s-28.833 -18.833 -53.5 -23.5c29.333 -4.66699 50.666 -12.667 63.999 -24s20 -28.666 20 -51.999c0 -30 -14 -54.167 -42 -72.5s-66.667 -27.5 -116 -27.5
c-29.333 0 -57.666 4.66699 -84.999 14s-50.333 23.666 -69 42.999l53 44c28.667 -24 62.667 -36 102 -36c22 0 38.5 3.66699 49.5 11s16.5 17.333 16.5 30c0 14 -5.16699 24.167 -15.5 30.5s-26.166 9.5 -47.499 9.5h-49l9 51h37c36 0 54 11.333 54 34
c0 24.667 -17.667 37 -53 37c-18 0 -34.833 -2.66699 -50.5 -8s-31.834 -14 -48.501 -26l-46 47c43.333 34.667 94.333 52 153 52c42 0 74.833 -8.16699 98.5 -24.5zM22 243l535 256l33 -62l-534 -256zM556 0h-84v56h-180v55l130 220l74 -28l-109 -182h85l10 83h74v-83h51
v-65h-51v-56z" />
    <glyph glyph-name="questiondown" unicode="&#xbf;" 
d="M374.5 481.5c15 -15 22.5 -33.167 22.5 -54.5c0 -20.667 -7.5 -38.334 -22.5 -53.001s-32.833 -22 -53.5 -22s-38.334 7.33301 -53.001 22s-22 32.334 -22 53.001c0 21.333 7.33301 39.5 22 54.5s32.334 22.5 53.001 22.5s38.5 -7.5 53.5 -22.5zM378 216
c0 -28.667 -4.83203 -53.166 -14.499 -73.499s-21.334 -37 -35.001 -50s-31.167 -27.5 -52.5 -43.5c-24.667 -18.667 -42.667 -34.5 -54 -47.5s-17 -29.5 -17 -49.5c0 -24 9.66699 -42.833 29 -56.5s44.333 -20.5 75 -20.5c24 0 47.833 5.66699 71.5 17
s44.834 28.666 63.501 51.999l75 -57c-57.333 -68.667 -131 -103 -221 -103c-43.333 0 -80.833 7.33301 -112.5 22s-55.834 34.334 -72.501 59.001s-25 51 -25 79c0 26 4.5 48.167 13.5 66.5s19.833 33.333 32.5 45s29.667 25.167 51 40.5
c28.667 20.667 50.167 39.667 64.5 57s21.5 40.666 21.5 69.999v29h107v-36z" />
    <glyph glyph-name="Agrave" unicode="&#xc0;" 
d="M175 166l-48 -166h-119l220 690h144l220 -690h-123l-48 166h-246zM397 256l-99 344l-99 -344h198zM424 812l-30 -58l-217 82l51 90z" />
    <glyph glyph-name="Aacute" unicode="&#xc1;" 
d="M175 166l-48 -166h-119l220 690h144l220 -690h-123l-48 166h-246zM397 256l-99 344l-99 -344h198zM427 834l-223 -80l-28 58l205 112z" />
    <glyph glyph-name="Acircumflex" unicode="&#xc2;" 
d="M175 166l-48 -166h-119l220 690h144l220 -690h-123l-48 166h-246zM397 256l-99 344l-99 -344h198zM473 807l-44 -51l-129 82l-128 -82l-45 51l137 116h72z" />
    <glyph glyph-name="Atilde" unicode="&#xc3;" 
d="M175 166l-48 -166h-119l220 690h144l220 -690h-123l-48 166h-246zM397 256l-99 344l-99 -344h198zM322 778c-10.667 4.66699 -22.3311 11.333 -34.998 20c-8.66699 6.66699 -16.5 11.667 -23.5 15s-14.167 5 -21.5 5c-10.667 0 -20 -3.66699 -28 -11
s-16.333 -18.666 -25 -33.999l-63 31c13.333 29.333 29.666 52.833 48.999 70.5s41.666 26.5 66.999 26.5c14 0 26 -2.33301 36 -7s21.667 -11.334 35 -20.001c9.33301 -6.66699 17.333 -11.667 24 -15s13.667 -5 21 -5c10 0 19 3.5 27 10.5s16.333 18.167 25 33.5l63 -32
c-13.333 -30.667 -29.833 -54.167 -49.5 -70.5s-41.5 -24.5 -65.5 -24.5c-13.333 0 -25.333 2.33301 -36 7z" />
    <glyph glyph-name="Adieresis" unicode="&#xc4;" 
d="M175 166l-48 -166h-119l220 690h144l220 -690h-123l-48 166h-246zM397 256l-99 344l-99 -344h198zM145.5 784c-12.333 12 -18.5 27 -18.5 45s6.16699 33.167 18.5 45.5s27.833 18.5 46.5 18.5s34.167 -6.16699 46.5 -18.5s18.5 -27.5 18.5 -45.5s-6.16699 -33 -18.5 -45
s-27.833 -18 -46.5 -18s-34.167 6 -46.5 18zM362 784c-12.667 12 -19 27 -19 45s6.33301 33.167 19 45.5s28 18.5 46 18.5c18.667 0 34.167 -6.16699 46.5 -18.5s18.5 -27.5 18.5 -45.5s-6.16699 -33 -18.5 -45s-27.833 -18 -46.5 -18c-18 0 -33.333 6 -46 18z" />
    <glyph glyph-name="Aring" unicode="&#xc5;" 
d="M175 166l-48 -166h-119l220 690h144l220 -690h-123l-48 166h-246zM397 256l-99 344l-99 -344h198zM388 928c22.667 -22 34 -49 34 -81s-11.333 -58.833 -34 -80.5s-52 -32.5 -88 -32.5c-35.333 0 -64.333 11 -87 33s-34 48.667 -34 80c0 32 11.333 59 34 81
s51.667 33 87 33c36 0 65.333 -11 88 -33zM263.5 886.5c-9 -9.66699 -13.501 -22.834 -13.501 -39.501c0 -17.333 4.5 -30.666 13.5 -39.999s21.167 -14 36.5 -14c16 0 28.5 4.66699 37.5 14s13.5 22.666 13.5 39.999c0 16.667 -4.66699 29.834 -14 39.501
s-21.666 14.5 -36.999 14.5s-27.5 -4.83301 -36.5 -14.5z" />
    <glyph glyph-name="AE" unicode="&#xc6;" 
d="M144 167l-41 -167h-115l192 690h386l-13 -86h-216l45 -211h175v-86h-160l46 -221h163v-86h-251l-31 167h-180zM307 254l-65 352l-78 -352h143z" />
    <glyph glyph-name="Ccedilla" unicode="&#xc7;" 
d="M447.5 -82.5c16.333 -16.333 24.498 -36.498 24.498 -60.498c0 -32 -12.667 -57.333 -38 -76s-57 -28 -95 -28c-20.667 0 -40.667 2.33301 -60 7s-35.666 11 -48.999 19l30 58c22.667 -11.333 44.667 -17 66 -17c38 0 57 12.667 57 38
c0 15.333 -7.16699 25.666 -21.5 30.999s-36.5 8 -66.5 8l8 94c-76 12.667 -136.833 49.667 -182.5 111s-68.5 142.666 -68.5 243.999c0 74.667 13.5 139 40.5 193s63.833 95 110.5 123s98.334 42 155.001 42c45.333 0 84 -5.66699 116 -17s62.667 -29 92 -53l-60 -72
c-42 34 -89.667 51 -143 51c-56 0 -101.667 -21.5 -137 -64.5s-53 -110.5 -53 -202.5c0 -90.667 17.333 -157.5 52 -200.5s81 -64.5 139 -64.5c33.333 0 61.833 5.16699 85.5 15.5s47.167 24.833 70.5 43.5l56 -71c-52 -52 -119 -79.333 -201 -82v-41
c32 -2.66699 56.167 -12.167 72.5 -28.5z" />
    <glyph glyph-name="Egrave" unicode="&#xc8;" 
d="M229 394h250v-87h-250v-219h305v-88h-421v690h415l-13 -88h-286v-208zM444 812l-30 -58l-217 82l51 90z" />
    <glyph glyph-name="Eacute" unicode="&#xc9;" 
d="M229 394h250v-87h-250v-219h305v-88h-421v690h415l-13 -88h-286v-208zM448 834l-223 -80l-28 58l205 112z" />
    <glyph glyph-name="Ecircumflex" unicode="&#xca;" 
d="M229 394h250v-87h-250v-219h305v-88h-421v690h415l-13 -88h-286v-208zM494 807l-44 -51l-129 82l-128 -82l-45 51l137 116h72z" />
    <glyph glyph-name="Edieresis" unicode="&#xcb;" 
d="M229 394h250v-87h-250v-219h305v-88h-421v690h415l-13 -88h-286v-208zM165.5 784c-12.333 12 -18.5 27 -18.5 45s6.16699 33.167 18.5 45.5s27.833 18.5 46.5 18.5s34.167 -6.16699 46.5 -18.5s18.5 -27.5 18.5 -45.5s-6.16699 -33 -18.5 -45s-27.833 -18 -46.5 -18
s-34.167 6 -46.5 18zM382 784c-12.667 12 -19 27 -19 45s6.33301 33.167 19 45.5s28 18.5 46 18.5c18.667 0 34.167 -6.16699 46.5 -18.5s18.5 -27.5 18.5 -45.5s-6.16699 -33 -18.5 -45s-27.833 -18 -46.5 -18c-18 0 -33.333 6 -46 18z" />
    <glyph glyph-name="Igrave" unicode="&#xcc;" 
d="M508 602h-150v-513h150v-89h-416v89h150v513h-150v88h416v-88zM424 812l-30 -58l-217 82l51 90z" />
    <glyph glyph-name="Iacute" unicode="&#xcd;" 
d="M508 602h-150v-513h150v-89h-416v89h150v513h-150v88h416v-88zM427 834l-223 -80l-28 58l205 112z" />
    <glyph glyph-name="Icircumflex" unicode="&#xce;" 
d="M508 602h-150v-513h150v-89h-416v89h150v513h-150v88h416v-88zM473 807l-44 -51l-129 82l-128 -82l-45 51l137 116h72z" />
    <glyph glyph-name="Idieresis" unicode="&#xcf;" 
d="M508 602h-150v-513h150v-89h-416v89h150v513h-150v88h416v-88zM145.5 784c-12.333 12 -18.5 27 -18.5 45s6.16699 33.167 18.5 45.5s27.833 18.5 46.5 18.5s34.167 -6.16699 46.5 -18.5s18.5 -27.5 18.5 -45.5s-6.16699 -33 -18.5 -45s-27.833 -18 -46.5 -18
s-34.167 6 -46.5 18zM362 784c-12.667 12 -19 27 -19 45s6.33301 33.167 19 45.5s28 18.5 46 18.5c18.667 0 34.167 -6.16699 46.5 -18.5s18.5 -27.5 18.5 -45.5s-6.16699 -33 -18.5 -45s-27.833 -18 -46.5 -18c-18 0 -33.333 6 -46 18z" />
    <glyph glyph-name="Eth" unicode="&#xd0;" 
d="M480.5 617c61 -48.667 91.501 -138 91.501 -268c0 -130.667 -30.333 -221.5 -91 -272.5s-137.334 -76.5 -230.001 -76.5h-169v314h-66v78h66v298h158c99.333 0 179.5 -24.333 240.5 -73zM450.001 349c0 98.667 -17.167 165.333 -51.5 200s-79.833 52 -136.5 52h-64v-209
h144v-78h-144v-226h65c124.667 0 187 87 187 261z" />
    <glyph glyph-name="Ntilde" unicode="&#xd1;" 
d="M158 587c10.667 -109.333 16 -200.667 16 -274v-313h-103v690h151l220 -587c-4.66699 49.333 -8.5 93.833 -11.5 133.5s-4.5 86.167 -4.5 139.5v314h103v-690h-151zM324 777.999c-10.667 4.66699 -22.3311 11.333 -34.998 20c-8.66699 6.66699 -16.5 11.667 -23.5 15
s-14.167 5 -21.5 5c-10.667 0 -20 -3.66699 -28 -11s-16.333 -18.666 -25 -33.999l-63 31c13.333 29.333 29.666 52.833 48.999 70.5s41.666 26.5 66.999 26.5c14 0 26 -2.33301 36 -7s21.667 -11.334 35 -20.001c9.33301 -6.66699 17.333 -11.667 24 -15s13.667 -5 21 -5
c10 0 19 3.5 27 10.5s16.333 18.167 25 33.5l63 -32c-13.333 -30.667 -29.833 -54.167 -49.5 -70.5s-41.5 -24.5 -65.5 -24.5c-13.333 0 -25.333 2.33301 -36 7z" />
    <glyph glyph-name="Ograve" unicode="&#xd2;" 
d="M494.5 84c-45 -64.667 -109.833 -97 -194.5 -97s-149.5 31.833 -194.5 95.5s-67.5 150.834 -67.5 261.501c0 109.333 22.5 196.666 67.5 261.999s109.833 98 194.5 98s149.5 -32.167 194.5 -96.5s67.5 -151.833 67.5 -262.5c0 -109.333 -22.5 -196.333 -67.5 -261z
M409 547c-22.667 44 -59 66 -109 66s-86.333 -22 -109 -66s-34 -111.667 -34 -203c0 -90 11.5 -157 34.5 -201s59.167 -66 108.5 -66c50 0 86.333 22 109 66s34 111.333 34 202s-11.333 158 -34 202zM424 812l-30 -58l-217 82l51 90z" />
    <glyph glyph-name="Oacute" unicode="&#xd3;" 
d="M494.5 84c-45 -64.667 -109.833 -97 -194.5 -97s-149.5 31.833 -194.5 95.5s-67.5 150.834 -67.5 261.501c0 109.333 22.5 196.666 67.5 261.999s109.833 98 194.5 98s149.5 -32.167 194.5 -96.5s67.5 -151.833 67.5 -262.5c0 -109.333 -22.5 -196.333 -67.5 -261z
M409 547c-22.667 44 -59 66 -109 66s-86.333 -22 -109 -66s-34 -111.667 -34 -203c0 -90 11.5 -157 34.5 -201s59.167 -66 108.5 -66c50 0 86.333 22 109 66s34 111.333 34 202s-11.333 158 -34 202zM427 834l-223 -80l-28 58l205 112z" />
    <glyph glyph-name="Ocircumflex" unicode="&#xd4;" 
d="M494.5 84c-45 -64.667 -109.833 -97 -194.5 -97s-149.5 31.833 -194.5 95.5s-67.5 150.834 -67.5 261.501c0 109.333 22.5 196.666 67.5 261.999s109.833 98 194.5 98s149.5 -32.167 194.5 -96.5s67.5 -151.833 67.5 -262.5c0 -109.333 -22.5 -196.333 -67.5 -261z
M409 547c-22.667 44 -59 66 -109 66s-86.333 -22 -109 -66s-34 -111.667 -34 -203c0 -90 11.5 -157 34.5 -201s59.167 -66 108.5 -66c50 0 86.333 22 109 66s34 111.333 34 202s-11.333 158 -34 202zM473 807l-44 -51l-129 82l-128 -82l-45 51l137 116h72z" />
    <glyph glyph-name="Otilde" unicode="&#xd5;" 
d="M494.5 84c-45 -64.667 -109.833 -97 -194.5 -97s-149.5 31.833 -194.5 95.5s-67.5 150.834 -67.5 261.501c0 109.333 22.5 196.666 67.5 261.999s109.833 98 194.5 98s149.5 -32.167 194.5 -96.5s67.5 -151.833 67.5 -262.5c0 -109.333 -22.5 -196.333 -67.5 -261z
M409 547c-22.667 44 -59 66 -109 66s-86.333 -22 -109 -66s-34 -111.667 -34 -203c0 -90 11.5 -157 34.5 -201s59.167 -66 108.5 -66c50 0 86.333 22 109 66s34 111.333 34 202s-11.333 158 -34 202zM322 778c-10.667 4.66699 -22.3311 11.333 -34.998 20
c-8.66699 6.66699 -16.5 11.667 -23.5 15s-14.167 5 -21.5 5c-10.667 0 -20 -3.66699 -28 -11s-16.333 -18.666 -25 -33.999l-63 31c13.333 29.333 29.666 52.833 48.999 70.5s41.666 26.5 66.999 26.5c14 0 26 -2.33301 36 -7s21.667 -11.334 35 -20.001
c9.33301 -6.66699 17.333 -11.667 24 -15s13.667 -5 21 -5c10 0 19 3.5 27 10.5s16.333 18.167 25 33.5l63 -32c-13.333 -30.667 -29.833 -54.167 -49.5 -70.5s-41.5 -24.5 -65.5 -24.5c-13.333 0 -25.333 2.33301 -36 7z" />
    <glyph glyph-name="Odieresis" unicode="&#xd6;" 
d="M494.5 84c-45 -64.667 -109.833 -97 -194.5 -97s-149.5 31.833 -194.5 95.5s-67.5 150.834 -67.5 261.501c0 109.333 22.5 196.666 67.5 261.999s109.833 98 194.5 98s149.5 -32.167 194.5 -96.5s67.5 -151.833 67.5 -262.5c0 -109.333 -22.5 -196.333 -67.5 -261z
M409 547c-22.667 44 -59 66 -109 66s-86.333 -22 -109 -66s-34 -111.667 -34 -203c0 -90 11.5 -157 34.5 -201s59.167 -66 108.5 -66c50 0 86.333 22 109 66s34 111.333 34 202s-11.333 158 -34 202zM145.5 784c-12.333 12 -18.5 27 -18.5 45s6.16699 33.167 18.5 45.5
s27.833 18.5 46.5 18.5s34.167 -6.16699 46.5 -18.5s18.5 -27.5 18.5 -45.5s-6.16699 -33 -18.5 -45s-27.833 -18 -46.5 -18s-34.167 6 -46.5 18zM362 784c-12.667 12 -19 27 -19 45s6.33301 33.167 19 45.5s28 18.5 46 18.5c18.667 0 34.167 -6.16699 46.5 -18.5
s18.5 -27.5 18.5 -45.5s-6.16699 -33 -18.5 -45s-27.833 -18 -46.5 -18c-18 0 -33.333 6 -46 18z" />
    <glyph glyph-name="multiply" unicode="&#xd7;" 
d="M485 427l-120 -120l120 -120l-65 -65l-120 120l-120 -120l-65 65l120 120l-120 120l65 66l120 -121l120 121z" />
    <glyph glyph-name="Oslash" unicode="&#xd8;" 
d="M531 535.5c20.667 -54.333 31 -117.834 31 -190.501c0 -109.333 -22.5 -196.333 -67.5 -261s-109.833 -97 -194.5 -97c-21.333 0 -41 2 -59 6l-31 -103l-89 25l37 116c-38.667 28.667 -68.334 69.834 -89.001 123.501s-31 116.834 -31 189.501
c0 109.333 22.5 196.666 67.5 261.999s109.833 98 194.5 98c22 0 42 -2.33301 60 -7l31 106l88 -25l-37 -118c38.667 -28.667 68.334 -70.167 89.001 -124.5zM190 547.999c-22.667 -44 -33.999 -112 -33.999 -204c0 -108.667 15 -183 45 -223l141 488
c-13.333 3.33301 -27.333 5 -42 5c-50.667 0 -87.334 -22 -110.001 -66zM410.001 141.999c22.667 44 33.999 111.666 33.999 202.999c0 56 -3.5 102.333 -10.5 139s-18.167 65.334 -33.5 86.001l-142 -489c14.667 -3.33301 28.667 -5 42 -5c50.667 0 87.334 22 110.001 66z
" />
    <glyph glyph-name="Ugrave" unicode="&#xd9;" 
d="M539 226c0 -46.667 -9.50098 -88 -28.501 -124s-46.5 -64.167 -82.5 -84.5s-79 -30.5 -129 -30.5c-75.333 0 -133.833 21.667 -175.5 65s-62.5 101.333 -62.5 174v464h116v-442c0 -57.333 9.83301 -99.833 29.5 -127.5s50.5 -41.5 92.5 -41.5
c42.667 0 73.834 13.833 93.501 41.5s29.5 70.167 29.5 127.5v442h117v-464zM423.999 812l-30 -58l-217 82l51 90z" />
    <glyph glyph-name="Uacute" unicode="&#xda;" 
d="M539 226c0 -46.667 -9.50098 -88 -28.501 -124s-46.5 -64.167 -82.5 -84.5s-79 -30.5 -129 -30.5c-75.333 0 -133.833 21.667 -175.5 65s-62.5 101.333 -62.5 174v464h116v-442c0 -57.333 9.83301 -99.833 29.5 -127.5s50.5 -41.5 92.5 -41.5
c42.667 0 73.834 13.833 93.501 41.5s29.5 70.167 29.5 127.5v442h117v-464zM426.999 834l-223 -80l-28 58l205 112z" />
    <glyph glyph-name="Ucircumflex" unicode="&#xdb;" 
d="M539 226c0 -46.667 -9.50098 -88 -28.501 -124s-46.5 -64.167 -82.5 -84.5s-79 -30.5 -129 -30.5c-75.333 0 -133.833 21.667 -175.5 65s-62.5 101.333 -62.5 174v464h116v-442c0 -57.333 9.83301 -99.833 29.5 -127.5s50.5 -41.5 92.5 -41.5
c42.667 0 73.834 13.833 93.501 41.5s29.5 70.167 29.5 127.5v442h117v-464zM472.999 807l-44 -51l-129 82l-128 -82l-45 51l137 116h72z" />
    <glyph glyph-name="Udieresis" unicode="&#xdc;" 
d="M539 226c0 -46.667 -9.50098 -88 -28.501 -124s-46.5 -64.167 -82.5 -84.5s-79 -30.5 -129 -30.5c-75.333 0 -133.833 21.667 -175.5 65s-62.5 101.333 -62.5 174v464h116v-442c0 -57.333 9.83301 -99.833 29.5 -127.5s50.5 -41.5 92.5 -41.5
c42.667 0 73.834 13.833 93.501 41.5s29.5 70.167 29.5 127.5v442h117v-464zM145.499 784c-12.333 12 -18.5 27 -18.5 45s6.16699 33.167 18.5 45.5s27.833 18.5 46.5 18.5s34.167 -6.16699 46.5 -18.5s18.5 -27.5 18.5 -45.5s-6.16699 -33 -18.5 -45s-27.833 -18 -46.5 -18
s-34.167 6 -46.5 18zM361.999 784c-12.667 12 -19 27 -19 45s6.33301 33.167 19 45.5s28 18.5 46 18.5c18.667 0 34.167 -6.16699 46.5 -18.5s18.5 -27.5 18.5 -45.5s-6.16699 -33 -18.5 -45s-27.833 -18 -46.5 -18c-18 0 -33.333 6 -46 18z" />
    <glyph glyph-name="Yacute" unicode="&#xdd;" 
d="M358 0h-116v263l-231 427h128l163 -327l165 327h122l-231 -426v-264zM429 834l-223 -80l-28 58l205 112z" />
    <glyph glyph-name="Thorn" unicode="&#xde;" 
d="M205 575h82c88.667 0 157 -18.333 205 -55s72 -91.667 72 -165c0 -78 -23.833 -136 -71.5 -174s-113.5 -57 -197.5 -57h-90v-124h-116v690h116v-115zM205 488v-276h93c46 0 81.5 10.667 106.5 32s37.5 57.666 37.5 108.999c0 46.667 -12.667 80.834 -38 102.501
s-61.333 32.5 -108 32.5h-91z" />
    <glyph glyph-name="germandbls" unicode="&#xdf;" 
d="M429 711c33.333 -28 50.002 -63.6719 50.002 -107.005c0 -23.333 -5.16699 -42.5 -15.5 -57.5s-25.5 -31.5 -45.5 -49.5c-15.333 -14 -26.5 -25.5 -33.5 -34.5s-10.5 -19.833 -10.5 -32.5c0 -15.333 5.66699 -28.666 17 -39.999s29 -25 53 -41
c25.333 -17.333 46 -33 62 -47s29.833 -32.167 41.5 -54.5s17.5 -49.166 17.5 -80.499c0 -37.333 -8.5 -69.666 -25.5 -96.999s-40 -48 -69 -62s-61.5 -21 -97.5 -21c-48.667 0 -91.334 11 -128.001 33l40 76c24.667 -14 50 -21 76 -21c28.667 0 50.667 7.5 66 22.5
s23 37.167 23 66.5c0 26 -7.33301 47.333 -22 64s-36.334 35 -65.001 55c-20 14 -36.167 26.167 -48.5 36.5s-22.666 23.333 -30.999 39s-12.5 33.834 -12.5 54.501c0 22 4.66699 40.5 14 55.5s22.666 31.167 39.999 48.5c15.333 14.667 26.833 27.834 34.5 39.501
s11.5 25.167 11.5 40.5c0 20 -6.33301 37 -19 51s-32.334 21 -59.001 21c-33.333 0 -58.166 -10.333 -74.499 -31s-24.5 -53.667 -24.5 -99v-539h-112v532c0 71.333 18.5 126 55.5 164s89.5 57 157.5 57c56 0 100.667 -14 134 -42z" />
    <glyph glyph-name="agrave" unicode="&#xe0;" 
d="M502 84.5c6 -9.66699 16.332 -16.8301 30.999 -21.4971l-26 -76c-55.333 6.66699 -91.666 31 -108.999 73c-19.333 -24 -43.5 -42.167 -72.5 -54.5s-60.833 -18.5 -95.5 -18.5c-53.333 0 -95.666 15 -126.999 45s-47 69.667 -47 119c0 55.333 21.833 98 65.5 128
s105.5 45 185.5 45h75v34c0 33.333 -10 57.666 -30 72.999s-49 23 -87 23c-18.667 0 -40.334 -2.33301 -65.001 -7s-49.667 -11.334 -75 -20.001l-28 79c63.333 24 125 36 185 36c70 0 122.667 -15.333 158 -46s53 -74.334 53 -131.001v-236c0 -20 3 -34.833 9 -44.5z
M330.499 87.0039c21.667 12 38.833 28.667 51.5 50v117h-62c-50.667 0 -87.667 -8.5 -111 -25.5s-35 -41.5 -35 -73.5c0 -28 7.5 -49.333 22.5 -64s37.167 -22 66.5 -22c23.333 0 45.833 6 67.5 18zM167.998 715.004l52 90l197 -124l-34 -59z" />
    <glyph glyph-name="aacute" unicode="&#xe1;" 
d="M502 84.5c6 -9.66699 16.332 -16.8301 30.999 -21.4971l-26 -76c-55.333 6.66699 -91.666 31 -108.999 73c-19.333 -24 -43.5 -42.167 -72.5 -54.5s-60.833 -18.5 -95.5 -18.5c-53.333 0 -95.666 15 -126.999 45s-47 69.667 -47 119c0 55.333 21.833 98 65.5 128
s105.5 45 185.5 45h75v34c0 33.333 -10 57.666 -30 72.999s-49 23 -87 23c-18.667 0 -40.334 -2.33301 -65.001 -7s-49.667 -11.334 -75 -20.001l-28 79c63.333 24 125 36 185 36c70 0 122.667 -15.333 158 -46s53 -74.334 53 -131.001v-236c0 -20 3 -34.833 9 -44.5z
M330.499 87.0039c21.667 12 38.833 28.667 51.5 50v117h-62c-50.667 0 -87.667 -8.5 -111 -25.5s-35 -41.5 -35 -73.5c0 -28 7.5 -49.333 22.5 -64s37.167 -22 66.5 -22c23.333 0 45.833 6 67.5 18zM419.998 722.004l-219 -89l-33 59l205 119z" />
    <glyph glyph-name="acircumflex" unicode="&#xe2;" 
d="M502 84.5c6 -9.66699 16.332 -16.8301 30.999 -21.4971l-26 -76c-55.333 6.66699 -91.666 31 -108.999 73c-19.333 -24 -43.5 -42.167 -72.5 -54.5s-60.833 -18.5 -95.5 -18.5c-53.333 0 -95.666 15 -126.999 45s-47 69.667 -47 119c0 55.333 21.833 98 65.5 128
s105.5 45 185.5 45h75v34c0 33.333 -10 57.666 -30 72.999s-49 23 -87 23c-18.667 0 -40.334 -2.33301 -65.001 -7s-49.667 -11.334 -75 -20.001l-28 79c63.333 24 125 36 185 36c70 0 122.667 -15.333 158 -46s53 -74.334 53 -131.001v-236c0 -20 3 -34.833 9 -44.5z
M330.499 87.0039c21.667 12 38.833 28.667 51.5 50v117h-62c-50.667 0 -87.667 -8.5 -111 -25.5s-35 -41.5 -35 -73.5c0 -28 7.5 -49.333 22.5 -64s37.167 -22 66.5 -22c23.333 0 45.833 6 67.5 18zM118.998 672.004l137 127h72l137 -127l-45 -50l-127 92l-128 -92z" />
    <glyph glyph-name="atilde" unicode="&#xe3;" 
d="M502 84.5c6 -9.66699 16.332 -16.8301 30.999 -21.4971l-26 -76c-55.333 6.66699 -91.666 31 -108.999 73c-19.333 -24 -43.5 -42.167 -72.5 -54.5s-60.833 -18.5 -95.5 -18.5c-53.333 0 -95.666 15 -126.999 45s-47 69.667 -47 119c0 55.333 21.833 98 65.5 128
s105.5 45 185.5 45h75v34c0 33.333 -10 57.666 -30 72.999s-49 23 -87 23c-18.667 0 -40.334 -2.33301 -65.001 -7s-49.667 -11.334 -75 -20.001l-28 79c63.333 24 125 36 185 36c70 0 122.667 -15.333 158 -46s53 -74.334 53 -131.001v-236c0 -20 3 -34.833 9 -44.5z
M330.499 87.0039c21.667 12 38.833 28.667 51.5 50v117h-62c-50.667 0 -87.667 -8.5 -111 -25.5s-35 -41.5 -35 -73.5c0 -28 7.5 -49.333 22.5 -64s37.167 -22 66.5 -22c23.333 0 45.833 6 67.5 18zM313.498 657.004c-10.333 4.66699 -21.8301 11.333 -34.4971 20
c-10 7.33301 -18.167 12.5 -24.5 15.5s-13.166 4.5 -20.499 4.5c-11.333 0 -20.833 -3.66699 -28.5 -11s-15.834 -19 -24.501 -35l-63 31c13.333 29.333 29.666 53 48.999 71s41.333 27 66 27c14 0 26.5 -2.5 37.5 -7.5s22.5 -11.833 34.5 -20.5
c9.33301 -6.66699 17.166 -11.667 23.499 -15s13.166 -5 20.499 -5c10 0 19 3.5 27 10.5s16.667 18.167 26 33.5l63 -31c-13.333 -30.667 -29.833 -54.167 -49.5 -70.5s-41.834 -24.5 -66.501 -24.5c-13.333 0 -25.166 2.33301 -35.499 7z" />
    <glyph glyph-name="adieresis" unicode="&#xe4;" 
d="M502 84.5c6 -9.66699 16.332 -16.8301 30.999 -21.4971l-26 -76c-55.333 6.66699 -91.666 31 -108.999 73c-19.333 -24 -43.5 -42.167 -72.5 -54.5s-60.833 -18.5 -95.5 -18.5c-53.333 0 -95.666 15 -126.999 45s-47 69.667 -47 119c0 55.333 21.833 98 65.5 128
s105.5 45 185.5 45h75v34c0 33.333 -10 57.666 -30 72.999s-49 23 -87 23c-18.667 0 -40.334 -2.33301 -65.001 -7s-49.667 -11.334 -75 -20.001l-28 79c63.333 24 125 36 185 36c70 0 122.667 -15.333 158 -46s53 -74.334 53 -131.001v-236c0 -20 3 -34.833 9 -44.5z
M330.499 87.0039c21.667 12 38.833 28.667 51.5 50v117h-62c-50.667 0 -87.667 -8.5 -111 -25.5s-35 -41.5 -35 -73.5c0 -28 7.5 -49.333 22.5 -64s37.167 -22 66.5 -22c23.333 0 45.833 6 67.5 18zM136.998 662.004c-12.667 12 -19 27 -19 45c0 18.667 6.33301 34 19 46
s28.334 18 47.001 18c18 0 33.167 -6 45.5 -18s18.5 -27.333 18.5 -46c0 -18 -6.16699 -33 -18.5 -45s-27.5 -18 -45.5 -18c-18.667 0 -34.334 6 -47.001 18zM353.998 662.004c-12.667 12 -19 27 -19 45s6.33301 33.167 19 45.5s28 18.5 46 18.5
c18.667 0 34.167 -6 46.5 -18s18.5 -27.333 18.5 -46c0 -18 -6.16699 -33 -18.5 -45s-27.833 -18 -46.5 -18c-18 0 -33.333 6 -46 18z" />
    <glyph glyph-name="aring" unicode="&#xe5;" 
d="M502 84.5c6 -9.66699 16.332 -16.8301 30.999 -21.4971l-26 -76c-55.333 6.66699 -91.666 31 -108.999 73c-19.333 -24 -43.5 -42.167 -72.5 -54.5s-60.833 -18.5 -95.5 -18.5c-53.333 0 -95.666 15 -126.999 45s-47 69.667 -47 119c0 55.333 21.833 98 65.5 128
s105.5 45 185.5 45h75v34c0 33.333 -10 57.666 -30 72.999s-49 23 -87 23c-18.667 0 -40.334 -2.33301 -65.001 -7s-49.667 -11.334 -75 -20.001l-28 79c63.333 24 125 36 185 36c70 0 122.667 -15.333 158 -46s53 -74.334 53 -131.001v-236c0 -20 3 -34.833 9 -44.5z
M330.499 87.0039c21.667 12 38.833 28.667 51.5 50v117h-62c-50.667 0 -87.667 -8.5 -111 -25.5s-35 -41.5 -35 -73.5c0 -28 7.5 -49.333 22.5 -64s37.167 -22 66.5 -22c23.333 0 45.833 6 67.5 18zM379.498 806.504c22.333 -21.667 33.5 -48.5 33.5 -80.5
s-11.167 -59 -33.5 -81s-51.5 -33 -87.5 -33s-65.333 11 -88 33s-34 49 -34 81s11.333 58.833 34 80.5s52 32.5 88 32.5s65.167 -10.833 87.5 -32.5zM254.498 765.004c-9 -9.33301 -13.5 -22.333 -13.5 -39c0 -17.333 4.5 -30.833 13.5 -40.5s21.5 -14.5 37.5 -14.5
c15.333 0 27.5 4.83301 36.5 14.5s13.5 23.167 13.5 40.5c0 16.667 -4.5 29.667 -13.5 39s-21.167 14 -36.5 14c-16 0 -28.5 -4.66699 -37.5 -14z" />
    <glyph glyph-name="ae" unicode="&#xe6;" 
d="M604 278c0 -13.333 -0.672852 -29.334 -2.00586 -48.001h-258c4.66699 -55.333 15.334 -95.833 32.001 -121.5s41.334 -38.5 74.001 -38.5c17.333 0 33.333 3 48 9s30.334 15.333 47.001 28l47 -66c-21.333 -17.333 -43.666 -30.666 -66.999 -39.999
s-49.666 -14 -78.999 -14c-68 0 -119 29 -153 87c-22 -31.333 -44 -53.666 -66 -66.999s-49.333 -20 -82 -20c-46 0 -82.667 15 -110 45s-41 69.667 -41 119c0 56 17.667 98.667 53 128s87.666 44 156.999 44h44v35c0 69.333 -30.333 104 -91 104c-16 0 -31.167 -2 -45.5 -6
s-32.5 -11 -54.5 -21l-27 72c50 23.333 96 35 138 35c36.667 0 65.834 -7 87.501 -21s38.5 -34 50.5 -60c10.667 25.333 26.834 45.166 48.501 59.499s47.5 21.5 77.5 21.5c114.667 0 172 -88 172 -264zM367.994 425.499c-13.333 -23.667 -21.332 -64.167 -23.999 -121.5
h164c-0.666992 54 -6.83398 93.667 -18.501 119s-32.167 38 -61.5 38c-26.667 0 -46.667 -11.833 -60 -35.5zM212.995 253.999c-40.667 0 -69.667 -8.16699 -87 -24.5s-26 -40.5 -26 -72.5c0 -29.333 5.66699 -51.833 17 -67.5s27 -23.5 47 -23.5
c18 0 34.167 6.66699 48.5 20s29.5 34.333 45.5 63c-6.66699 30.667 -10 65.667 -10 105h-35z" />
    <glyph glyph-name="ccedilla" unicode="&#xe7;" 
d="M435.5 -82.5c16.333 -16.333 24.499 -36.498 24.499 -60.498c0 -32 -12.667 -57.333 -38 -76s-57 -28 -95 -28c-20.667 0 -40.667 2.33301 -60 7s-35.666 11 -48.999 19l30 58c22.667 -11.333 44.667 -17 66 -17c38 0 57 12.667 57 38
c0 15.333 -7.16699 25.666 -21.5 30.999s-36.5 8 -66.5 8l8 93c-66 10 -117.167 39 -153.5 87s-54.5 109.333 -54.5 184c0 54 10.333 102.167 31 144.5s50.5 75.666 89.5 99.999s85.167 36.5 138.5 36.5c70 0 131 -21.333 183 -64l-52 -70
c-42.667 29.333 -85.667 44 -129 44c-44 0 -78.667 -15.833 -104 -47.5s-38 -79.5 -38 -143.5c0 -62.667 12.667 -108.667 38 -138s60 -44 104 -44c42 0 85.333 15 130 45l51 -72c-20.667 -18 -45.167 -32.667 -73.5 -44s-57.833 -18.333 -88.5 -21v-41
c32 -2.66699 56.167 -12.167 72.5 -28.5z" />
    <glyph glyph-name="egrave" unicode="&#xe8;" 
d="M226.5 112.5c26.333 -25.667 59.502 -38.5 99.502 -38.5c24.667 0 48.167 3.83301 70.5 11.5s45.166 19.167 68.499 34.5l48 -68c-24.667 -20.667 -53.667 -36.667 -87 -48s-68.333 -17 -105 -17c-80.667 0 -143.334 25.167 -188.001 75.5s-67 117.5 -67 201.5
c0 52.667 9.66699 100.167 29 142.5s47.333 75.5 84 99.5s79.334 36 128.001 36c70 0 125.5 -23.5 166.5 -70.5s61.5 -111.5 61.5 -193.5c0 -20 -1 -36.667 -3 -50h-350c3.33301 -51.333 18.166 -89.833 44.499 -115.5zM220.002 420c-22.667 -26 -35.667 -64.667 -39 -116
h245c-1.33301 50 -12 88.333 -32 115s-48.667 40 -86 40c-36 0 -65.333 -13 -88 -39zM185.002 715l52 90l197 -124l-34 -59z" />
    <glyph glyph-name="eacute" unicode="&#xe9;" 
d="M226.5 112.5c26.333 -25.667 59.502 -38.5 99.502 -38.5c24.667 0 48.167 3.83301 70.5 11.5s45.166 19.167 68.499 34.5l48 -68c-24.667 -20.667 -53.667 -36.667 -87 -48s-68.333 -17 -105 -17c-80.667 0 -143.334 25.167 -188.001 75.5s-67 117.5 -67 201.5
c0 52.667 9.66699 100.167 29 142.5s47.333 75.5 84 99.5s79.334 36 128.001 36c70 0 125.5 -23.5 166.5 -70.5s61.5 -111.5 61.5 -193.5c0 -20 -1 -36.667 -3 -50h-350c3.33301 -51.333 18.166 -89.833 44.499 -115.5zM220.002 420c-22.667 -26 -35.667 -64.667 -39 -116
h245c-1.33301 50 -12 88.333 -32 115s-48.667 40 -86 40c-36 0 -65.333 -13 -88 -39zM437.002 722l-219 -89l-33 59l205 119z" />
    <glyph glyph-name="ecircumflex" unicode="&#xea;" 
d="M226.5 112.5c26.333 -25.667 59.502 -38.5 99.502 -38.5c24.667 0 48.167 3.83301 70.5 11.5s45.166 19.167 68.499 34.5l48 -68c-24.667 -20.667 -53.667 -36.667 -87 -48s-68.333 -17 -105 -17c-80.667 0 -143.334 25.167 -188.001 75.5s-67 117.5 -67 201.5
c0 52.667 9.66699 100.167 29 142.5s47.333 75.5 84 99.5s79.334 36 128.001 36c70 0 125.5 -23.5 166.5 -70.5s61.5 -111.5 61.5 -193.5c0 -20 -1 -36.667 -3 -50h-350c3.33301 -51.333 18.166 -89.833 44.499 -115.5zM220.002 420c-22.667 -26 -35.667 -64.667 -39 -116
h245c-1.33301 50 -12 88.333 -32 115s-48.667 40 -86 40c-36 0 -65.333 -13 -88 -39zM136.002 672l137 127h72l137 -127l-45 -50l-127 92l-128 -92z" />
    <glyph glyph-name="edieresis" unicode="&#xeb;" 
d="M226.5 112.5c26.333 -25.667 59.502 -38.5 99.502 -38.5c24.667 0 48.167 3.83301 70.5 11.5s45.166 19.167 68.499 34.5l48 -68c-24.667 -20.667 -53.667 -36.667 -87 -48s-68.333 -17 -105 -17c-80.667 0 -143.334 25.167 -188.001 75.5s-67 117.5 -67 201.5
c0 52.667 9.66699 100.167 29 142.5s47.333 75.5 84 99.5s79.334 36 128.001 36c70 0 125.5 -23.5 166.5 -70.5s61.5 -111.5 61.5 -193.5c0 -20 -1 -36.667 -3 -50h-350c3.33301 -51.333 18.166 -89.833 44.499 -115.5zM220.002 420c-22.667 -26 -35.667 -64.667 -39 -116
h245c-1.33301 50 -12 88.333 -32 115s-48.667 40 -86 40c-36 0 -65.333 -13 -88 -39zM154.002 662c-12.667 12 -19 27 -19 45c0 18.667 6.33301 34 19 46s28.334 18 47.001 18c18 0 33.167 -6 45.5 -18s18.5 -27.333 18.5 -46c0 -18 -6.16699 -33 -18.5 -45
s-27.5 -18 -45.5 -18c-18.667 0 -34.334 6 -47.001 18zM371.002 662c-12.667 12 -19 27 -19 45s6.33301 33.167 19 45.5s28 18.5 46 18.5c18.667 0 34.167 -6 46.5 -18s18.5 -27.333 18.5 -46c0 -18 -6.16699 -33 -18.5 -45s-27.833 -18 -46.5 -18c-18 0 -33.333 6 -46 18z
" />
    <glyph glyph-name="igrave" unicode="&#xec;" 
d="M377 82h144v-82h-413v82h157v364h-152v82h264v-446zM176 715l52 90l197 -124l-34 -59z" />
    <glyph glyph-name="iacute" unicode="&#xed;" 
d="M377 82h144v-82h-413v82h157v364h-152v82h264v-446zM428 722l-219 -89l-33 59l205 119z" />
    <glyph glyph-name="icircumflex" unicode="&#xee;" 
d="M377 82h144v-82h-413v82h157v364h-152v82h264v-446zM127 672l137 127h72l137 -127l-45 -50l-127 92l-128 -92z" />
    <glyph glyph-name="idieresis" unicode="&#xef;" 
d="M377 82h144v-82h-413v82h157v364h-152v82h264v-446zM145 662c-12.667 12 -19 27 -19 45c0 18.667 6.33301 34 19 46s28.334 18 47.001 18c18 0 33.167 -6 45.5 -18s18.5 -27.333 18.5 -46c0 -18 -6.16699 -33 -18.5 -45s-27.5 -18 -45.5 -18
c-18.667 0 -34.334 6 -47.001 18zM362 662c-12.667 12 -19 27 -19 45s6.33301 33.167 19 45.5s28 18.5 46 18.5c18.667 0 34.167 -6 46.5 -18s18.5 -27.333 18.5 -46c0 -18 -6.16699 -33 -18.5 -45s-27.833 -18 -46.5 -18c-18 0 -33.333 6 -46 18z" />
    <glyph glyph-name="eth" unicode="&#xf0;" 
d="M225 641c-29.333 12.667 -65 23.0029 -107 31.0029l23 80c56.667 -10 106 -24.667 148 -44l71 74l63 -54l-59 -60c60.667 -40.667 105.334 -93.834 134.001 -159.501s43 -145.5 43 -239.5c0 -55.333 -9.83301 -104.333 -29.5 -147s-48.167 -75.834 -85.5 -99.501
s-81 -35.5 -131 -35.5c-44.667 0 -85 9.83301 -121 29.5s-64.5 48.167 -85.5 85.5s-31.5 81.666 -31.5 132.999c0 48 9.66699 90.667 29 128s45.333 66.333 78 87s68 31 106 31c31.333 0 59.166 -5.16699 83.499 -15.5s46.166 -25.833 65.499 -46.5
c-19.333 77.333 -59.666 138 -120.999 182l-70 -72l-75 36zM426 331.003c-15.333 21.333 -34.5 37.833 -57.5 49.5s-48.5 17.5 -76.5 17.5c-35.333 0 -64.333 -13.5 -87 -40.5s-34 -66.833 -34 -119.5c0 -54 11.167 -95.167 33.5 -123.5s52.5 -42.5 90.5 -42.5
c42.667 0 75.5 16.167 98.5 48.5s34.5 79.833 34.5 142.5c0 16 -0.666992 38.667 -2 68z" />
    <glyph glyph-name="ntilde" unicode="&#xf1;" 
d="M89 528l96.999 -0.000976562l8 -69c22 26.667 47.833 47.167 77.5 61.5s60.834 21.5 93.501 21.5c48.667 0 85.334 -13.667 110.001 -41s37 -66 37 -116v-385h-112v329c0 32.667 -1.83301 57.834 -5.5 75.501s-10.834 30.667 -21.501 39s-26.667 12.5 -48 12.5
c-24 0 -46.833 -7.33301 -68.5 -22s-40.167 -33 -55.5 -55v-379h-112v528zM321.499 656.999c-10.333 4.66699 -21.8301 11.333 -34.4971 20c-10 7.33301 -18.167 12.5 -24.5 15.5s-13.166 4.5 -20.499 4.5c-11.333 0 -20.833 -3.66699 -28.5 -11s-15.834 -19 -24.501 -35
l-63 31c13.333 29.333 29.666 53 48.999 71s41.333 27 66 27c14 0 26.5 -2.5 37.5 -7.5s22.5 -11.833 34.5 -20.5c9.33301 -6.66699 17.166 -11.667 23.499 -15s13.166 -5 20.499 -5c10 0 19 3.5 27 10.5s16.667 18.167 26 33.5l63 -31
c-13.333 -30.667 -29.833 -54.167 -49.5 -70.5s-41.834 -24.5 -66.501 -24.5c-13.333 0 -25.166 2.33301 -35.499 7z" />
    <glyph glyph-name="ograve" unicode="&#xf2;" 
d="M477 467.5c41.333 -49.667 62.001 -117.167 62.001 -202.5s-21 -153 -63 -203s-100.667 -75 -176 -75c-76 0 -134.833 24.5 -176.5 73.5s-62.5 116.833 -62.5 203.5c0 84 21.167 151.333 63.5 202s101.166 76 176.499 76c76 0 134.667 -24.833 176 -74.5zM209.501 408
c-20.333 -31.333 -30.5 -79.332 -30.5 -143.999c0 -65.333 10 -113.5 30 -144.5s50.333 -46.5 91 -46.5s71 15.667 91 47s30 79.666 30 144.999c0 64.667 -10 112.5 -30 143.5s-50 46.5 -90 46.5c-40.667 0 -71.167 -15.667 -91.5 -47zM176.001 715.001l52 90l197 -124
l-34 -59z" />
    <glyph glyph-name="oacute" unicode="&#xf3;" 
d="M477 467.5c41.333 -49.667 62.001 -117.167 62.001 -202.5s-21 -153 -63 -203s-100.667 -75 -176 -75c-76 0 -134.833 24.5 -176.5 73.5s-62.5 116.833 -62.5 203.5c0 84 21.167 151.333 63.5 202s101.166 76 176.499 76c76 0 134.667 -24.833 176 -74.5zM209.501 408
c-20.333 -31.333 -30.5 -79.332 -30.5 -143.999c0 -65.333 10 -113.5 30 -144.5s50.333 -46.5 91 -46.5s71 15.667 91 47s30 79.666 30 144.999c0 64.667 -10 112.5 -30 143.5s-50 46.5 -90 46.5c-40.667 0 -71.167 -15.667 -91.5 -47zM428.001 722.001l-219 -89l-33 59
l205 119z" />
    <glyph glyph-name="ocircumflex" unicode="&#xf4;" 
d="M477 467.5c41.333 -49.667 62.001 -117.167 62.001 -202.5s-21 -153 -63 -203s-100.667 -75 -176 -75c-76 0 -134.833 24.5 -176.5 73.5s-62.5 116.833 -62.5 203.5c0 84 21.167 151.333 63.5 202s101.166 76 176.499 76c76 0 134.667 -24.833 176 -74.5zM209.501 408
c-20.333 -31.333 -30.5 -79.332 -30.5 -143.999c0 -65.333 10 -113.5 30 -144.5s50.333 -46.5 91 -46.5s71 15.667 91 47s30 79.666 30 144.999c0 64.667 -10 112.5 -30 143.5s-50 46.5 -90 46.5c-40.667 0 -71.167 -15.667 -91.5 -47zM127.001 672.001l137 127h72l137 -127
l-45 -50l-127 92l-128 -92z" />
    <glyph glyph-name="otilde" unicode="&#xf5;" 
d="M477 467.5c41.333 -49.667 62.001 -117.167 62.001 -202.5s-21 -153 -63 -203s-100.667 -75 -176 -75c-76 0 -134.833 24.5 -176.5 73.5s-62.5 116.833 -62.5 203.5c0 84 21.167 151.333 63.5 202s101.166 76 176.499 76c76 0 134.667 -24.833 176 -74.5zM209.501 408
c-20.333 -31.333 -30.5 -79.332 -30.5 -143.999c0 -65.333 10 -113.5 30 -144.5s50.333 -46.5 91 -46.5s71 15.667 91 47s30 79.666 30 144.999c0 64.667 -10 112.5 -30 143.5s-50 46.5 -90 46.5c-40.667 0 -71.167 -15.667 -91.5 -47zM321.501 657.001
c-10.333 4.66699 -21.8301 11.333 -34.4971 20c-10 7.33301 -18.167 12.5 -24.5 15.5s-13.166 4.5 -20.499 4.5c-11.333 0 -20.833 -3.66699 -28.5 -11s-15.834 -19 -24.501 -35l-63 31c13.333 29.333 29.666 53 48.999 71s41.333 27 66 27c14 0 26.5 -2.5 37.5 -7.5
s22.5 -11.833 34.5 -20.5c9.33301 -6.66699 17.166 -11.667 23.499 -15s13.166 -5 20.499 -5c10 0 19 3.5 27 10.5s16.667 18.167 26 33.5l63 -31c-13.333 -30.667 -29.833 -54.167 -49.5 -70.5s-41.834 -24.5 -66.501 -24.5c-13.333 0 -25.166 2.33301 -35.499 7z" />
    <glyph glyph-name="odieresis" unicode="&#xf6;" 
d="M477 467.5c41.333 -49.667 62.001 -117.167 62.001 -202.5s-21 -153 -63 -203s-100.667 -75 -176 -75c-76 0 -134.833 24.5 -176.5 73.5s-62.5 116.833 -62.5 203.5c0 84 21.167 151.333 63.5 202s101.166 76 176.499 76c76 0 134.667 -24.833 176 -74.5zM209.501 408
c-20.333 -31.333 -30.5 -79.332 -30.5 -143.999c0 -65.333 10 -113.5 30 -144.5s50.333 -46.5 91 -46.5s71 15.667 91 47s30 79.666 30 144.999c0 64.667 -10 112.5 -30 143.5s-50 46.5 -90 46.5c-40.667 0 -71.167 -15.667 -91.5 -47zM145.001 662.001
c-12.667 12 -19 27 -19 45c0 18.667 6.33301 34 19 46s28.334 18 47.001 18c18 0 33.167 -6 45.5 -18s18.5 -27.333 18.5 -46c0 -18 -6.16699 -33 -18.5 -45s-27.5 -18 -45.5 -18c-18.667 0 -34.334 6 -47.001 18zM362.001 662.001c-12.667 12 -19 27 -19 45
s6.33301 33.167 19 45.5s28 18.5 46 18.5c18.667 0 34.167 -6 46.5 -18s18.5 -27.333 18.5 -46c0 -18 -6.16699 -33 -18.5 -45s-27.833 -18 -46.5 -18c-18 0 -33.333 6 -46 18z" />
    <glyph glyph-name="divide" unicode="&#xf7;" 
d="M354 571c14.667 -14.667 22 -32.667 22 -54c0 -20.667 -7.33301 -38.334 -22 -53.001s-32.667 -22 -54 -22s-39.333 7.33301 -54 22s-22 32.334 -22 53.001c0 21.333 7.33301 39.333 22 54s32.667 22 54 22s39.333 -7.33301 54 -22zM497 269h-394v91h394v-91zM354 165
c14.667 -14.667 22 -32.334 22 -53.001c0 -21.333 -7.33301 -39.333 -22 -54s-32.667 -22 -54 -22s-39.333 7.33301 -54 22s-22 32.667 -22 54c0 20.667 7.33301 38.334 22 53.001s32.667 22 54 22s39.333 -7.33301 54 -22z" />
    <glyph glyph-name="oslash" unicode="&#xf8;" 
d="M510 412.5c19.333 -41.667 29.001 -90.832 29.001 -147.499c0 -85.333 -21 -153 -63 -203s-100.667 -75 -176 -75c-14.667 0 -29 1 -43 3l-37 -123l-87 26l41 126c-36 22 -63.833 54 -83.5 96s-29.5 91.667 -29.5 149c0 84 21.167 151.333 63.5 202
s101.166 76 176.499 76c14 0 28 -1 42 -3l38 118l87 -25l-41 -123c36 -22.667 63.667 -54.834 83 -96.501zM208.501 409.002c-20.333 -31.333 -30.5 -79.667 -30.5 -145c0 -78.667 13 -132.667 39 -162l110 352c-10.667 1.33301 -19.334 2 -26.001 2
c-41.333 0 -72.166 -15.667 -92.499 -47zM392.001 119.001c20 31.333 29.999 80 29.999 146c0 78.667 -12.667 132 -38 160l-110 -351c10.667 -1.33301 19.334 -2 26.001 -2c41.333 0 72 15.667 92 47z" />
    <glyph glyph-name="ugrave" unicode="&#xf9;" 
d="M201 159c0 -30.667 6.16895 -52.833 18.502 -66.5s31.166 -20.5 56.499 -20.5c24 0 47.167 7 69.5 21s40.166 31.667 53.499 53v382h112v-528h-97l-7 68c-18.667 -26 -43 -46 -73 -60s-61 -21 -93 -21c-50.667 0 -88.667 13.667 -114 41s-38 66.333 -38 117v383h112v-369
zM176.002 715.001l52 90l197 -124l-34 -59z" />
    <glyph glyph-name="uacute" unicode="&#xfa;" 
d="M201 159c0 -30.667 6.16895 -52.833 18.502 -66.5s31.166 -20.5 56.499 -20.5c24 0 47.167 7 69.5 21s40.166 31.667 53.499 53v382h112v-528h-97l-7 68c-18.667 -26 -43 -46 -73 -60s-61 -21 -93 -21c-50.667 0 -88.667 13.667 -114 41s-38 66.333 -38 117v383h112v-369
zM428.002 722.001l-219 -89l-33 59l205 119z" />
    <glyph glyph-name="ucircumflex" unicode="&#xfb;" 
d="M201 159c0 -30.667 6.16895 -52.833 18.502 -66.5s31.166 -20.5 56.499 -20.5c24 0 47.167 7 69.5 21s40.166 31.667 53.499 53v382h112v-528h-97l-7 68c-18.667 -26 -43 -46 -73 -60s-61 -21 -93 -21c-50.667 0 -88.667 13.667 -114 41s-38 66.333 -38 117v383h112v-369
zM127.002 672.001l137 127h72l137 -127l-45 -50l-127 92l-128 -92z" />
    <glyph glyph-name="udieresis" unicode="&#xfc;" 
d="M201 159c0 -30.667 6.16895 -52.833 18.502 -66.5s31.166 -20.5 56.499 -20.5c24 0 47.167 7 69.5 21s40.166 31.667 53.499 53v382h112v-528h-97l-7 68c-18.667 -26 -43 -46 -73 -60s-61 -21 -93 -21c-50.667 0 -88.667 13.667 -114 41s-38 66.333 -38 117v383h112v-369
zM145.002 662.001c-12.667 12 -19 27 -19 45c0 18.667 6.33301 34 19 46s28.334 18 47.001 18c18 0 33.167 -6 45.5 -18s18.5 -27.333 18.5 -46c0 -18 -6.16699 -33 -18.5 -45s-27.5 -18 -45.5 -18c-18.667 0 -34.334 6 -47.001 18zM362.002 662.001
c-12.667 12 -19 27 -19 45s6.33301 33.167 19 45.5s28 18.5 46 18.5c18.667 0 34.167 -6 46.5 -18s18.5 -27.333 18.5 -46c0 -18 -6.16699 -33 -18.5 -45s-27.833 -18 -46.5 -18c-18 0 -33.333 6 -46 18z" />
    <glyph glyph-name="yacute" unicode="&#xfd;" 
d="M369 -2c-21.333 -64 -52.167 -114.167 -92.5 -150.5s-95.833 -57.5 -166.5 -63.5l-14 84c34.667 5.33301 62.667 13.5 84 24.5s38.333 24.833 51 41.5s24 38.667 34 66h-38l-178 528h119l133 -450l135 450h115zM427.999 722l-219 -89l-33 59l205 119z" />
    <glyph glyph-name="thorn" unicode="&#xfe;" 
d="M201 467c18 24 39.666 42.5 64.999 55.5s52.333 19.5 81 19.5c128 0 192 -92.333 192 -277c0 -83.333 -17.667 -150.5 -53 -201.5s-85.666 -76.5 -150.999 -76.5c-55.333 0 -100 19.333 -134 58v-248l-112 -13v956l112 13v-286zM251.999 435
c-19.333 -14 -36.335 -32.332 -51.002 -54.999v-247c26 -39.333 60.667 -59 104 -59c38.667 0 67.667 15.333 87 46s29 78.667 29 144c0 67.333 -8.66699 116.166 -26 146.499s-43.666 45.5 -78.999 45.5c-23.333 0 -44.666 -7 -63.999 -21z" />
    <glyph glyph-name="ydieresis" unicode="&#xff;" 
d="M369 -2c-21.333 -64 -52.167 -114.167 -92.5 -150.5s-95.833 -57.5 -166.5 -63.5l-14 84c34.667 5.33301 62.667 13.5 84 24.5s38.333 24.833 51 41.5s24 38.667 34 66h-38l-178 528h119l133 -450l135 450h115zM144.999 662c-12.667 12 -19 27 -19 45
c0 18.667 6.33301 34 19 46s28.334 18 47.001 18c18 0 33.167 -6 45.5 -18s18.5 -27.333 18.5 -46c0 -18 -6.16699 -33 -18.5 -45s-27.5 -18 -45.5 -18c-18.667 0 -34.334 6 -47.001 18zM361.999 662c-12.667 12 -19 27 -19 45s6.33301 33.167 19 45.5s28 18.5 46 18.5
c18.667 0 34.167 -6 46.5 -18s18.5 -27.333 18.5 -46c0 -18 -6.16699 -33 -18.5 -45s-27.833 -18 -46.5 -18c-18 0 -33.333 6 -46 18z" />
    <glyph glyph-name="Amacron" unicode="&#x100;" 
d="M175 166l-48 -166h-119l220 690h144l220 -690h-123l-48 166h-246zM397 256l-99 344l-99 -344h198zM159 790v82h282v-82h-282z" />
    <glyph glyph-name="amacron" unicode="&#x101;" 
d="M502 84.5c6 -9.66699 16.332 -16.8301 30.999 -21.4971l-26 -76c-55.333 6.66699 -91.666 31 -108.999 73c-19.333 -24 -43.5 -42.167 -72.5 -54.5s-60.833 -18.5 -95.5 -18.5c-53.333 0 -95.666 15 -126.999 45s-47 69.667 -47 119c0 55.333 21.833 98 65.5 128
s105.5 45 185.5 45h75v34c0 33.333 -10 57.666 -30 72.999s-49 23 -87 23c-18.667 0 -40.334 -2.33301 -65.001 -7s-49.667 -11.334 -75 -20.001l-28 79c63.333 24 125 36 185 36c70 0 122.667 -15.333 158 -46s53 -74.334 53 -131.001v-236c0 -20 3 -34.833 9 -44.5z
M330.499 87.0039c21.667 12 38.833 28.667 51.5 50v117h-62c-50.667 0 -87.667 -8.5 -111 -25.5s-35 -41.5 -35 -73.5c0 -28 7.5 -49.333 22.5 -64s37.167 -22 66.5 -22c23.333 0 45.833 6 67.5 18zM149.998 669.004v81h283v-81h-283z" />
    <glyph glyph-name="Abreve" unicode="&#x102;" 
d="M175 166l-48 -166h-119l220 690h144l220 -690h-123l-48 166h-246zM397 256l-99 344l-99 -344h198zM190 792.5c-28 24.333 -43.999 56.166 -47.999 95.499l68 14c14.667 -42.667 44 -64 88 -64c23.333 0 42.5 5.5 57.5 16.5s25.833 26.833 32.5 47.5l69 -14
c-4 -39.333 -20.333 -71.166 -49 -95.499s-65.334 -36.5 -110.001 -36.5c-44 0 -80 12.167 -108 36.5z" />
    <glyph glyph-name="abreve" unicode="&#x103;" 
d="M502 84.5c6 -9.66699 16.332 -16.8301 30.999 -21.4971l-26 -76c-55.333 6.66699 -91.666 31 -108.999 73c-19.333 -24 -43.5 -42.167 -72.5 -54.5s-60.833 -18.5 -95.5 -18.5c-53.333 0 -95.666 15 -126.999 45s-47 69.667 -47 119c0 55.333 21.833 98 65.5 128
s105.5 45 185.5 45h75v34c0 33.333 -10 57.666 -30 72.999s-49 23 -87 23c-18.667 0 -40.334 -2.33301 -65.001 -7s-49.667 -11.334 -75 -20.001l-28 79c63.333 24 125 36 185 36c70 0 122.667 -15.333 158 -46s53 -74.334 53 -131.001v-236c0 -20 3 -34.833 9 -44.5z
M330.499 87.0039c21.667 12 38.833 28.667 51.5 50v117h-62c-50.667 0 -87.667 -8.5 -111 -25.5s-35 -41.5 -35 -73.5c0 -28 7.5 -49.333 22.5 -64s37.167 -22 66.5 -22c23.333 0 45.833 6 67.5 18zM181.498 668.004c-27 30 -42.835 65.333 -47.502 106l69 13
c6.66699 -26 17.334 -46.333 32.001 -61s33.334 -22 56.001 -22s41.5 7.33301 56.5 22s26.167 35 33.5 61l68 -13c-2.66699 -25.333 -10.5 -49.5 -23.5 -72.5s-31 -41.833 -54 -56.5s-49.833 -22 -80.5 -22c-46 0 -82.5 15 -109.5 45z" />
    <glyph glyph-name="Aogonek" unicode="&#x104;" 
d="M441.5 -54.5c-17 -17.667 -25.501 -37.166 -25.501 -58.499c0 -32 18.667 -48 56 -48c18.667 0 38.334 2.33301 59.001 7l-10 -77c-22 -4.66699 -42.667 -7 -62 -7c-39.333 0 -71.333 9.83301 -96 29.5s-37 45.5 -37 77.5c0 34 11.5 63 34.5 87s57.167 45 102.5 63
l-42 147h-246l-48 -166h-119l220 690h144l220 -690h-56c-46 -18.667 -77.5 -36.834 -94.5 -54.501zM396.999 256.001l-99 344l-99 -344h198z" />
    <glyph glyph-name="aogonek" unicode="&#x105;" 
d="M507 -13c-46 -18.667 -77.501 -36.8291 -94.501 -54.4961s-25.5 -37.167 -25.5 -58.5c0 -32 18.667 -48 56 -48c18.667 0 38.334 2.33301 59.001 7l-10 -77c-22 -4.66699 -42.667 -7 -62 -7c-39.333 0 -71.333 9.83301 -96 29.5s-37 45.5 -37 77.5
c0 34.667 11.833 64.167 35.5 88.5s59.5 45.5 107.5 63.5c-18 12 -32 29.333 -42 52c-19.333 -24 -43.5 -42.167 -72.5 -54.5s-60.833 -18.5 -95.5 -18.5c-53.333 0 -95.666 15 -126.999 45s-47 69.667 -47 119c0 55.333 21.833 98 65.5 128s105.5 45 185.5 45h75v34
c0 33.333 -10 57.666 -30 72.999s-49 23 -87 23c-18.667 0 -40.334 -2.33301 -65.001 -7s-49.667 -11.334 -75 -20.001l-28 79c63.333 24 125 36 185 36c70 0 122.667 -15.333 158 -46s53 -74.334 53 -131.001v-236c0 -20 3 -34.833 9 -44.5s16.333 -16.834 31 -21.501z
M381.999 254.005h-62.001c-50.667 0 -87.667 -8.5 -111 -25.5s-35 -41.5 -35 -73.5c0 -28 7.5 -49.333 22.5 -64s37.167 -22 66.5 -22c23.333 0 45.833 6 67.5 18s38.834 28.667 51.501 50v117z" />
    <glyph glyph-name="Cacute" unicode="&#x106;" 
d="M474 687c32 -11.333 62.666 -29 91.999 -53l-60 -72c-42 34 -89.667 51 -143 51c-56 0 -101.667 -21.5 -137 -64.5s-53 -110.5 -53 -202.5c0 -90.667 17.333 -157.5 52 -200.5s81 -64.5 139 -64.5c33.333 0 61.833 5.16699 85.5 15.5s47.167 24.833 70.5 43.5l56 -71
c-56 -54.667 -128 -82 -216 -82c-59.333 0 -112.333 13.833 -159 41.5s-83.167 68.5 -109.5 122.5s-39.5 119 -39.5 195c0 74.667 13.5 139 40.5 193s63.833 95 110.5 123s98.334 42 155.001 42c45.333 0 84 -5.66699 116 -17zM490.999 834l-223 -80l-28 58l205 112z" />
    <glyph glyph-name="cacute" unicode="&#x107;" 
d="M474 124l51.001 -71.999c-23.333 -20 -51.333 -35.833 -84 -47.5s-66.334 -17.5 -101.001 -17.5c-80.667 0 -143.667 24.833 -189 74.5s-68 116.167 -68 199.5c0 54 10.333 102.167 31 144.5s50.5 75.666 89.5 99.999s85.167 36.5 138.5 36.5c70 0 131 -21.333 183 -64
l-52 -70c-42.667 29.333 -85.667 44 -129 44c-44 0 -78.667 -15.833 -104 -47.5s-38 -79.5 -38 -143.5c0 -62.667 12.667 -108.667 38 -138s60 -44 104 -44c42 0 85.333 15 130 45zM472.001 712.001l-219 -89l-33 59l205 119z" />
    <glyph glyph-name="Ccircumflex" unicode="&#x108;" 
d="M474 687c32 -11.333 62.666 -29 91.999 -53l-60 -72c-42 34 -89.667 51 -143 51c-56 0 -101.667 -21.5 -137 -64.5s-53 -110.5 -53 -202.5c0 -90.667 17.333 -157.5 52 -200.5s81 -64.5 139 -64.5c33.333 0 61.833 5.16699 85.5 15.5s47.167 24.833 70.5 43.5l56 -71
c-56 -54.667 -128 -82 -216 -82c-59.333 0 -112.333 13.833 -159 41.5s-83.167 68.5 -109.5 122.5s-39.5 119 -39.5 195c0 74.667 13.5 139 40.5 193s63.833 95 110.5 123s98.334 42 155.001 42c45.333 0 84 -5.66699 116 -17zM536.999 807l-44 -51l-129 82l-128 -82l-45 51
l137 116h72z" />
    <glyph glyph-name="ccircumflex" unicode="&#x109;" 
d="M474 124l51.001 -71.999c-23.333 -20 -51.333 -35.833 -84 -47.5s-66.334 -17.5 -101.001 -17.5c-80.667 0 -143.667 24.833 -189 74.5s-68 116.167 -68 199.5c0 54 10.333 102.167 31 144.5s50.5 75.666 89.5 99.999s85.167 36.5 138.5 36.5c70 0 131 -21.333 183 -64
l-52 -70c-42.667 29.333 -85.667 44 -129 44c-44 0 -78.667 -15.833 -104 -47.5s-38 -79.5 -38 -143.5c0 -62.667 12.667 -108.667 38 -138s60 -44 104 -44c42 0 85.333 15 130 45zM171.001 662.001l137 127h72l137 -127l-45 -50l-127 92l-128 -92z" />
    <glyph glyph-name="Cdotaccent" unicode="&#x10a;" 
d="M474 687c32 -11.333 62.666 -29 91.999 -53l-60 -72c-42 34 -89.667 51 -143 51c-56 0 -101.667 -21.5 -137 -64.5s-53 -110.5 -53 -202.5c0 -90.667 17.333 -157.5 52 -200.5s81 -64.5 139 -64.5c33.333 0 61.833 5.16699 85.5 15.5s47.167 24.833 70.5 43.5l56 -71
c-56 -54.667 -128 -82 -216 -82c-59.333 0 -112.333 13.833 -159 41.5s-83.167 68.5 -109.5 122.5s-39.5 119 -39.5 195c0 74.667 13.5 139 40.5 193s63.833 95 110.5 123s98.334 42 155.001 42c45.333 0 84 -5.66699 116 -17zM415.499 888
c13.667 -13.333 20.5 -30 20.5 -50s-6.83301 -36.833 -20.5 -50.5s-31.167 -20.5 -52.5 -20.5s-38.833 6.83301 -52.5 20.5s-20.5 30.5 -20.5 50.5s6.66699 36.667 20 50s31 20 53 20c21.333 0 38.833 -6.66699 52.5 -20z" />
    <glyph glyph-name="cdotaccent" unicode="&#x10b;" 
d="M474 124l51.001 -71.999c-23.333 -20 -51.333 -35.833 -84 -47.5s-66.334 -17.5 -101.001 -17.5c-80.667 0 -143.667 24.833 -189 74.5s-68 116.167 -68 199.5c0 54 10.333 102.167 31 144.5s50.5 75.666 89.5 99.999s85.167 36.5 138.5 36.5c70 0 131 -21.333 183 -64
l-52 -70c-42.667 29.333 -85.667 44 -129 44c-44 0 -78.667 -15.833 -104 -47.5s-38 -79.5 -38 -143.5c0 -62.667 12.667 -108.667 38 -138s60 -44 104 -44c42 0 85.333 15 130 45zM396.501 756.501c13.667 -13.667 20.5 -30.5 20.5 -50.5s-6.83301 -36.667 -20.5 -50
s-31.5 -20 -53.5 -20c-21.333 0 -38.833 6.66699 -52.5 20s-20.5 30 -20.5 50s6.83301 36.833 20.5 50.5s31.167 20.5 52.5 20.5c22 0 39.833 -6.83301 53.5 -20.5z" />
    <glyph glyph-name="Ccaron" unicode="&#x10c;" 
d="M474 687c32 -11.333 62.666 -29 91.999 -53l-60 -72c-42 34 -89.667 51 -143 51c-56 0 -101.667 -21.5 -137 -64.5s-53 -110.5 -53 -202.5c0 -90.667 17.333 -157.5 52 -200.5s81 -64.5 139 -64.5c33.333 0 61.833 5.16699 85.5 15.5s47.167 24.833 70.5 43.5l56 -71
c-56 -54.667 -128 -82 -216 -82c-59.333 0 -112.333 13.833 -159 41.5s-83.167 68.5 -109.5 122.5s-39.5 119 -39.5 195c0 74.667 13.5 139 40.5 193s63.833 95 110.5 123s98.334 42 155.001 42c45.333 0 84 -5.66699 116 -17zM536.999 869l-137 -116h-72l-137 116l45 51
l128 -82l129 82z" />
    <glyph glyph-name="ccaron" unicode="&#x10d;" 
d="M474 124l51.001 -71.999c-23.333 -20 -51.333 -35.833 -84 -47.5s-66.334 -17.5 -101.001 -17.5c-80.667 0 -143.667 24.833 -189 74.5s-68 116.167 -68 199.5c0 54 10.333 102.167 31 144.5s50.5 75.666 89.5 99.999s85.167 36.5 138.5 36.5c70 0 131 -21.333 183 -64
l-52 -70c-42.667 29.333 -85.667 44 -129 44c-44 0 -78.667 -15.833 -104 -47.5s-38 -79.5 -38 -143.5c0 -62.667 12.667 -108.667 38 -138s60 -44 104 -44c42 0 85.333 15 130 45zM517.001 739.001l-137 -127h-72l-137 127l46 50l128 -92l127 92z" />
    <glyph glyph-name="Dcaron" unicode="&#x10e;" 
d="M470 76.5c-60.667 -51 -137.333 -76.5 -230 -76.5h-169v690h158c100 0 180.333 -24.167 241 -72.5s91 -137.833 91 -268.5s-30.333 -221.5 -91 -272.5zM387.501 549c-34.333 34.667 -79.833 51.999 -136.5 51.999h-64v-513h65c124.667 0 187 87 187 261
c0 98.667 -17.167 165.334 -51.5 200.001zM458.001 868.999l-137 -116h-72l-137 116l45 51l128 -82l129 82z" />
    <glyph glyph-name="dcaron" unicode="&#x10f;" 
d="M478 740l-0.000976562 -740.001h-99l-8 65c-17.333 -25.333 -38.666 -44.666 -63.999 -57.999s-53.333 -20 -84 -20c-66 0 -115.667 24.667 -149 74s-50 117 -50 203c0 54 8.5 102 25.5 144s41.167 74.833 72.5 98.5s68.333 35.5 111 35.5c54 0 98.333 -19.333 133 -58
v269zM173.499 408.499c-20.333 -31.667 -30.5 -79.833 -30.5 -144.5c0 -128 36.667 -192 110 -192c44 0 81.667 25.333 113 76v249c-27.333 39.333 -62 59 -104 59c-38.667 0 -68.167 -15.833 -88.5 -47.5zM643.999 741l-63 -198l-67 10l30 201z" />
    <glyph glyph-name="Dcroat" unicode="&#x110;" 
d="M480.5 617c61 -48.667 91.501 -138 91.501 -268c0 -130.667 -30.333 -221.5 -91 -272.5s-137.334 -76.5 -230.001 -76.5h-169v314h-66v78h66v298h158c99.333 0 179.5 -24.333 240.5 -73zM450.001 349c0 98.667 -17.167 165.333 -51.5 200s-79.833 52 -136.5 52h-64v-209
h144v-78h-144v-226h65c124.667 0 187 87 187 261z" />
    <glyph glyph-name="dcroat" unicode="&#x111;" 
d="M585 596h-79.002v-596h-99l-8 65c-37.333 -52 -87 -78 -149 -78c-65.333 0 -114.666 24.667 -147.999 74s-50 117 -50 203c0 54 8.33301 102 25 144s40.667 74.833 72 98.5s68.333 35.5 111 35.5c54.667 0 99.334 -19.333 134.001 -58v112h-153v77h153v80l112 -13v-67h79
v-77zM393.998 397c-28.667 39.333 -63.332 59.001 -103.999 59.001c-38.667 0 -68.334 -15.833 -89.001 -47.5s-31 -79.834 -31 -144.501c0 -128 36.667 -192 110 -192c43.333 0 81.333 25.333 114 76v249z" />
    <glyph glyph-name="Emacron" unicode="&#x112;" 
d="M229 394h250v-87h-250v-219h305v-88h-421v690h415l-13 -88h-286v-208zM179 790v82h282v-82h-282z" />
    <glyph glyph-name="emacron" unicode="&#x113;" 
d="M226.5 112.5c26.333 -25.667 59.502 -38.5 99.502 -38.5c24.667 0 48.167 3.83301 70.5 11.5s45.166 19.167 68.499 34.5l48 -68c-24.667 -20.667 -53.667 -36.667 -87 -48s-68.333 -17 -105 -17c-80.667 0 -143.334 25.167 -188.001 75.5s-67 117.5 -67 201.5
c0 52.667 9.66699 100.167 29 142.5s47.333 75.5 84 99.5s79.334 36 128.001 36c70 0 125.5 -23.5 166.5 -70.5s61.5 -111.5 61.5 -193.5c0 -20 -1 -36.667 -3 -50h-350c3.33301 -51.333 18.166 -89.833 44.499 -115.5zM220.002 420c-22.667 -26 -35.667 -64.667 -39 -116
h245c-1.33301 50 -12 88.333 -32 115s-48.667 40 -86 40c-36 0 -65.333 -13 -88 -39zM167.002 669v81h283v-81h-283z" />
    <glyph glyph-name="Ebreve" unicode="&#x114;" 
d="M229 394h250v-87h-250v-219h305v-88h-421v690h415l-13 -88h-286v-208zM211 792.5c-28 24.333 -43.999 56.166 -47.999 95.499l68 14c14.667 -42.667 44 -64 88 -64c23.333 0 42.5 5.5 57.5 16.5s25.833 26.833 32.5 47.5l69 -14c-4 -39.333 -20.333 -71.166 -49 -95.499
s-65.334 -36.5 -110.001 -36.5c-44 0 -80 12.167 -108 36.5z" />
    <glyph glyph-name="ebreve" unicode="&#x115;" 
d="M226.5 112.5c26.333 -25.667 59.502 -38.5 99.502 -38.5c24.667 0 48.167 3.83301 70.5 11.5s45.166 19.167 68.499 34.5l48 -68c-24.667 -20.667 -53.667 -36.667 -87 -48s-68.333 -17 -105 -17c-80.667 0 -143.334 25.167 -188.001 75.5s-67 117.5 -67 201.5
c0 52.667 9.66699 100.167 29 142.5s47.333 75.5 84 99.5s79.334 36 128.001 36c70 0 125.5 -23.5 166.5 -70.5s61.5 -111.5 61.5 -193.5c0 -20 -1 -36.667 -3 -50h-350c3.33301 -51.333 18.166 -89.833 44.499 -115.5zM220.002 420c-22.667 -26 -35.667 -64.667 -39 -116
h245c-1.33301 50 -12 88.333 -32 115s-48.667 40 -86 40c-36 0 -65.333 -13 -88 -39zM198.502 668c-27 30 -42.835 65.333 -47.502 106l69 13c6.66699 -26 17.334 -46.333 32.001 -61s33.334 -22 56.001 -22s41.5 7.33301 56.5 22s26.167 35 33.5 61l68 -13
c-2.66699 -25.333 -10.5 -49.5 -23.5 -72.5s-31 -41.833 -54 -56.5s-49.833 -22 -80.5 -22c-46 0 -82.5 15 -109.5 45z" />
    <glyph glyph-name="Edotaccent" unicode="&#x116;" 
d="M229 394h250v-87h-250v-219h305v-88h-421v690h415l-13 -88h-286v-208zM372.5 888c13.667 -13.333 20.5 -30 20.5 -50s-6.83301 -36.833 -20.5 -50.5s-31.167 -20.5 -52.5 -20.5s-38.833 6.83301 -52.5 20.5s-20.5 30.5 -20.5 50.5s6.66699 36.667 20 50s31 20 53 20
c21.333 0 38.833 -6.66699 52.5 -20z" />
    <glyph glyph-name="edotaccent" unicode="&#x117;" 
d="M226.5 112.5c26.333 -25.667 59.502 -38.5 99.502 -38.5c24.667 0 48.167 3.83301 70.5 11.5s45.166 19.167 68.499 34.5l48 -68c-24.667 -20.667 -53.667 -36.667 -87 -48s-68.333 -17 -105 -17c-80.667 0 -143.334 25.167 -188.001 75.5s-67 117.5 -67 201.5
c0 52.667 9.66699 100.167 29 142.5s47.333 75.5 84 99.5s79.334 36 128.001 36c70 0 125.5 -23.5 166.5 -70.5s61.5 -111.5 61.5 -193.5c0 -20 -1 -36.667 -3 -50h-350c3.33301 -51.333 18.166 -89.833 44.499 -115.5zM220.002 420c-22.667 -26 -35.667 -64.667 -39 -116
h245c-1.33301 50 -12 88.333 -32 115s-48.667 40 -86 40c-36 0 -65.333 -13 -88 -39zM361.502 766.5c13.667 -13.667 20.5 -30.5 20.5 -50.5s-6.83301 -36.667 -20.5 -50s-31.5 -20 -53.5 -20c-21.333 0 -38.833 6.66699 -52.5 20s-20.5 30 -20.5 50
s6.83301 36.833 20.5 50.5s31.167 20.5 52.5 20.5c22 0 39.833 -6.83301 53.5 -20.5z" />
    <glyph glyph-name="Eogonek" unicode="&#x118;" 
d="M534 88l-0.000976562 -87.999h-67c-46 -18.667 -77.5 -36.834 -94.5 -54.501s-25.5 -37.167 -25.5 -58.5c0 -32 18.667 -48 56 -48c18.667 0 38.334 2.33301 59.001 7l-10 -77c-22 -4.66699 -42.667 -7 -62 -7c-39.333 0 -71.333 9.83301 -96 29.5s-37 45.5 -37 77.5
c0 28.667 7.83301 53.5 23.5 74.5s39.5 39.833 71.5 56.5h-239v690h415l-13 -88h-286v-208h250v-87h-250v-219h305z" />
    <glyph glyph-name="eogonek" unicode="&#x119;" 
d="M532 228l-350.001 0.000976562c3.33301 -51.333 18.166 -89.833 44.499 -115.5s59.5 -38.5 99.5 -38.5c24.667 0 48.167 3.83301 70.5 11.5s45.166 19.167 68.499 34.5l48 -68c-29.333 -23.333 -63.666 -41 -102.999 -53c-45.333 -18.667 -76.333 -36.834 -93 -54.501
s-25 -36.834 -25 -57.501c0 -32 18.667 -48 56 -48c18.667 0 38.334 2.33301 59.001 7l-10 -77c-22 -4.66699 -42.667 -7 -62 -7c-39.333 0 -71.333 9.83301 -96 29.5s-37 45.5 -37 77.5c0 50 29 89.667 87 119c-70.667 6.66699 -125.5 34.834 -164.5 84.501
s-58.5 113.5 -58.5 191.5c0 52.667 9.66699 100.167 29 142.5s47.333 75.5 84 99.5s79.334 36 128.001 36c70 0 125.5 -23.5 166.5 -70.5s61.5 -111.5 61.5 -193.5c0 -20 -1 -36.667 -3 -50zM425.999 304.001c-1.33301 50 -12 88.333 -32 115s-48.667 40 -86 40
c-36 0 -65.333 -13 -88 -39s-35.667 -64.667 -39 -116h245z" />
    <glyph glyph-name="Ecaron" unicode="&#x11a;" 
d="M229 394h250v-87h-250v-219h305v-88h-421v690h415l-13 -88h-286v-208zM494 869l-137 -116h-72l-137 116l45 51l128 -82l129 82z" />
    <glyph glyph-name="ecaron" unicode="&#x11b;" 
d="M226.5 112.5c26.333 -25.667 59.502 -38.5 99.502 -38.5c24.667 0 48.167 3.83301 70.5 11.5s45.166 19.167 68.499 34.5l48 -68c-24.667 -20.667 -53.667 -36.667 -87 -48s-68.333 -17 -105 -17c-80.667 0 -143.334 25.167 -188.001 75.5s-67 117.5 -67 201.5
c0 52.667 9.66699 100.167 29 142.5s47.333 75.5 84 99.5s79.334 36 128.001 36c70 0 125.5 -23.5 166.5 -70.5s61.5 -111.5 61.5 -193.5c0 -20 -1 -36.667 -3 -50h-350c3.33301 -51.333 18.166 -89.833 44.499 -115.5zM220.002 420c-22.667 -26 -35.667 -64.667 -39 -116
h245c-1.33301 50 -12 88.333 -32 115s-48.667 40 -86 40c-36 0 -65.333 -13 -88 -39zM482.002 749l-137 -127h-72l-137 127l46 50l128 -92l127 92z" />
    <glyph glyph-name="Gcircumflex" unicode="&#x11c;" 
d="M110.5 78.5c-49 61 -73.502 150.167 -73.502 267.5c0 76 13.5 141 40.5 195s63.333 94.667 109 122s96.167 41 151.5 41c44.667 0 82.834 -6.5 114.501 -19.5s61.834 -33.167 90.501 -60.5l-65 -67c-21.333 19.333 -42.833 33.5 -64.5 42.5s-45.834 13.5 -72.501 13.5
c-53.333 0 -97.166 -21.5 -131.499 -64.5s-51.5 -110.5 -51.5 -202.5c0 -94.667 13.5 -163.167 40.5 -205.5s68.5 -63.5 124.5 -63.5c42.667 0 80.667 9.66699 114 29v190h-117l-12 89h242v-335c-35.333 -20 -71.5 -35.5 -108.5 -46.5s-78.167 -16.5 -123.5 -16.5
c-89.333 0 -158.5 30.5 -207.5 91.5zM502.998 807l-44 -51l-129 82l-128 -82l-45 51l137 116h72z" />
    <glyph glyph-name="gcircumflex" unicode="&#x11d;" 
d="M563 502c-19.333 -6.66699 -41.1699 -11.166 -65.5029 -13.499s-53.5 -3.5 -87.5 -3.5c32 -14.667 56 -33 72 -55s24 -48.667 24 -80c0 -34.667 -8.5 -65.334 -25.5 -92.001s-41.167 -47.667 -72.5 -63s-68.333 -23 -111 -23c-30 0 -54 3 -72 9
c-7.33301 -5.33301 -13 -11.833 -17 -19.5s-6 -15.834 -6 -24.501c0 -26.667 21.667 -40 65 -40h92c37.333 0 70.666 -6.33301 99.999 -19s52.166 -30.167 68.499 -52.5s24.5 -47.5 24.5 -75.5c0 -52.667 -22.667 -93.5 -68 -122.5s-110.666 -43.5 -195.999 -43.5
c-59.333 0 -106.166 6.16699 -140.499 18.5s-58.666 30.333 -72.999 54s-21.5 54.167 -21.5 91.5h100c0 -20 3.83301 -35.833 11.5 -47.5s21.167 -20.334 40.5 -26.001s47.333 -8.5 84 -8.5c53.333 0 91.666 6.5 114.999 19.5s35 32.167 35 57.5
c0 21.333 -9.16699 37.833 -27.5 49.5s-43.166 17.5 -74.499 17.5h-91c-47.333 0 -83.166 9.66699 -107.499 29s-36.5 43.666 -36.5 72.999c0 18 5 35.333 15 52s24.333 31 43 43c-31.333 16.667 -54.166 36.834 -68.499 60.501s-21.5 52.834 -21.5 87.501
c0 36.667 9.33301 69.167 28 97.5s44.667 50.333 78 66s71.333 23.5 114 23.5c57.333 -0.666992 102.833 3.33301 136.5 12s69.5 22.334 107.5 41.001zM210.996 434.501c-18 -19.667 -26.998 -46.167 -26.998 -79.5c0 -34 9.16699 -60.833 27.5 -80.5
s45.166 -29.5 80.499 -29.5c33.333 0 58.666 9.66699 75.999 29s26 47 26 83c0 71.333 -34.333 107 -103 107c-35.333 0 -62 -9.83301 -80 -29.5zM122.998 672.001l137 127h72l137 -127l-45 -50l-127 92l-128 -92z" />
    <glyph glyph-name="Gbreve" unicode="&#x11e;" 
d="M110.5 78.5c-49 61 -73.502 150.167 -73.502 267.5c0 76 13.5 141 40.5 195s63.333 94.667 109 122s96.167 41 151.5 41c44.667 0 82.834 -6.5 114.501 -19.5s61.834 -33.167 90.501 -60.5l-65 -67c-21.333 19.333 -42.833 33.5 -64.5 42.5s-45.834 13.5 -72.501 13.5
c-53.333 0 -97.166 -21.5 -131.499 -64.5s-51.5 -110.5 -51.5 -202.5c0 -94.667 13.5 -163.167 40.5 -205.5s68.5 -63.5 124.5 -63.5c42.667 0 80.667 9.66699 114 29v190h-117l-12 89h242v-335c-35.333 -20 -71.5 -35.5 -108.5 -46.5s-78.167 -16.5 -123.5 -16.5
c-89.333 0 -158.5 30.5 -207.5 91.5zM219.998 792.5c-28 24.333 -43.999 56.166 -47.999 95.499l68 14c14.667 -42.667 44 -64 88 -64c23.333 0 42.5 5.5 57.5 16.5s25.833 26.833 32.5 47.5l69 -14c-4 -39.333 -20.333 -71.166 -49 -95.499s-65.334 -36.5 -110.001 -36.5
c-44 0 -80 12.167 -108 36.5z" />
    <glyph glyph-name="gbreve" unicode="&#x11f;" 
d="M563 502c-19.333 -6.66699 -41.1699 -11.166 -65.5029 -13.499s-53.5 -3.5 -87.5 -3.5c32 -14.667 56 -33 72 -55s24 -48.667 24 -80c0 -34.667 -8.5 -65.334 -25.5 -92.001s-41.167 -47.667 -72.5 -63s-68.333 -23 -111 -23c-30 0 -54 3 -72 9
c-7.33301 -5.33301 -13 -11.833 -17 -19.5s-6 -15.834 -6 -24.501c0 -26.667 21.667 -40 65 -40h92c37.333 0 70.666 -6.33301 99.999 -19s52.166 -30.167 68.499 -52.5s24.5 -47.5 24.5 -75.5c0 -52.667 -22.667 -93.5 -68 -122.5s-110.666 -43.5 -195.999 -43.5
c-59.333 0 -106.166 6.16699 -140.499 18.5s-58.666 30.333 -72.999 54s-21.5 54.167 -21.5 91.5h100c0 -20 3.83301 -35.833 11.5 -47.5s21.167 -20.334 40.5 -26.001s47.333 -8.5 84 -8.5c53.333 0 91.666 6.5 114.999 19.5s35 32.167 35 57.5
c0 21.333 -9.16699 37.833 -27.5 49.5s-43.166 17.5 -74.499 17.5h-91c-47.333 0 -83.166 9.66699 -107.499 29s-36.5 43.666 -36.5 72.999c0 18 5 35.333 15 52s24.333 31 43 43c-31.333 16.667 -54.166 36.834 -68.499 60.501s-21.5 52.834 -21.5 87.501
c0 36.667 9.33301 69.167 28 97.5s44.667 50.333 78 66s71.333 23.5 114 23.5c57.333 -0.666992 102.833 3.33301 136.5 12s69.5 22.334 107.5 41.001zM210.996 434.501c-18 -19.667 -26.998 -46.167 -26.998 -79.5c0 -34 9.16699 -60.833 27.5 -80.5
s45.166 -29.5 80.499 -29.5c33.333 0 58.666 9.66699 75.999 29s26 47 26 83c0 71.333 -34.333 107 -103 107c-35.333 0 -62 -9.83301 -80 -29.5zM185.498 668.001c-27 30 -42.835 65.333 -47.502 106l69 13c6.66699 -26 17.334 -46.333 32.001 -61s33.334 -22 56.001 -22
s41.5 7.33301 56.5 22s26.167 35 33.5 61l68 -13c-2.66699 -25.333 -10.5 -49.5 -23.5 -72.5s-31 -41.833 -54 -56.5s-49.833 -22 -80.5 -22c-46 0 -82.5 15 -109.5 45z" />
    <glyph glyph-name="Gdotaccent" unicode="&#x120;" 
d="M110.5 78.5c-49 61 -73.502 150.167 -73.502 267.5c0 76 13.5 141 40.5 195s63.333 94.667 109 122s96.167 41 151.5 41c44.667 0 82.834 -6.5 114.501 -19.5s61.834 -33.167 90.501 -60.5l-65 -67c-21.333 19.333 -42.833 33.5 -64.5 42.5s-45.834 13.5 -72.501 13.5
c-53.333 0 -97.166 -21.5 -131.499 -64.5s-51.5 -110.5 -51.5 -202.5c0 -94.667 13.5 -163.167 40.5 -205.5s68.5 -63.5 124.5 -63.5c42.667 0 80.667 9.66699 114 29v190h-117l-12 89h242v-335c-35.333 -20 -71.5 -35.5 -108.5 -46.5s-78.167 -16.5 -123.5 -16.5
c-89.333 0 -158.5 30.5 -207.5 91.5zM382.498 888c13.667 -13.333 20.5 -30 20.5 -50s-6.83301 -36.833 -20.5 -50.5s-31.167 -20.5 -52.5 -20.5s-38.833 6.83301 -52.5 20.5s-20.5 30.5 -20.5 50.5s6.66699 36.667 20 50s31 20 53 20c21.333 0 38.833 -6.66699 52.5 -20z
" />
    <glyph glyph-name="gdotaccent" unicode="&#x121;" 
d="M563 502c-19.333 -6.66699 -41.1699 -11.166 -65.5029 -13.499s-53.5 -3.5 -87.5 -3.5c32 -14.667 56 -33 72 -55s24 -48.667 24 -80c0 -34.667 -8.5 -65.334 -25.5 -92.001s-41.167 -47.667 -72.5 -63s-68.333 -23 -111 -23c-30 0 -54 3 -72 9
c-7.33301 -5.33301 -13 -11.833 -17 -19.5s-6 -15.834 -6 -24.501c0 -26.667 21.667 -40 65 -40h92c37.333 0 70.666 -6.33301 99.999 -19s52.166 -30.167 68.499 -52.5s24.5 -47.5 24.5 -75.5c0 -52.667 -22.667 -93.5 -68 -122.5s-110.666 -43.5 -195.999 -43.5
c-59.333 0 -106.166 6.16699 -140.499 18.5s-58.666 30.333 -72.999 54s-21.5 54.167 -21.5 91.5h100c0 -20 3.83301 -35.833 11.5 -47.5s21.167 -20.334 40.5 -26.001s47.333 -8.5 84 -8.5c53.333 0 91.666 6.5 114.999 19.5s35 32.167 35 57.5
c0 21.333 -9.16699 37.833 -27.5 49.5s-43.166 17.5 -74.499 17.5h-91c-47.333 0 -83.166 9.66699 -107.499 29s-36.5 43.666 -36.5 72.999c0 18 5 35.333 15 52s24.333 31 43 43c-31.333 16.667 -54.166 36.834 -68.499 60.501s-21.5 52.834 -21.5 87.501
c0 36.667 9.33301 69.167 28 97.5s44.667 50.333 78 66s71.333 23.5 114 23.5c57.333 -0.666992 102.833 3.33301 136.5 12s69.5 22.334 107.5 41.001zM210.996 434.501c-18 -19.667 -26.998 -46.167 -26.998 -79.5c0 -34 9.16699 -60.833 27.5 -80.5
s45.166 -29.5 80.499 -29.5c33.333 0 58.666 9.66699 75.999 29s26 47 26 83c0 71.333 -34.333 107 -103 107c-35.333 0 -62 -9.83301 -80 -29.5zM348.498 766.501c13.667 -13.667 20.5 -30.5 20.5 -50.5s-6.83301 -36.667 -20.5 -50s-31.5 -20 -53.5 -20
c-21.333 0 -38.833 6.66699 -52.5 20s-20.5 30 -20.5 50s6.83301 36.833 20.5 50.5s31.167 20.5 52.5 20.5c22 0 39.833 -6.83301 53.5 -20.5z" />
    <glyph glyph-name="Gcommaaccent" unicode="&#x122;" 
d="M110.5 78.5c-49 61 -73.502 150.167 -73.502 267.5c0 76 13.5 141 40.5 195s63.333 94.667 109 122s96.167 41 151.5 41c44.667 0 82.834 -6.5 114.501 -19.5s61.834 -33.167 90.501 -60.5l-65 -67c-21.333 19.333 -42.833 33.5 -64.5 42.5s-45.834 13.5 -72.501 13.5
c-53.333 0 -97.166 -21.5 -131.499 -64.5s-51.5 -110.5 -51.5 -202.5c0 -94.667 13.5 -163.167 40.5 -205.5s68.5 -63.5 124.5 -63.5c42.667 0 80.667 9.66699 114 29v190h-117l-12 89h242v-335c-35.333 -20 -71.5 -35.5 -108.5 -46.5s-78.167 -16.5 -123.5 -16.5
c-89.333 0 -158.5 30.5 -207.5 91.5zM376.498 -86.5c12.333 -11.667 18.5 -26.499 18.5 -44.499c0 -18.667 -6 -40.334 -18 -65.001l-50 -104h-62l29 117c-17.333 12.667 -26 30 -26 52c0 17.333 6 32 18 44s27 18 45 18s33.167 -5.83301 45.5 -17.5z" />
    <glyph glyph-name="gcommaaccent" unicode="&#x123;" 
d="M248.5 614.5c-12.333 11.667 -18.5 26.499 -18.5 44.499c0 18.667 6 40.334 18 65.001l50 104h62l-29 -117c17.333 -12.667 26 -30 26 -52c0 -17.333 -6 -32 -18 -44s-27 -18 -45 -18s-33.167 5.83301 -45.5 17.5zM563 501.999
c-19.333 -6.66699 -41.1699 -11.166 -65.5029 -13.499s-53.5 -3.5 -87.5 -3.5c32 -14.667 56 -33 72 -55s24 -48.667 24 -80c0 -34.667 -8.5 -65.334 -25.5 -92.001s-41.167 -47.667 -72.5 -63s-68.333 -23 -111 -23c-30 0 -54 3 -72 9
c-7.33301 -5.33301 -13 -11.833 -17 -19.5s-6 -15.834 -6 -24.501c0 -26.667 21.667 -40 65 -40h92c37.333 0 70.666 -6.33301 99.999 -19s52.166 -30.167 68.499 -52.5s24.5 -47.5 24.5 -75.5c0 -52.667 -22.667 -93.5 -68 -122.5s-110.666 -43.5 -195.999 -43.5
c-59.333 0 -106.166 6.16699 -140.499 18.5s-58.666 30.333 -72.999 54s-21.5 54.167 -21.5 91.5h100c0 -20 3.83301 -35.833 11.5 -47.5s21.167 -20.334 40.5 -26.001s47.333 -8.5 84 -8.5c53.333 0 91.666 6.5 114.999 19.5s35 32.167 35 57.5
c0 21.333 -9.16699 37.833 -27.5 49.5s-43.166 17.5 -74.499 17.5h-91c-47.333 0 -83.166 9.66699 -107.499 29s-36.5 43.666 -36.5 72.999c0 18 5 35.333 15 52s24.333 31 43 43c-31.333 16.667 -54.166 36.834 -68.499 60.501s-21.5 52.834 -21.5 87.501
c0 36.667 9.33301 69.167 28 97.5s44.667 50.333 78 66s71.333 23.5 114 23.5c57.333 -0.666992 102.833 3.33301 136.5 12s69.5 22.334 107.5 41.001zM210.996 434.5c-18 -19.667 -26.998 -46.167 -26.998 -79.5c0 -34 9.16699 -60.833 27.5 -80.5
s45.166 -29.5 80.499 -29.5c33.333 0 58.666 9.66699 75.999 29s26 47 26 83c0 71.333 -34.333 107 -103 107c-35.333 0 -62 -9.83301 -80 -29.5z" />
    <glyph glyph-name="Hcircumflex" unicode="&#x124;" 
d="M413 314h-226v-314h-116v690h116v-281h226v281h116v-690h-116v314zM473 807l-44 -51l-129 82l-128 -82l-45 51l137 116h72z" />
    <glyph glyph-name="hcircumflex" unicode="&#x125;" 
d="M201 463c21.333 26 46.167 45.667 74.5 59s58.166 20 89.499 20c48.667 0 85.334 -13.5 110.001 -40.5s37 -65.833 37 -116.5v-385h-112v368c0 31.333 -6 53.833 -18 67.5s-31.333 20.5 -58 20.5c-23.333 0 -45.833 -7.5 -67.5 -22.5s-40.167 -33.5 -55.5 -55.5v-378
h-112v739l112 12v-288zM473.001 857l-44 -51l-129 82l-128 -82l-45 51l137 116h72z" />
    <glyph glyph-name="Hbar" unicode="&#x126;" 
d="M598 506h-71v-506h-116v315h-222v-315h-116v506h-71v75h71v109h116v-109h222v109h116v-109h71v-75zM411 506h-222v-98h222v98z" />
    <glyph glyph-name="hbar" unicode="&#x127;" 
d="M475 501.5c24.667 -27 37.001 -65.833 37.001 -116.5v-385h-112v368c0 31.333 -6 53.833 -18 67.5s-31.333 20.5 -58 20.5c-23.333 0 -45.833 -7.5 -67.5 -22.5s-40.167 -33.5 -55.5 -55.5v-378h-112v596h-74v77h74v66l112 12v-78h158v-77h-158v-133
c21.333 26 46.166 45.667 74.499 59s58.166 20 89.499 20c48.667 0 85.334 -13.5 110.001 -40.5z" />
    <glyph glyph-name="Itilde" unicode="&#x128;" 
d="M508 602h-150v-513h150v-89h-416v89h150v513h-150v88h416v-88zM322 778c-10.667 4.66699 -22.3311 11.333 -34.998 20c-8.66699 6.66699 -16.5 11.667 -23.5 15s-14.167 5 -21.5 5c-10.667 0 -20 -3.66699 -28 -11s-16.333 -18.666 -25 -33.999l-63 31
c13.333 29.333 29.666 52.833 48.999 70.5s41.666 26.5 66.999 26.5c14 0 26 -2.33301 36 -7s21.667 -11.334 35 -20.001c9.33301 -6.66699 17.333 -11.667 24 -15s13.667 -5 21 -5c10 0 19 3.5 27 10.5s16.333 18.167 25 33.5l63 -32
c-13.333 -30.667 -29.833 -54.167 -49.5 -70.5s-41.5 -24.5 -65.5 -24.5c-13.333 0 -25.333 2.33301 -36 7z" />
    <glyph glyph-name="itilde" unicode="&#x129;" 
d="M377 82h144v-82h-413v82h157v364h-152v82h264v-446zM321.5 657c-10.333 4.66699 -21.8301 11.333 -34.4971 20c-10 7.33301 -18.167 12.5 -24.5 15.5s-13.166 4.5 -20.499 4.5c-11.333 0 -20.833 -3.66699 -28.5 -11s-15.834 -19 -24.501 -35l-63 31
c13.333 29.333 29.666 53 48.999 71s41.333 27 66 27c14 0 26.5 -2.5 37.5 -7.5s22.5 -11.833 34.5 -20.5c9.33301 -6.66699 17.166 -11.667 23.499 -15s13.166 -5 20.499 -5c10 0 19 3.5 27 10.5s16.667 18.167 26 33.5l63 -31
c-13.333 -30.667 -29.833 -54.167 -49.5 -70.5s-41.834 -24.5 -66.501 -24.5c-13.333 0 -25.166 2.33301 -35.499 7z" />
    <glyph glyph-name="Imacron" unicode="&#x12a;" 
d="M508 602h-150v-513h150v-89h-416v89h150v513h-150v88h416v-88zM159 790v82h282v-82h-282z" />
    <glyph glyph-name="imacron" unicode="&#x12b;" 
d="M377 82h144v-82h-413v82h157v364h-152v82h264v-446zM158 669v81h283v-81h-283z" />
    <glyph glyph-name="Ibreve" unicode="&#x12c;" 
d="M508 602h-150v-513h150v-89h-416v89h150v513h-150v88h416v-88zM190 792.5c-28 24.333 -43.999 56.166 -47.999 95.499l68 14c14.667 -42.667 44 -64 88 -64c23.333 0 42.5 5.5 57.5 16.5s25.833 26.833 32.5 47.5l69 -14c-4 -39.333 -20.333 -71.166 -49 -95.499
s-65.334 -36.5 -110.001 -36.5c-44 0 -80 12.167 -108 36.5z" />
    <glyph glyph-name="ibreve" unicode="&#x12d;" 
d="M377 82h144v-82h-413v82h157v364h-152v82h264v-446zM189.5 668c-27 30 -42.835 65.333 -47.502 106l69 13c6.66699 -26 17.334 -46.333 32.001 -61s33.334 -22 56.001 -22s41.5 7.33301 56.5 22s26.167 35 33.5 61l68 -13c-2.66699 -25.333 -10.5 -49.5 -23.5 -72.5
s-31 -41.833 -54 -56.5s-49.833 -22 -80.5 -22c-46 0 -82.5 15 -109.5 45z" />
    <glyph glyph-name="Iogonek" unicode="&#x12e;" 
d="M358 602l-0.000976562 -512.999h150v-89h-150c-46 -18.667 -77.5 -36.834 -94.5 -54.501s-25.5 -37.167 -25.5 -58.5c0 -32 18.667 -48 56 -48c18.667 0 38.334 2.33301 59.001 7l-10 -77c-22 -4.66699 -42.667 -7 -62 -7c-39.333 0 -71.333 9.83301 -96 29.5
s-37 45.5 -37 77.5c0 28.667 7.83301 53.5 23.5 74.5s39.5 39.833 71.5 56.5h-151v89h150v513h-150v88h416v-88h-150z" />
    <glyph glyph-name="iogonek" unicode="&#x12f;" 
d="M246.5 666c-13.667 13.333 -20.5 30 -20.5 50s6.83301 36.833 20.5 50.5s31.167 20.5 52.5 20.5c22 0 39.833 -6.83301 53.5 -20.5s20.5 -30.5 20.5 -50.5s-6.83301 -36.667 -20.5 -50s-31.5 -20 -53.5 -20c-21.333 0 -38.833 6.66699 -52.5 20zM521 82
l-0.000976562 -81.999h-144c-46 -18.667 -77.5 -36.834 -94.5 -54.501s-25.5 -37.167 -25.5 -58.5c0 -32 18.667 -48 56 -48c18.667 0 38.334 2.33301 59.001 7l-10 -77c-22 -4.66699 -42.667 -7 -62 -7c-39.333 0 -71.333 9.83301 -96 29.5s-37 45.5 -37 77.5
c0 28.667 7.83301 53.5 23.5 74.5s39.5 39.833 71.5 56.5h-154v82h157v364h-152v82h264v-446h144z" />
    <glyph glyph-name="Idotaccent" unicode="&#x130;" 
d="M508 602h-150v-513h150v-89h-416v89h150v513h-150v88h416v-88zM352.5 888c13.667 -13.333 20.5 -30 20.5 -50s-6.83301 -36.833 -20.5 -50.5s-31.167 -20.5 -52.5 -20.5s-38.833 6.83301 -52.5 20.5s-20.5 30.5 -20.5 50.5s6.66699 36.667 20 50s31 20 53 20
c21.333 0 38.833 -6.66699 52.5 -20z" />
    <glyph glyph-name="dotlessi" unicode="&#x131;" 
d="M377 82h144v-82h-413v82h157v364h-152v82h264v-446z" />
    <glyph glyph-name="IJ" unicode="&#x132;" 
d="M336 -27.5c34.667 21 58.5 48.333 71.5 82s19.5 76.167 19.5 127.5v425h-214v-524h69v-83h-272v83h90v524h-90v83h531v-509c0 -92.667 -25.333 -168 -76 -226s-138 -94.333 -262 -109l-14 83c63.333 8 112.333 22.5 147 43.5z" />
    <glyph glyph-name="ij" unicode="&#x133;" 
d="M237 766.5c14 -13.667 21 -30.5 21 -50.5s-7 -36.667 -21 -50s-32 -20 -54 -20c-21.333 0 -38.666 6.66699 -51.999 20s-20 30 -20 50s6.66699 36.833 20 50.5s30.666 20.5 51.999 20.5c22 0 40 -6.83301 54 -20.5zM504 766.5c14 -13.667 21 -30.5 21 -50.5
s-7 -36.667 -21 -50s-31.667 -20 -53 -20s-38.833 6.66699 -52.5 20s-20.5 30 -20.5 50s6.83301 36.833 20.5 50.5s31.167 20.5 52.5 20.5s39 -6.83301 53 -20.5zM517 80c0 -79.333 -23.167 -141.5 -69.5 -186.5s-113.833 -81.5 -202.5 -109.5l-35 85
c42 14.667 76.833 30 104.5 46s50 36.833 67 62.5s25.5 57.167 25.5 94.5v376h-170v-366h79v-82h-273v82h85v366h-80v80h469v-448z" />
    <glyph glyph-name="Jcircumflex" unicode="&#x134;" 
d="M508 237c0 -72.667 -20.832 -132.5 -62.499 -179.5s-104.834 -70.5 -189.501 -70.5c-72.667 0 -138 21.333 -196 64l47 73c26 -16.667 50.667 -28.5 74 -35.5s47 -10.5 71 -10.5c43.333 0 77.5 14 102.5 42s37.5 67.667 37.5 119v362h-207v89h323v-453zM524.001 807
l-44 -51l-129 82l-128 -82l-45 51l137 116h72z" />
    <glyph glyph-name="jcircumflex" unicode="&#x135;" 
d="M455 111c0 -95.333 -29 -168.332 -87 -218.999s-146 -86.667 -264 -108l-18 86c85.333 16 149.5 41.667 192.5 77s64.5 87.666 64.5 156.999v342h-208v82h320v-417zM196 672.001l137 127h72l137 -127l-45 -50l-127 92l-128 -92z" />
    <glyph glyph-name="Kcommaaccent" unicode="&#x136;" 
d="M88 0v690h116v-690h-116zM448 690h128l-241 -314l260 -376h-139l-247 369zM361.5 -86.5c12.333 -11.667 18.5 -26.499 18.5 -44.499c0 -18.667 -6 -40.334 -18 -65.001l-50 -104h-62l29 117c-17.333 12.667 -26 30 -26 52c0 17.333 6 32 18 44s27 18 45 18
s33.167 -5.83301 45.5 -17.5z" />
    <glyph glyph-name="kcommaaccent" unicode="&#x137;" 
d="M204 0h-112v740l112 13v-753zM341 292l235 -292h-137l-227 289l212 239h130zM350.5 -86.5c12.333 -11.667 18.5 -26.499 18.5 -44.499c0 -18.667 -6 -40.334 -18 -65.001l-50 -104h-62l29 117c-17.333 12.667 -26 30 -26 52c0 17.333 6 32 18 44s27 18 45 18
s33.167 -5.83301 45.5 -17.5z" />
    <glyph glyph-name="kgreenlandic" unicode="&#x138;" 
d="M201 0h-112v528h112v-528zM335 288l238 -288h-137l-227 280l211 248h130z" />
    <glyph glyph-name="Lacute" unicode="&#x139;" 
d="M120 690h115v-593h310l-13 -97h-412v690zM305 834l-223 -80l-28 58l205 112z" />
    <glyph glyph-name="lacute" unicode="&#x13a;" 
d="M321 144c0 -44.667 26.668 -67 80.001 -67c26.667 0 54.667 6 84 18l28 -78c-36.667 -20 -82 -30 -136 -30c-52.667 0 -93.834 14.833 -123.501 44.5s-44.5 70.5 -44.5 122.5v504h-159v82h271v-596zM390.001 934l-219 -89l-33 59l205 119z" />
    <glyph glyph-name="Lcommaaccent" unicode="&#x13b;" 
d="M120 690h115v-593h310l-13 -97h-412v690zM373.5 -86.5c12.333 -11.667 18.5 -26.499 18.5 -44.499c0 -18.667 -6 -40.334 -18 -65.001l-50 -104h-62l29 117c-17.333 12.667 -26 30 -26 52c0 17.333 6 32 18 44s27 18 45 18s33.167 -5.83301 45.5 -17.5z" />
    <glyph glyph-name="lcommaaccent" unicode="&#x13c;" 
d="M321 144c0 -44.667 26.668 -67 80.001 -67c26.667 0 54.667 6 84 18l28 -78c-36.667 -20 -82 -30 -136 -30c-52.667 0 -93.834 14.833 -123.501 44.5s-44.5 70.5 -44.5 122.5v504h-159v82h271v-596zM405.501 -86.5c12.333 -11.667 18.5 -26.499 18.5 -44.499
c0 -18.667 -6 -40.334 -18 -65.001l-50 -104h-62l29 117c-17.333 12.667 -26 30 -26 52c0 17.333 6 32 18 44s27 18 45 18s33.167 -5.83301 45.5 -17.5z" />
    <glyph glyph-name="Lcaron" unicode="&#x13d;" 
d="M120 690h115v-593h310l-13 -97h-412v690zM424 691l-63 -198l-67 10l30 201z" />
    <glyph glyph-name="lcaron" unicode="&#x13e;" 
d="M321 144c0 -44.667 26.668 -67 80.001 -67c26.667 0 54.667 6 84 18l28 -78c-36.667 -20 -82 -30 -136 -30c-52.667 0 -93.834 14.833 -123.501 44.5s-44.5 70.5 -44.5 122.5v504h-159v82h271v-596zM496.001 741l-63 -198l-67 10l30 201z" />
    <glyph glyph-name="Ldot" unicode="&#x13f;" 
d="M120 690h115v-593h310l-13 -97h-412v690zM522.5 430.5c13.667 -13.667 20.5 -30.5 20.5 -50.5s-6.83301 -36.667 -20.5 -50s-31.5 -20 -53.5 -20c-21.333 0 -38.833 6.66699 -52.5 20s-20.5 30 -20.5 50s6.83301 36.833 20.5 50.5s31.167 20.5 52.5 20.5
c22 0 39.833 -6.83301 53.5 -20.5z" />
    <glyph glyph-name="ldot" unicode="&#x140;" 
d="M321 144c0 -44.667 26.668 -67 80.001 -67c26.667 0 54.667 6 84 18l28 -78c-36.667 -20 -82 -30 -136 -30c-52.667 0 -93.834 14.833 -123.501 44.5s-44.5 70.5 -44.5 122.5v504h-159v82h271v-596zM616.501 432.5c13.667 -13.667 20.5 -30.5 20.5 -50.5
s-6.83301 -36.667 -20.5 -50s-31.5 -20 -53.5 -20c-21.333 0 -38.833 6.66699 -52.5 20s-20.5 30 -20.5 50s6.83301 36.833 20.5 50.5s31.167 20.5 52.5 20.5c22 0 39.833 -6.83301 53.5 -20.5z" />
    <glyph glyph-name="Lslash" unicode="&#x141;" 
d="M549 97l-13 -97h-412v253l-53 -33l-43 69l96 58v343h116v-271l149 93l44 -67l-193 -120v-228h309z" />
    <glyph glyph-name="lslash" unicode="&#x142;" 
d="M513 17c-36.667 -20 -81.999 -30 -135.999 -30c-52.667 0 -93.834 14.833 -123.501 44.5s-44.5 70.5 -44.5 122.5v134l-59 -36l-43 67l102 62v277h-159v82h271v-290l80 50l44 -68l-124 -76v-212c0 -44.667 26.667 -67 80 -67c26.667 0 54.667 6 84 18z" />
    <glyph glyph-name="Nacute" unicode="&#x143;" 
d="M158 587c10.667 -109.333 16 -200.667 16 -274v-313h-103v690h151l220 -587c-4.66699 49.333 -8.5 93.833 -11.5 133.5s-4.5 86.167 -4.5 139.5v314h103v-690h-151zM430 833.999l-223 -80l-28 58l205 112z" />
    <glyph glyph-name="nacute" unicode="&#x144;" 
d="M89 528l96.999 -0.000976562l8 -69c22 26.667 47.833 47.167 77.5 61.5s60.834 21.5 93.501 21.5c48.667 0 85.334 -13.667 110.001 -41s37 -66 37 -116v-385h-112v329c0 32.667 -1.83301 57.834 -5.5 75.501s-10.834 30.667 -21.501 39s-26.667 12.5 -48 12.5
c-24 0 -46.833 -7.33301 -68.5 -22s-40.167 -33 -55.5 -55v-379h-112v528zM427.999 721.999l-219 -89l-33 59l205 119z" />
    <glyph glyph-name="Ncommaaccent" unicode="&#x145;" 
d="M158 587c10.667 -109.333 16 -200.667 16 -274v-313h-103v690h151l220 -587c-4.66699 49.333 -8.5 93.833 -11.5 133.5s-4.5 86.167 -4.5 139.5v314h103v-690h-151zM347.5 -86.501c12.333 -11.667 18.5 -26.499 18.5 -44.499c0 -18.667 -6 -40.334 -18 -65.001l-50 -104
h-62l29 117c-17.333 12.667 -26 30 -26 52c0 17.333 6 32 18 44s27 18 45 18s33.167 -5.83301 45.5 -17.5z" />
    <glyph glyph-name="ncommaaccent" unicode="&#x146;" 
d="M89 528l96.999 -0.000976562l8 -69c22 26.667 47.833 47.167 77.5 61.5s60.834 21.5 93.501 21.5c48.667 0 85.334 -13.667 110.001 -41s37 -66 37 -116v-385h-112v329c0 32.667 -1.83301 57.834 -5.5 75.501s-10.834 30.667 -21.501 39s-26.667 12.5 -48 12.5
c-24 0 -46.833 -7.33301 -68.5 -22s-40.167 -33 -55.5 -55v-379h-112v528zM348.499 -86.501c12.333 -11.667 18.5 -26.499 18.5 -44.499c0 -18.667 -6 -40.334 -18 -65.001l-50 -104h-62l29 117c-17.333 12.667 -26 30 -26 52c0 17.333 6 32 18 44s27 18 45 18
s33.167 -5.83301 45.5 -17.5z" />
    <glyph glyph-name="Ncaron" unicode="&#x147;" 
d="M158 587c10.667 -109.333 16 -200.667 16 -274v-313h-103v690h151l220 -587c-4.66699 49.333 -8.5 93.833 -11.5 133.5s-4.5 86.167 -4.5 139.5v314h103v-690h-151zM476 868.999l-137 -116h-72l-137 116l45 51l128 -82l129 82z" />
    <glyph glyph-name="ncaron" unicode="&#x148;" 
d="M89 528l96.999 -0.000976562l8 -69c22 26.667 47.833 47.167 77.5 61.5s60.834 21.5 93.501 21.5c48.667 0 85.334 -13.667 110.001 -41s37 -66 37 -116v-385h-112v329c0 32.667 -1.83301 57.834 -5.5 75.501s-10.834 30.667 -21.501 39s-26.667 12.5 -48 12.5
c-24 0 -46.833 -7.33301 -68.5 -22s-40.167 -33 -55.5 -55v-379h-112v528zM472.999 748.999l-137 -127h-72l-137 127l46 50l128 -92l127 92z" />
    <glyph glyph-name="napostrophe" unicode="&#x149;" 
d="M106.5 738.5c12.333 -11.667 18.501 -26.167 18.501 -43.5c0 -10 -1.66699 -20.167 -5 -30.5s-10 -25.5 -20 -45.5l-41 -85h-61l27 109c-18 14.667 -27 32 -27 52c0 17.333 6.16699 31.833 18.5 43.5s27.5 17.5 45.5 17.5c17.333 0 32.166 -5.83301 44.499 -17.5z
M102.001 528l96.999 -0.000976562l8 -69c22 26.667 47.833 47.167 77.5 61.5s60.5 21.5 92.5 21.5c48.667 0 85.5 -13.667 110.5 -41s37.5 -66 37.5 -116v-385h-112v329c0 32.667 -1.83301 57.834 -5.5 75.501s-11 30.667 -22 39s-27.167 12.5 -48.5 12.5
c-24 0 -46.667 -7.33301 -68 -22s-39.666 -33 -54.999 -55v-379h-112v528z" />
    <glyph glyph-name="Eng" unicode="&#x14a;" 
d="M485.5 -175c-29 -28.667 -69.834 -43.002 -122.501 -43.002c-45.333 0 -85.666 13.333 -120.999 40l43 70c13.333 -7.33301 24.833 -12.666 34.5 -15.999s21.5 -5 35.5 -5c38.667 0 58 24 58 72v57h-35l-220 587c10.667 -109.333 16 -200.666 16 -273.999v-313h-103v690
h151l220 -587c-4.66699 49.333 -8.5 93.833 -11.5 133.5s-4.5 86.167 -4.5 139.5v314h103v-739c0 -55.333 -14.5 -97.333 -43.5 -126z" />
    <glyph glyph-name="eng" unicode="&#x14b;" 
d="M492 -83c-13.333 -31.333 -32.166 -56.667 -56.499 -76s-57.5 -38 -99.5 -56l-41 82c26 12 46.167 23.667 60.5 35s25.333 27.333 33 48s11.5 48.334 11.5 83.001v296c0 33.333 -1.83301 58.666 -5.5 75.999s-10.834 30.166 -21.501 38.499s-27 12.5 -49 12.5
c-23.333 0 -45.833 -7.5 -67.5 -22.5s-40.167 -33.5 -55.5 -55.5v-378h-112v528h97l8 -69c21.333 26.667 47.166 47.167 77.499 61.5s61.5 21.5 93.5 21.5c48.667 0 85.334 -13.5 110.001 -40.5s37 -65.833 37 -116.5v-344c0 -51.333 -6.66699 -92.666 -20 -123.999z" />
    <glyph glyph-name="Omacron" unicode="&#x14c;" 
d="M494.5 84c-45 -64.667 -109.833 -97 -194.5 -97s-149.5 31.833 -194.5 95.5s-67.5 150.834 -67.5 261.501c0 109.333 22.5 196.666 67.5 261.999s109.833 98 194.5 98s149.5 -32.167 194.5 -96.5s67.5 -151.833 67.5 -262.5c0 -109.333 -22.5 -196.333 -67.5 -261z
M409 547c-22.667 44 -59 66 -109 66s-86.333 -22 -109 -66s-34 -111.667 -34 -203c0 -90 11.5 -157 34.5 -201s59.167 -66 108.5 -66c50 0 86.333 22 109 66s34 111.333 34 202s-11.333 158 -34 202zM159 790v82h282v-82h-282z" />
    <glyph glyph-name="omacron" unicode="&#x14d;" 
d="M477 467.5c41.333 -49.667 62.001 -117.167 62.001 -202.5s-21 -153 -63 -203s-100.667 -75 -176 -75c-76 0 -134.833 24.5 -176.5 73.5s-62.5 116.833 -62.5 203.5c0 84 21.167 151.333 63.5 202s101.166 76 176.499 76c76 0 134.667 -24.833 176 -74.5zM209.501 408
c-20.333 -31.333 -30.5 -79.332 -30.5 -143.999c0 -65.333 10 -113.5 30 -144.5s50.333 -46.5 91 -46.5s71 15.667 91 47s30 79.666 30 144.999c0 64.667 -10 112.5 -30 143.5s-50 46.5 -90 46.5c-40.667 0 -71.167 -15.667 -91.5 -47zM158.001 669.001v81h283v-81h-283z
" />
    <glyph glyph-name="Obreve" unicode="&#x14e;" 
d="M494.5 84c-45 -64.667 -109.833 -97 -194.5 -97s-149.5 31.833 -194.5 95.5s-67.5 150.834 -67.5 261.501c0 109.333 22.5 196.666 67.5 261.999s109.833 98 194.5 98s149.5 -32.167 194.5 -96.5s67.5 -151.833 67.5 -262.5c0 -109.333 -22.5 -196.333 -67.5 -261z
M409 547c-22.667 44 -59 66 -109 66s-86.333 -22 -109 -66s-34 -111.667 -34 -203c0 -90 11.5 -157 34.5 -201s59.167 -66 108.5 -66c50 0 86.333 22 109 66s34 111.333 34 202s-11.333 158 -34 202zM190 792.5c-28 24.333 -43.999 56.166 -47.999 95.499l68 14
c14.667 -42.667 44 -64 88 -64c23.333 0 42.5 5.5 57.5 16.5s25.833 26.833 32.5 47.5l69 -14c-4 -39.333 -20.333 -71.166 -49 -95.499s-65.334 -36.5 -110.001 -36.5c-44 0 -80 12.167 -108 36.5z" />
    <glyph glyph-name="obreve" unicode="&#x14f;" 
d="M477 467.5c41.333 -49.667 62.001 -117.167 62.001 -202.5s-21 -153 -63 -203s-100.667 -75 -176 -75c-76 0 -134.833 24.5 -176.5 73.5s-62.5 116.833 -62.5 203.5c0 84 21.167 151.333 63.5 202s101.166 76 176.499 76c76 0 134.667 -24.833 176 -74.5zM209.501 408
c-20.333 -31.333 -30.5 -79.332 -30.5 -143.999c0 -65.333 10 -113.5 30 -144.5s50.333 -46.5 91 -46.5s71 15.667 91 47s30 79.666 30 144.999c0 64.667 -10 112.5 -30 143.5s-50 46.5 -90 46.5c-40.667 0 -71.167 -15.667 -91.5 -47zM189.501 668.001
c-27 30 -42.835 65.333 -47.502 106l69 13c6.66699 -26 17.334 -46.333 32.001 -61s33.334 -22 56.001 -22s41.5 7.33301 56.5 22s26.167 35 33.5 61l68 -13c-2.66699 -25.333 -10.5 -49.5 -23.5 -72.5s-31 -41.833 -54 -56.5s-49.833 -22 -80.5 -22
c-46 0 -82.5 15 -109.5 45z" />
    <glyph glyph-name="Ohungarumlaut" unicode="&#x150;" 
d="M494.5 84c-45 -64.667 -109.833 -97 -194.5 -97s-149.5 31.833 -194.5 95.5s-67.5 150.834 -67.5 261.501c0 109.333 22.5 196.666 67.5 261.999s109.833 98 194.5 98s149.5 -32.167 194.5 -96.5s67.5 -151.833 67.5 -262.5c0 -109.333 -22.5 -196.333 -67.5 -261z
M409 547c-22.667 44 -59 66 -109 66s-86.333 -22 -109 -66s-34 -111.667 -34 -203c0 -90 11.5 -157 34.5 -201s59.167 -66 108.5 -66c50 0 86.333 22 109 66s34 111.333 34 202s-11.333 158 -34 202zM259 965l87 -40l-107 -171l-66 29zM430 965l85 -43l-114 -170l-64 32z
" />
    <glyph glyph-name="ohungarumlaut" unicode="&#x151;" 
d="M477 467.5c41.333 -49.667 62.001 -117.167 62.001 -202.5s-21 -153 -63 -203s-100.667 -75 -176 -75c-76 0 -134.833 24.5 -176.5 73.5s-62.5 116.833 -62.5 203.5c0 84 21.167 151.333 63.5 202s101.166 76 176.499 76c76 0 134.667 -24.833 176 -74.5zM209.501 408
c-20.333 -31.333 -30.5 -79.332 -30.5 -143.999c0 -65.333 10 -113.5 30 -144.5s50.333 -46.5 91 -46.5s71 15.667 91 47s30 79.666 30 144.999c0 64.667 -10 112.5 -30 143.5s-50 46.5 -90 46.5c-40.667 0 -71.167 -15.667 -91.5 -47zM256.001 844.001l87 -41l-108 -171
l-65 30zM426.001 844.001l86 -44l-115 -170l-63 32z" />
    <glyph glyph-name="OE" unicode="&#x152;" 
d="M297 690h307l-13 -86h-220c32 -44 50.333 -114.333 55 -211h141v-86h-141c-2.66699 -98.667 -22.667 -172.334 -60 -221.001h243v-86h-315c-27.333 -8.66699 -53 -13 -77 -13c-72.667 0 -126.5 30 -161.5 90s-52.5 149 -52.5 267c0 116.667 17.667 205.834 53 267.501
s89 92.5 161 92.5c25.333 0 52 -4.66699 80 -14zM138 554c-16 -42 -24 -111.999 -24 -209.999c0 -96.667 8.33301 -166.167 25 -208.5s42.667 -63.5 78 -63.5c37.333 0 64.166 21.167 80.499 63.5s24.5 112.166 24.5 209.499c0 66.667 -3.5 119.667 -10.5 159
s-18.167 68 -33.5 86s-35.666 27 -60.999 27c-36.667 0 -63 -21 -79 -63z" />
    <glyph glyph-name="oe" unicode="&#x153;" 
d="M572 474.5c26.667 -45 39.998 -110.501 39.998 -196.501c0 -18 -1 -34 -3 -48h-252c4.66699 -56 15.167 -96.667 31.5 -122s40.5 -38 72.5 -38c16.667 0 31.834 3 45.501 9s28.834 15.333 45.501 28l47 -66c-21.333 -18 -43.333 -31.5 -66 -40.5s-48 -13.5 -76 -13.5
c-70.667 0 -121 31 -151 93c-12.667 -30 -29.667 -53 -51 -69s-49.666 -24 -84.999 -24c-58.667 0 -102.334 24.167 -131.001 72.5s-43 116.5 -43 204.5c0 86.667 14.333 154.667 43 204s72.334 74 131.001 74c37.333 0 66.666 -8.16699 87.999 -24.5s38 -40.166 50 -71.499
c27.333 64 73 96 137 96c58 0 100.333 -22.5 127 -67.5zM381.498 425.499c-13 -23.667 -21.167 -64.167 -24.5 -121.5h159c-1.33301 54.667 -7.33301 94.5 -18 119.5s-29.667 37.5 -57 37.5c-26.667 0 -46.5 -11.833 -59.5 -35.5zM118.998 410.499
c-12 -30.333 -18.001 -79.167 -18.001 -146.5c0 -68.667 5.83301 -117.667 17.5 -147s31.834 -44 60.501 -44c19.333 0 34.5 6.16699 45.5 18.5s19 32.333 24 60s7.5 65.5 7.5 113.5c0 67.333 -5.83301 116 -17.5 146s-31.5 45 -59.5 45s-48 -15.167 -60 -45.5z" />
    <glyph glyph-name="Racute" unicode="&#x154;" 
d="M503 370c-28.667 -32 -66.667 -55.333 -114 -70l196 -300h-135l-174 284h-75v-284h-116v690h192c179.333 0 269 -66.667 269 -200c0 -48 -14.333 -88 -43 -120zM390.5 577c-23 18 -58.499 27 -106.499 27h-83v-235h86c45.333 0 79.666 9.66699 102.999 29s35 50 35 92
c0 40 -11.5 69 -34.5 87zM427.001 834l-223 -80l-28 58l205 112z" />
    <glyph glyph-name="racute" unicode="&#x155;" 
d="M543 528l-19.001 -194.998h-80v108c-36.667 -0.666992 -68.5 -15.334 -95.5 -44.001s-48.5 -69 -64.5 -121v-196h106v-80h-296v80h78v368h-78v80h163l20 -122c20.667 45.333 45.834 79.166 75.501 101.499s66.5 33.5 110.5 33.5c27.333 0 54 -4.33301 80 -13z
M456.999 722.002l-219 -89l-33 59l205 119z" />
    <glyph glyph-name="Rcommaaccent" unicode="&#x156;" 
d="M503 370c-28.667 -32 -66.667 -55.333 -114 -70l196 -300h-135l-174 284h-75v-284h-116v690h192c179.333 0 269 -66.667 269 -200c0 -48 -14.333 -88 -43 -120zM390.5 577c-23 18 -58.499 27 -106.499 27h-83v-235h86c45.333 0 79.666 9.66699 102.999 29s35 50 35 92
c0 40 -11.5 69 -34.5 87zM350.501 -86.5c12.333 -11.667 18.5 -26.499 18.5 -44.499c0 -18.667 -6 -40.334 -18 -65.001l-50 -104h-62l29 117c-17.333 12.667 -26 30 -26 52c0 17.333 6 32 18 44s27 18 45 18s33.167 -5.83301 45.5 -17.5z" />
    <glyph glyph-name="rcommaaccent" unicode="&#x157;" 
d="M543 528l-19.001 -194.998h-80v108c-36.667 -0.666992 -68.5 -15.334 -95.5 -44.001s-48.5 -69 -64.5 -121v-196h106v-80h-296v80h78v368h-78v80h163l20 -122c20.667 45.333 45.834 79.166 75.501 101.499s66.5 33.5 110.5 33.5c27.333 0 54 -4.33301 80 -13z
M274.499 -86.498c12.333 -11.667 18.5 -26.499 18.5 -44.499c0 -18.667 -6 -40.334 -18 -65.001l-50 -104h-62l29 117c-17.333 12.667 -26 30 -26 52c0 17.333 6 32 18 44s27 18 45 18s33.167 -5.83301 45.5 -17.5z" />
    <glyph glyph-name="Rcaron" unicode="&#x158;" 
d="M503 370c-28.667 -32 -66.667 -55.333 -114 -70l196 -300h-135l-174 284h-75v-284h-116v690h192c179.333 0 269 -66.667 269 -200c0 -48 -14.333 -88 -43 -120zM390.5 577c-23 18 -58.499 27 -106.499 27h-83v-235h86c45.333 0 79.666 9.66699 102.999 29s35 50 35 92
c0 40 -11.5 69 -34.5 87zM473.001 869l-137 -116h-72l-137 116l45 51l128 -82l129 82z" />
    <glyph glyph-name="rcaron" unicode="&#x159;" 
d="M543 528l-19.001 -194.998h-80v108c-36.667 -0.666992 -68.5 -15.334 -95.5 -44.001s-48.5 -69 -64.5 -121v-196h106v-80h-296v80h78v368h-78v80h163l20 -122c20.667 45.333 45.834 79.166 75.501 101.499s66.5 33.5 110.5 33.5c27.333 0 54 -4.33301 80 -13z
M501.999 749.002l-137 -127h-72l-137 127l46 50l128 -92l127 92z" />
    <glyph glyph-name="Sacute" unicode="&#x15a;" 
d="M517.5 86c-21 -31.333 -51.332 -55.666 -90.999 -72.999s-86.834 -26 -141.501 -26c-106.667 0 -191.334 30.667 -254.001 92l64 71c52 -48 115.333 -72 190 -72c41.333 0 75.5 9.66699 102.5 29s40.5 46.666 40.5 81.999c0 20.667 -4.16699 38 -12.5 52
s-22.5 26.5 -42.5 37.5s-48.667 22.167 -86 33.5c-76.667 22.667 -133 49.667 -169 81s-54 72.666 -54 123.999c0 36.667 10.167 69.167 30.5 97.5s48.5 50.333 84.5 66s76.667 23.5 122 23.5c92.667 0 169.667 -27.667 231 -83l-61 -69
c-47.333 40.667 -101.666 61 -162.999 61c-37.333 0 -67.5 -7.66699 -90.5 -23s-34.5 -37.333 -34.5 -66c0 -18 4.83301 -33.333 14.5 -46s26 -24.167 49 -34.5s55.5 -21.833 97.5 -34.5c66.667 -20 117.5 -45.667 152.5 -77s52.5 -77 52.5 -137
c0 -41.333 -10.5 -77.666 -31.5 -108.999zM434.001 834l-223 -80l-28 58l205 112z" />
    <glyph glyph-name="sacute" unicode="&#x15b;" 
d="M364.5 91c20.333 12.667 30.499 30.001 30.499 52.001c0 15.333 -3 27.833 -9 37.5s-18 18.667 -36 27s-45 17.166 -81 26.499c-58 14.667 -101.5 33.5 -130.5 56.5s-43.5 56.167 -43.5 99.5c0 46 19 82.833 57 110.5s89.333 41.5 154 41.5c78 0 145 -20.333 201 -61
l-48 -71c-47.333 31.333 -97.333 47 -150 47c-66.667 0 -100 -19.333 -100 -58c0 -13.333 3.83301 -24.333 11.5 -33s20.834 -16.834 39.501 -24.501s46.334 -16.5 83.001 -26.5c57.333 -16 100.166 -35.667 128.499 -59s42.5 -58.333 42.5 -105
c0 -54 -22.333 -94.833 -67 -122.5s-100 -41.5 -166 -41.5c-87.333 0 -159.666 24.667 -216.999 74l59 68c22 -17.333 46.5 -31.166 73.5 -41.499s55.167 -15.5 84.5 -15.5c35.333 0 63.166 6.33301 83.499 19zM436.999 722.001l-219 -89l-33 59l205 119z" />
    <glyph glyph-name="Scircumflex" unicode="&#x15c;" 
d="M517.5 86c-21 -31.333 -51.332 -55.666 -90.999 -72.999s-86.834 -26 -141.501 -26c-106.667 0 -191.334 30.667 -254.001 92l64 71c52 -48 115.333 -72 190 -72c41.333 0 75.5 9.66699 102.5 29s40.5 46.666 40.5 81.999c0 20.667 -4.16699 38 -12.5 52
s-22.5 26.5 -42.5 37.5s-48.667 22.167 -86 33.5c-76.667 22.667 -133 49.667 -169 81s-54 72.666 -54 123.999c0 36.667 10.167 69.167 30.5 97.5s48.5 50.333 84.5 66s76.667 23.5 122 23.5c92.667 0 169.667 -27.667 231 -83l-61 -69
c-47.333 40.667 -101.666 61 -162.999 61c-37.333 0 -67.5 -7.66699 -90.5 -23s-34.5 -37.333 -34.5 -66c0 -18 4.83301 -33.333 14.5 -46s26 -24.167 49 -34.5s55.5 -21.833 97.5 -34.5c66.667 -20 117.5 -45.667 152.5 -77s52.5 -77 52.5 -137
c0 -41.333 -10.5 -77.666 -31.5 -108.999zM480.001 807l-44 -51l-129 82l-128 -82l-45 51l137 116h72z" />
    <glyph glyph-name="scircumflex" unicode="&#x15d;" 
d="M364.5 91c20.333 12.667 30.499 30.001 30.499 52.001c0 15.333 -3 27.833 -9 37.5s-18 18.667 -36 27s-45 17.166 -81 26.499c-58 14.667 -101.5 33.5 -130.5 56.5s-43.5 56.167 -43.5 99.5c0 46 19 82.833 57 110.5s89.333 41.5 154 41.5c78 0 145 -20.333 201 -61
l-48 -71c-47.333 31.333 -97.333 47 -150 47c-66.667 0 -100 -19.333 -100 -58c0 -13.333 3.83301 -24.333 11.5 -33s20.834 -16.834 39.501 -24.501s46.334 -16.5 83.001 -26.5c57.333 -16 100.166 -35.667 128.499 -59s42.5 -58.333 42.5 -105
c0 -54 -22.333 -94.833 -67 -122.5s-100 -41.5 -166 -41.5c-87.333 0 -159.666 24.667 -216.999 74l59 68c22 -17.333 46.5 -31.166 73.5 -41.499s55.167 -15.5 84.5 -15.5c35.333 0 63.166 6.33301 83.499 19zM135.999 672.001l137 127h72l137 -127l-45 -50l-127 92
l-128 -92z" />
    <glyph glyph-name="Scedilla" unicode="&#x15e;" 
d="M489 53c-40 -37.333 -95.6689 -58.998 -167.002 -64.998v-42c32 -2.66699 56.167 -12.167 72.5 -28.5s24.5 -36.5 24.5 -60.5c0 -32 -12.667 -57.333 -38 -76s-57 -28 -95 -28c-20.667 0 -40.667 2.33301 -60 7s-35.666 11 -48.999 19l30 58
c22.667 -11.333 44.667 -17 66 -17c38 0 57 12.667 57 38c0 15.333 -7.16699 25.666 -21.5 30.999s-36.5 8 -66.5 8l8 91c-90 6.66699 -163 37 -219 91l64 71c52 -48 115.333 -72 190 -72c41.333 0 75.5 9.66699 102.5 29s40.5 46.666 40.5 81.999
c0 20.667 -4.16699 38 -12.5 52s-22.5 26.5 -42.5 37.5s-48.667 22.167 -86 33.5c-76.667 22.667 -133 49.667 -169 81s-54 72.666 -54 123.999c0 36.667 10.167 69.167 30.5 97.5s48.5 50.333 84.5 66s76.667 23.5 122 23.5c92.667 0 169.667 -27.667 231 -83l-61 -69
c-47.333 40.667 -101.666 61 -162.999 61c-37.333 0 -67.5 -7.66699 -90.5 -23s-34.5 -37.333 -34.5 -66c0 -18 4.83301 -33.333 14.5 -46s26 -24.167 49 -34.5s55.5 -21.833 97.5 -34.5c66.667 -20 117.5 -45.667 152.5 -77s52.5 -77 52.5 -137
c0 -57.333 -20 -104.666 -60 -141.999z" />
    <glyph glyph-name="scedilla" unicode="&#x15f;" 
d="M460 38c-36 -27.333 -82.001 -43.9971 -138.001 -49.9971v-42c32 -2.66699 56.167 -12.167 72.5 -28.5s24.5 -36.5 24.5 -60.5c0 -32 -12.667 -57.333 -38 -76s-57 -28 -95 -28c-20.667 0 -40.667 2.33301 -60 7s-35.666 11 -48.999 19l30 58
c22.667 -11.333 44.667 -17 66 -17c38 0 57 12.667 57 38c0 15.333 -7.16699 25.666 -21.5 30.999s-36.5 8 -66.5 8l8 91c-75.333 5.33301 -137.333 29.666 -186 72.999l59 68c22 -17.333 46.5 -31.166 73.5 -41.499s55.167 -15.5 84.5 -15.5
c35.333 0 63.166 6.33301 83.499 19s30.5 30 30.5 52c0 15.333 -3 27.833 -9 37.5s-18 18.667 -36 27s-45 17.166 -81 26.499c-58 14.667 -101.5 33.5 -130.5 56.5s-43.5 56.167 -43.5 99.5c0 46 19 82.833 57 110.5s89.333 41.5 154 41.5c78 0 145 -20.333 201 -61l-48 -71
c-47.333 31.333 -97.333 47 -150 47c-66.667 0 -100 -19.333 -100 -58c0 -13.333 3.83301 -24.333 11.5 -33s20.834 -16.834 39.501 -24.501s46.334 -16.5 83.001 -26.5c57.333 -16 100.166 -35.667 128.499 -59s42.5 -58.333 42.5 -105c0 -48 -18 -85.667 -54 -113z" />
    <glyph glyph-name="Scaron" unicode="&#x160;" 
d="M517.5 86c-21 -31.333 -51.332 -55.666 -90.999 -72.999s-86.834 -26 -141.501 -26c-106.667 0 -191.334 30.667 -254.001 92l64 71c52 -48 115.333 -72 190 -72c41.333 0 75.5 9.66699 102.5 29s40.5 46.666 40.5 81.999c0 20.667 -4.16699 38 -12.5 52
s-22.5 26.5 -42.5 37.5s-48.667 22.167 -86 33.5c-76.667 22.667 -133 49.667 -169 81s-54 72.666 -54 123.999c0 36.667 10.167 69.167 30.5 97.5s48.5 50.333 84.5 66s76.667 23.5 122 23.5c92.667 0 169.667 -27.667 231 -83l-61 -69
c-47.333 40.667 -101.666 61 -162.999 61c-37.333 0 -67.5 -7.66699 -90.5 -23s-34.5 -37.333 -34.5 -66c0 -18 4.83301 -33.333 14.5 -46s26 -24.167 49 -34.5s55.5 -21.833 97.5 -34.5c66.667 -20 117.5 -45.667 152.5 -77s52.5 -77 52.5 -137
c0 -41.333 -10.5 -77.666 -31.5 -108.999zM480.001 869l-137 -116h-72l-137 116l45 51l128 -82l129 82z" />
    <glyph glyph-name="scaron" unicode="&#x161;" 
d="M364.5 91c20.333 12.667 30.499 30.001 30.499 52.001c0 15.333 -3 27.833 -9 37.5s-18 18.667 -36 27s-45 17.166 -81 26.499c-58 14.667 -101.5 33.5 -130.5 56.5s-43.5 56.167 -43.5 99.5c0 46 19 82.833 57 110.5s89.333 41.5 154 41.5c78 0 145 -20.333 201 -61
l-48 -71c-47.333 31.333 -97.333 47 -150 47c-66.667 0 -100 -19.333 -100 -58c0 -13.333 3.83301 -24.333 11.5 -33s20.834 -16.834 39.501 -24.501s46.334 -16.5 83.001 -26.5c57.333 -16 100.166 -35.667 128.499 -59s42.5 -58.333 42.5 -105
c0 -54 -22.333 -94.833 -67 -122.5s-100 -41.5 -166 -41.5c-87.333 0 -159.666 24.667 -216.999 74l59 68c22 -17.333 46.5 -31.166 73.5 -41.499s55.167 -15.5 84.5 -15.5c35.333 0 63.166 6.33301 83.499 19zM481.999 749.001l-137 -127h-72l-137 127l46 50l128 -92
l127 92z" />
    <glyph glyph-name="uni0162" unicode="&#x162;" 
d="M335 0l0.000976562 -53.999c32 -2.66699 56.167 -12.167 72.5 -28.5s24.5 -36.5 24.5 -60.5c0 -32 -12.5 -57.333 -37.5 -76s-56.5 -28 -94.5 -28c-20.667 0 -40.834 2.33301 -60.501 7s-36.167 11 -49.5 19l31 58c21.333 -11.333 43.333 -17 66 -17
c38 0 57 12.667 57 38c0 15.333 -7.16699 25.666 -21.5 30.999s-36.833 8 -67.5 8l10 103h-24v596h-208v94h535l-12 -94h-199v-596h-22z" />
    <glyph glyph-name="uni0163" unicode="&#x163;" 
d="M463.5 -82.5c16.333 -16.333 24.499 -36.498 24.499 -60.498c0 -32 -12.667 -57.333 -38 -76s-57 -28 -95 -28c-20.667 0 -40.667 2.33301 -60 7s-35.666 11 -48.999 19l30 58c22.667 -11.333 44.667 -17 66 -17c38 0 57 12.667 57 38
c0 15.333 -7.16699 25.666 -21.5 30.999s-36.5 8 -66.5 8l8 95c-42.667 9.33301 -75.167 28.833 -97.5 58.5s-33.5 66.167 -33.5 109.5v286h-117v82h117v118l112 13v-131h179l-13 -82h-166v-285c0 -28.667 7.33301 -49.834 22 -63.501s38 -20.5 70 -20.5
c35.333 0 68 8.33301 98 25l40 -74c-18 -12 -39.167 -21.667 -63.5 -29s-49.5 -11.333 -75.5 -12v-41c32 -2.66699 56.167 -12.167 72.5 -28.5z" />
    <glyph glyph-name="Tcaron" unicode="&#x164;" 
d="M357 0h-116v596h-208v94h535l-12 -94h-199v-596zM472 869l-137 -116h-72l-137 116l45 51l128 -82l129 82z" />
    <glyph glyph-name="tcaron" unicode="&#x165;" 
d="M460 -2c-26.667 -7.33301 -54.667 -10.999 -84 -10.999c-60 0 -106.333 15.5 -139 46.5s-49 73.167 -49 126.5v286h-117v82h117v118l112 13v-131h179l-13 -82h-166v-285c0 -28.667 7.33301 -49.834 22 -63.501s38 -20.5 70 -20.5c35.333 0 68 8.33301 98 25l40 -74
c-20 -12.667 -43.333 -22.667 -70 -30zM476 776.001l-63 -198l-67 10l30 201z" />
    <glyph glyph-name="Tbar" unicode="&#x166;" 
d="M357 596v-183h126v-77h-126v-336h-116v336h-125v77h125v183h-208v94h535l-12 -94h-199z" />
    <glyph glyph-name="tbar" unicode="&#x167;" 
d="M530 28c-20 -12.667 -43.333 -22.666 -70 -29.999s-54.667 -11 -84 -11c-60 0 -106.333 15.5 -139 46.5s-49 73.167 -49 126.5v118h-106v77h106v91h-117v82h117v118l112 13v-131h179l-13 -82h-166v-91h166v-77h-166v-117c0 -28.667 7.33301 -49.834 22 -63.501
s38 -20.5 70 -20.5c35.333 0 68 8.33301 98 25z" />
    <glyph glyph-name="Utilde" unicode="&#x168;" 
d="M539 226c0 -46.667 -9.50098 -88 -28.501 -124s-46.5 -64.167 -82.5 -84.5s-79 -30.5 -129 -30.5c-75.333 0 -133.833 21.667 -175.5 65s-62.5 101.333 -62.5 174v464h116v-442c0 -57.333 9.83301 -99.833 29.5 -127.5s50.5 -41.5 92.5 -41.5
c42.667 0 73.834 13.833 93.501 41.5s29.5 70.167 29.5 127.5v442h117v-464zM321.999 778c-10.667 4.66699 -22.3311 11.333 -34.998 20c-8.66699 6.66699 -16.5 11.667 -23.5 15s-14.167 5 -21.5 5c-10.667 0 -20 -3.66699 -28 -11s-16.333 -18.666 -25 -33.999l-63 31
c13.333 29.333 29.666 52.833 48.999 70.5s41.666 26.5 66.999 26.5c14 0 26 -2.33301 36 -7s21.667 -11.334 35 -20.001c9.33301 -6.66699 17.333 -11.667 24 -15s13.667 -5 21 -5c10 0 19 3.5 27 10.5s16.333 18.167 25 33.5l63 -32
c-13.333 -30.667 -29.833 -54.167 -49.5 -70.5s-41.5 -24.5 -65.5 -24.5c-13.333 0 -25.333 2.33301 -36 7z" />
    <glyph glyph-name="utilde" unicode="&#x169;" 
d="M201 159c0 -30.667 6.16895 -52.833 18.502 -66.5s31.166 -20.5 56.499 -20.5c24 0 47.167 7 69.5 21s40.166 31.667 53.499 53v382h112v-528h-97l-7 68c-18.667 -26 -43 -46 -73 -60s-61 -21 -93 -21c-50.667 0 -88.667 13.667 -114 41s-38 66.333 -38 117v383h112v-369
zM321.502 657.001c-10.333 4.66699 -21.8301 11.333 -34.4971 20c-10 7.33301 -18.167 12.5 -24.5 15.5s-13.166 4.5 -20.499 4.5c-11.333 0 -20.833 -3.66699 -28.5 -11s-15.834 -19 -24.501 -35l-63 31c13.333 29.333 29.666 53 48.999 71s41.333 27 66 27
c14 0 26.5 -2.5 37.5 -7.5s22.5 -11.833 34.5 -20.5c9.33301 -6.66699 17.166 -11.667 23.499 -15s13.166 -5 20.499 -5c10 0 19 3.5 27 10.5s16.667 18.167 26 33.5l63 -31c-13.333 -30.667 -29.833 -54.167 -49.5 -70.5s-41.834 -24.5 -66.501 -24.5
c-13.333 0 -25.166 2.33301 -35.499 7z" />
    <glyph glyph-name="Umacron" unicode="&#x16a;" 
d="M539 226c0 -46.667 -9.50098 -88 -28.501 -124s-46.5 -64.167 -82.5 -84.5s-79 -30.5 -129 -30.5c-75.333 0 -133.833 21.667 -175.5 65s-62.5 101.333 -62.5 174v464h116v-442c0 -57.333 9.83301 -99.833 29.5 -127.5s50.5 -41.5 92.5 -41.5
c42.667 0 73.834 13.833 93.501 41.5s29.5 70.167 29.5 127.5v442h117v-464zM158.999 790v82h282v-82h-282z" />
    <glyph glyph-name="umacron" unicode="&#x16b;" 
d="M201 159c0 -30.667 6.16895 -52.833 18.502 -66.5s31.166 -20.5 56.499 -20.5c24 0 47.167 7 69.5 21s40.166 31.667 53.499 53v382h112v-528h-97l-7 68c-18.667 -26 -43 -46 -73 -60s-61 -21 -93 -21c-50.667 0 -88.667 13.667 -114 41s-38 66.333 -38 117v383h112v-369
zM158.002 669.001v81h283v-81h-283z" />
    <glyph glyph-name="Ubreve" unicode="&#x16c;" 
d="M539 226c0 -46.667 -9.50098 -88 -28.501 -124s-46.5 -64.167 -82.5 -84.5s-79 -30.5 -129 -30.5c-75.333 0 -133.833 21.667 -175.5 65s-62.5 101.333 -62.5 174v464h116v-442c0 -57.333 9.83301 -99.833 29.5 -127.5s50.5 -41.5 92.5 -41.5
c42.667 0 73.834 13.833 93.501 41.5s29.5 70.167 29.5 127.5v442h117v-464zM189.999 792.5c-28 24.333 -43.999 56.166 -47.999 95.499l68 14c14.667 -42.667 44 -64 88 -64c23.333 0 42.5 5.5 57.5 16.5s25.833 26.833 32.5 47.5l69 -14
c-4 -39.333 -20.333 -71.166 -49 -95.499s-65.334 -36.5 -110.001 -36.5c-44 0 -80 12.167 -108 36.5z" />
    <glyph glyph-name="ubreve" unicode="&#x16d;" 
d="M201 159c0 -30.667 6.16895 -52.833 18.502 -66.5s31.166 -20.5 56.499 -20.5c24 0 47.167 7 69.5 21s40.166 31.667 53.499 53v382h112v-528h-97l-7 68c-18.667 -26 -43 -46 -73 -60s-61 -21 -93 -21c-50.667 0 -88.667 13.667 -114 41s-38 66.333 -38 117v383h112v-369
zM189.502 668.001c-27 30 -42.835 65.333 -47.502 106l69 13c6.66699 -26 17.334 -46.333 32.001 -61s33.334 -22 56.001 -22s41.5 7.33301 56.5 22s26.167 35 33.5 61l68 -13c-2.66699 -25.333 -10.5 -49.5 -23.5 -72.5s-31 -41.833 -54 -56.5s-49.833 -22 -80.5 -22
c-46 0 -82.5 15 -109.5 45z" />
    <glyph glyph-name="Uring" unicode="&#x16e;" 
d="M539 226c0 -46.667 -9.50098 -88 -28.501 -124s-46.5 -64.167 -82.5 -84.5s-79 -30.5 -129 -30.5c-75.333 0 -133.833 21.667 -175.5 65s-62.5 101.333 -62.5 174v464h116v-442c0 -57.333 9.83301 -99.833 29.5 -127.5s50.5 -41.5 92.5 -41.5
c42.667 0 73.834 13.833 93.501 41.5s29.5 70.167 29.5 127.5v442h117v-464zM387.999 928c22.667 -22 34 -49 34 -81s-11.333 -58.833 -34 -80.5s-52 -32.5 -88 -32.5c-35.333 0 -64.333 11 -87 33s-34 48.667 -34 80c0 32 11.333 59 34 81s51.667 33 87 33
c36 0 65.333 -11 88 -33zM263.499 886.5c-9 -9.66699 -13.501 -22.834 -13.501 -39.501c0 -17.333 4.5 -30.666 13.5 -39.999s21.167 -14 36.5 -14c16 0 28.5 4.66699 37.5 14s13.5 22.666 13.5 39.999c0 16.667 -4.66699 29.834 -14 39.501s-21.666 14.5 -36.999 14.5
s-27.5 -4.83301 -36.5 -14.5z" />
    <glyph glyph-name="uring" unicode="&#x16f;" 
d="M201 159c0 -30.667 6.16895 -52.833 18.502 -66.5s31.166 -20.5 56.499 -20.5c24 0 47.167 7 69.5 21s40.166 31.667 53.499 53v382h112v-528h-97l-7 68c-18.667 -26 -43 -46 -73 -60s-61 -21 -93 -21c-50.667 0 -88.667 13.667 -114 41s-38 66.333 -38 117v383h112v-369
zM387.502 806.501c22.333 -21.667 33.5 -48.5 33.5 -80.5s-11.167 -59 -33.5 -81s-51.5 -33 -87.5 -33s-65.333 11 -88 33s-34 49 -34 81s11.333 58.833 34 80.5s52 32.5 88 32.5s65.167 -10.833 87.5 -32.5zM262.502 765.001c-9 -9.33301 -13.5 -22.333 -13.5 -39
c0 -17.333 4.5 -30.833 13.5 -40.5s21.5 -14.5 37.5 -14.5c15.333 0 27.5 4.83301 36.5 14.5s13.5 23.167 13.5 40.5c0 16.667 -4.5 29.667 -13.5 39s-21.167 14 -36.5 14c-16 0 -28.5 -4.66699 -37.5 -14z" />
    <glyph glyph-name="Uhungarumlaut" unicode="&#x170;" 
d="M539 226c0 -46.667 -9.50098 -88 -28.501 -124s-46.5 -64.167 -82.5 -84.5s-79 -30.5 -129 -30.5c-75.333 0 -133.833 21.667 -175.5 65s-62.5 101.333 -62.5 174v464h116v-442c0 -57.333 9.83301 -99.833 29.5 -127.5s50.5 -41.5 92.5 -41.5
c42.667 0 73.834 13.833 93.501 41.5s29.5 70.167 29.5 127.5v442h117v-464zM258.999 965l87 -40l-107 -171l-66 29zM429.999 965l85 -43l-114 -170l-64 32z" />
    <glyph glyph-name="uhungarumlaut" unicode="&#x171;" 
d="M201 159c0 -30.667 6.16895 -52.833 18.502 -66.5s31.166 -20.5 56.499 -20.5c24 0 47.167 7 69.5 21s40.166 31.667 53.499 53v382h112v-528h-97l-7 68c-18.667 -26 -43 -46 -73 -60s-61 -21 -93 -21c-50.667 0 -88.667 13.667 -114 41s-38 66.333 -38 117v383h112v-369
zM256.002 844.001l87 -41l-108 -171l-65 30zM426.002 844.001l86 -44l-115 -170l-63 32z" />
    <glyph glyph-name="Uogonek" unicode="&#x172;" 
d="M539 690l-0.00195312 -463.998c0 -56.667 -13.833 -105.334 -41.5 -146.001s-66.5 -68.334 -116.5 -83.001c-44 -18 -74 -35.667 -90 -53s-24 -36.333 -24 -57c0 -32 18.667 -48 56 -48c18.667 0 38.334 2.33301 59.001 7l-10 -77c-22 -4.66699 -42.667 -7 -62 -7
c-39.333 0 -71.333 9.83301 -96 29.5s-37 45.5 -37 77.5c0 25.333 6.5 47.833 19.5 67.5s32.167 37.5 57.5 53.5c-61.333 8.66699 -108.833 34 -142.5 76s-50.5 95.333 -50.5 160v464h116v-442c0 -57.333 9.83301 -99.833 29.5 -127.5s50.5 -41.5 92.5 -41.5
c42.667 0 73.834 13.833 93.501 41.5s29.5 70.167 29.5 127.5v442h117z" />
    <glyph glyph-name="uogonek" unicode="&#x173;" 
d="M511 528l0.000976562 -527.999c-46 -18.667 -77.5 -36.834 -94.5 -54.501s-25.5 -37.167 -25.5 -58.5c0 -32 18.667 -48 56 -48c18.667 0 38.334 2.33301 59.001 7l-10 -77c-22 -4.66699 -42.667 -7 -62 -7c-39.333 0 -71.333 9.83301 -96 29.5s-37 45.5 -37 77.5
c0 30.667 9.33301 57.334 28 80.001s46.667 42.667 84 60l-6 59c-18.667 -26 -43 -46 -73 -60s-61 -21 -93 -21c-50.667 0 -88.667 13.667 -114 41s-38 66.333 -38 117v383h112v-369c0 -30.667 6.16699 -52.834 18.5 -66.501s31.166 -20.5 56.499 -20.5
c24 0 47.167 7 69.5 21s40.166 31.667 53.499 53v382h112z" />
    <glyph glyph-name="Wcircumflex" unicode="&#x174;" 
d="M503 0h-136l-68 511l-71 -511h-138l-88 690h112l54 -578l74 498h119l69 -498l64 578h104zM473 807l-44 -51l-129 82l-128 -82l-45 51l137 116h72z" />
    <glyph glyph-name="wcircumflex" unicode="&#x175;" 
d="M362 0l-60 375l-64 -375h-137l-89 528h108l55 -458l74 391h112l68 -391l55 458h104l-86 -528h-140zM127 672l137 127h72l137 -127l-45 -50l-127 92l-128 -92z" />
    <glyph glyph-name="Ycircumflex" unicode="&#x176;" 
d="M358 0h-116v263l-231 427h128l163 -327l165 327h122l-231 -426v-264zM475 807l-44 -51l-129 82l-128 -82l-45 51l137 116h72z" />
    <glyph glyph-name="ycircumflex" unicode="&#x177;" 
d="M369 -2c-21.333 -64 -52.167 -114.167 -92.5 -150.5s-95.833 -57.5 -166.5 -63.5l-14 84c34.667 5.33301 62.667 13.5 84 24.5s38.333 24.833 51 41.5s24 38.667 34 66h-38l-178 528h119l133 -450l135 450h115zM126.999 672l137 127h72l137 -127l-45 -50l-127 92
l-128 -92z" />
    <glyph glyph-name="Ydieresis" unicode="&#x178;" 
d="M358 0h-116v263l-231 427h128l163 -327l165 327h122l-231 -426v-264zM147.5 784c-12.333 12 -18.5 27 -18.5 45s6.16699 33.167 18.5 45.5s27.833 18.5 46.5 18.5s34.167 -6.16699 46.5 -18.5s18.5 -27.5 18.5 -45.5s-6.16699 -33 -18.5 -45s-27.833 -18 -46.5 -18
s-34.167 6 -46.5 18zM364 784c-12.667 12 -19 27 -19 45s6.33301 33.167 19 45.5s28 18.5 46 18.5c18.667 0 34.167 -6.16699 46.5 -18.5s18.5 -27.5 18.5 -45.5s-6.16699 -33 -18.5 -45s-27.833 -18 -46.5 -18c-18 0 -33.333 6 -46 18z" />
    <glyph glyph-name="Zacute" unicode="&#x179;" 
d="M540 96l-12 -96h-469v90l351 506h-315v94h443v-91l-346 -503h348zM443 834l-223 -80l-28 58l205 112z" />
    <glyph glyph-name="zacute" unicode="&#x17a;" 
d="M508 90l-12 -90h-405v82l281 356h-259v90h391v-82l-279 -356h283zM437 722l-219 -89l-33 59l205 119z" />
    <glyph glyph-name="Zdotaccent" unicode="&#x17b;" 
d="M540 96l-12 -96h-469v90l351 506h-315v94h443v-91l-346 -503h348zM368.5 888c13.667 -13.333 20.5 -30 20.5 -50s-6.83301 -36.833 -20.5 -50.5s-31.167 -20.5 -52.5 -20.5s-38.833 6.83301 -52.5 20.5s-20.5 30.5 -20.5 50.5s6.66699 36.667 20 50s31 20 53 20
c21.333 0 38.833 -6.66699 52.5 -20z" />
    <glyph glyph-name="zdotaccent" unicode="&#x17c;" 
d="M508 90l-12 -90h-405v82l281 356h-259v90h391v-82l-279 -356h283zM361.5 766.5c13.667 -13.667 20.5 -30.5 20.5 -50.5s-6.83301 -36.667 -20.5 -50s-31.5 -20 -53.5 -20c-21.333 0 -38.833 6.66699 -52.5 20s-20.5 30 -20.5 50s6.83301 36.833 20.5 50.5
s31.167 20.5 52.5 20.5c22 0 39.833 -6.83301 53.5 -20.5z" />
    <glyph glyph-name="Zcaron" unicode="&#x17d;" 
d="M540 96l-12 -96h-469v90l351 506h-315v94h443v-91l-346 -503h348zM490 869l-137 -116h-72l-137 116l45 51l128 -82l129 82z" />
    <glyph glyph-name="zcaron" unicode="&#x17e;" 
d="M508 90l-12 -90h-405v82l281 356h-259v90h391v-82l-279 -356h283zM482 749l-137 -127h-72l-137 127l46 50l128 -92l127 92z" />
    <glyph glyph-name="florin" unicode="&#x192;" 
d="M442 745.5c20.667 -5 42.334 -12.501 65.001 -22.501l-34 -77c-29.333 13.333 -59.333 20 -90 20c-28 0 -47.667 -6 -59 -18s-17 -31 -17 -57v-63h128l-13 -83h-115v-397c0 -53.333 -6.5 -96.333 -19.5 -129s-31.833 -58.834 -56.5 -78.501s-57.667 -38.167 -99 -55.5
l-40 81c26 12 46.167 23.833 60.5 35.5s25.166 27.834 32.499 48.501s11 48.334 11 83.001v412h-84v83h84v64c0 47.333 15.333 86 46 116s74 45 130 45c26 0 49.333 -2.5 70 -7.5z" />
    <glyph glyph-name="AEacute" unicode="&#x1fc;" 
d="M144 167l-41 -167h-115l192 690h386l-13 -86h-216l45 -211h175v-86h-160l46 -221h163v-86h-251l-31 167h-180zM307 254l-65 352l-78 -352h143zM484 834l-223 -80l-28 58l205 112z" />
    <glyph glyph-name="aeacute" unicode="&#x1fd;" 
d="M604 278c0 -13.333 -0.672852 -29.334 -2.00586 -48.001h-258c4.66699 -55.333 15.334 -95.833 32.001 -121.5s41.334 -38.5 74.001 -38.5c17.333 0 33.333 3 48 9s30.334 15.333 47.001 28l47 -66c-21.333 -17.333 -43.666 -30.666 -66.999 -39.999
s-49.666 -14 -78.999 -14c-68 0 -119 29 -153 87c-22 -31.333 -44 -53.666 -66 -66.999s-49.333 -20 -82 -20c-46 0 -82.667 15 -110 45s-41 69.667 -41 119c0 56 17.667 98.667 53 128s87.666 44 156.999 44h44v35c0 69.333 -30.333 104 -91 104c-16 0 -31.167 -2 -45.5 -6
s-32.5 -11 -54.5 -21l-27 72c50 23.333 96 35 138 35c36.667 0 65.834 -7 87.501 -21s38.5 -34 50.5 -60c10.667 25.333 26.834 45.166 48.501 59.499s47.5 21.5 77.5 21.5c114.667 0 172 -88 172 -264zM367.994 425.499c-13.333 -23.667 -21.332 -64.167 -23.999 -121.5
h164c-0.666992 54 -6.83398 93.667 -18.501 119s-32.167 38 -61.5 38c-26.667 0 -46.667 -11.833 -60 -35.5zM212.995 253.999c-40.667 0 -69.667 -8.16699 -87 -24.5s-26 -40.5 -26 -72.5c0 -29.333 5.66699 -51.833 17 -67.5s27 -23.5 47 -23.5
c18 0 34.167 6.66699 48.5 20s29.5 34.333 45.5 63c-6.66699 30.667 -10 65.667 -10 105h-35zM433.995 721.999l-219 -89l-33 59l205 119z" />
    <glyph glyph-name="Oslashacute" unicode="&#x1fe;" 
d="M531 535.5c20.667 -54.333 31 -117.834 31 -190.501c0 -109.333 -22.5 -196.333 -67.5 -261s-109.833 -97 -194.5 -97c-21.333 0 -41 2 -59 6l-31 -103l-89 25l37 116c-38.667 28.667 -68.334 69.834 -89.001 123.501s-31 116.834 -31 189.501
c0 109.333 22.5 196.666 67.5 261.999s109.833 98 194.5 98c22 0 42 -2.33301 60 -7l31 106l88 -25l-37 -118c38.667 -28.667 68.334 -70.167 89.001 -124.5zM190 547.999c-22.667 -44 -33.999 -112 -33.999 -204c0 -108.667 15 -183 45 -223l141 488
c-13.333 3.33301 -27.333 5 -42 5c-50.667 0 -87.334 -22 -110.001 -66zM410.001 141.999c22.667 44 33.999 111.666 33.999 202.999c0 56 -3.5 102.333 -10.5 139s-18.167 65.334 -33.5 86.001l-142 -489c14.667 -3.33301 28.667 -5 42 -5c50.667 0 87.334 22 110.001 66z
M427 833.998l-223 -80l-28 58l205 112z" />
    <glyph glyph-name="oslashacute" unicode="&#x1ff;" 
d="M510 412.5c19.333 -41.667 29.001 -90.832 29.001 -147.499c0 -85.333 -21 -153 -63 -203s-100.667 -75 -176 -75c-14.667 0 -29 1 -43 3l-37 -123l-87 26l41 126c-36 22 -63.833 54 -83.5 96s-29.5 91.667 -29.5 149c0 84 21.167 151.333 63.5 202
s101.166 76 176.499 76c14 0 28 -1 42 -3l38 118l87 -25l-41 -123c36 -22.667 63.667 -54.834 83 -96.501zM208.501 409.002c-20.333 -31.333 -30.5 -79.667 -30.5 -145c0 -78.667 13 -132.667 39 -162l110 352c-10.667 1.33301 -19.334 2 -26.001 2
c-41.333 0 -72.166 -15.667 -92.499 -47zM392.001 119.001c20 31.333 29.999 80 29.999 146c0 78.667 -12.667 132 -38 160l-110 -351c10.667 -1.33301 19.334 -2 26.001 -2c41.333 0 72 15.667 92 47zM428 722.001l-219 -89l-33 59l205 119z" />
    <glyph glyph-name="Scommaaccent" unicode="&#x218;" 
d="M517.5 86c-21 -31.333 -51.332 -55.666 -90.999 -72.999s-86.834 -26 -141.501 -26c-106.667 0 -191.334 30.667 -254.001 92l64 71c52 -48 115.333 -72 190 -72c41.333 0 75.5 9.66699 102.5 29s40.5 46.666 40.5 81.999c0 20.667 -4.16699 38 -12.5 52
s-22.5 26.5 -42.5 37.5s-48.667 22.167 -86 33.5c-76.667 22.667 -133 49.667 -169 81s-54 72.666 -54 123.999c0 36.667 10.167 69.167 30.5 97.5s48.5 50.333 84.5 66s76.667 23.5 122 23.5c92.667 0 169.667 -27.667 231 -83l-61 -69
c-47.333 40.667 -101.666 61 -162.999 61c-37.333 0 -67.5 -7.66699 -90.5 -23s-34.5 -37.333 -34.5 -66c0 -18 4.83301 -33.333 14.5 -46s26 -24.167 49 -34.5s55.5 -21.833 97.5 -34.5c66.667 -20 117.5 -45.667 152.5 -77s52.5 -77 52.5 -137
c0 -41.333 -10.5 -77.666 -31.5 -108.999zM345.501 -86.5c12.333 -11.667 18.5 -26.499 18.5 -44.499c0 -18.667 -6 -40.334 -18 -65.001l-50 -104h-62l29 117c-17.333 12.667 -26 30 -26 52c0 17.333 6 32 18 44s27 18 45 18s33.167 -5.83301 45.5 -17.5z" />
    <glyph glyph-name="scommaaccent" unicode="&#x219;" 
d="M364.5 91c20.333 12.667 30.499 30.001 30.499 52.001c0 15.333 -3 27.833 -9 37.5s-18 18.667 -36 27s-45 17.166 -81 26.499c-58 14.667 -101.5 33.5 -130.5 56.5s-43.5 56.167 -43.5 99.5c0 46 19 82.833 57 110.5s89.333 41.5 154 41.5c78 0 145 -20.333 201 -61
l-48 -71c-47.333 31.333 -97.333 47 -150 47c-66.667 0 -100 -19.333 -100 -58c0 -13.333 3.83301 -24.333 11.5 -33s20.834 -16.834 39.501 -24.501s46.334 -16.5 83.001 -26.5c57.333 -16 100.166 -35.667 128.499 -59s42.5 -58.333 42.5 -105
c0 -54 -22.333 -94.833 -67 -122.5s-100 -41.5 -166 -41.5c-87.333 0 -159.666 24.667 -216.999 74l59 68c22 -17.333 46.5 -31.166 73.5 -41.499s55.167 -15.5 84.5 -15.5c35.333 0 63.166 6.33301 83.499 19zM345.499 -86.499c12.333 -11.667 18.5 -26.499 18.5 -44.499
c0 -18.667 -6 -40.334 -18 -65.001l-50 -104h-62l29 117c-17.333 12.667 -26 30 -26 52c0 17.333 6 32 18 44s27 18 45 18s33.167 -5.83301 45.5 -17.5z" />
    <glyph glyph-name="uni021A" unicode="&#x21a;" 
d="M357 0h-116v596h-208v94h535l-12 -94h-199v-596zM346.5 -86.5c12.333 -11.667 18.5 -26.499 18.5 -44.499c0 -18.667 -6 -40.334 -18 -65.001l-50 -104h-62l29 117c-17.333 12.667 -26 30 -26 52c0 17.333 6 32 18 44s27 18 45 18s33.167 -5.83301 45.5 -17.5z" />
    <glyph glyph-name="uni021B" unicode="&#x21b;" 
d="M460 -2c-26.667 -7.33301 -54.667 -10.999 -84 -10.999c-60 0 -106.333 15.5 -139 46.5s-49 73.167 -49 126.5v286h-117v82h117v118l112 13v-131h179l-13 -82h-166v-285c0 -28.667 7.33301 -49.834 22 -63.501s38 -20.5 70 -20.5c35.333 0 68 8.33301 98 25l40 -74
c-20 -12.667 -43.333 -22.667 -70 -30zM414.5 -86.499c12.333 -11.667 18.5 -26.499 18.5 -44.499c0 -18.667 -6 -40.334 -18 -65.001l-50 -104h-62l29 117c-17.333 12.667 -26 30 -26 52c0 17.333 6 32 18 44s27 18 45 18s33.167 -5.83301 45.5 -17.5z" />
    <glyph glyph-name="uni0237" unicode="&#x237;" 
d="M455 111c0 -95.333 -29 -168.332 -87 -218.999s-146 -86.667 -264 -108l-18 86c85.333 16 149.5 41.667 192.5 77s64.5 87.666 64.5 156.999v342h-208v82h320v-417z" />
    <glyph glyph-name="uni02B9" unicode="&#x2b9;" 
d="M286 690h112l-116 -267h-80z" />
    <glyph glyph-name="uni02BA" unicode="&#x2ba;" 
d="M204 690h112l-116 -267h-80zM367 690h112l-116 -267h-80z" />
    <glyph glyph-name="uni02BC" unicode="&#x2bc;" 
d="M337.5 734.5c12.333 -11.667 18.5 -26.166 18.5 -43.499c0 -9.33301 -2 -19.5 -6 -30.5s-11 -26.833 -21 -47.5l-39 -80h-61l26 105c-18 13.333 -27 30.666 -27 51.999c0 17.333 6.16699 32 18.5 44s27.5 18 45.5 18s33.167 -5.83301 45.5 -17.5z" />
    <glyph glyph-name="circumflex" unicode="&#x2c6;" 
d="M127 672l137 127h72l137 -127l-45 -50l-127 92l-128 -92z" />
    <glyph glyph-name="caron" unicode="&#x2c7;" 
d="M473 749l-137 -127h-72l-137 127l46 50l128 -92l127 92z" />
    <glyph glyph-name="uni02C9" unicode="&#x2c9;" 
d="M158 679v81h283v-81h-283z" />
    <glyph glyph-name="breve" unicode="&#x2d8;" 
d="M189.5 668c-27 30 -42.835 65.333 -47.502 106l69 13c6.66699 -26 17.334 -46.333 32.001 -61s33.334 -22 56.001 -22s41.5 7.33301 56.5 22s26.167 35 33.5 61l68 -13c-2.66699 -25.333 -10.5 -49.5 -23.5 -72.5s-31 -41.833 -54 -56.5s-49.833 -22 -80.5 -22
c-46 0 -82.5 15 -109.5 45z" />
    <glyph glyph-name="dotaccent" unicode="&#x2d9;" 
d="M352.5 766.5c13.667 -13.667 20.5 -30.5 20.5 -50.5s-6.83301 -36.667 -20.5 -50s-31.5 -20 -53.5 -20c-21.333 0 -38.833 6.66699 -52.5 20s-20.5 30 -20.5 50s6.83301 36.833 20.5 50.5s31.167 20.5 52.5 20.5c22 0 39.833 -6.83301 53.5 -20.5z" />
    <glyph glyph-name="ring" unicode="&#x2da;" 
d="M387.5 806.5c22.333 -21.667 33.5 -48.5 33.5 -80.5s-11.167 -59 -33.5 -81s-51.5 -33 -87.5 -33s-65.333 11 -88 33s-34 49 -34 81s11.333 58.833 34 80.5s52 32.5 88 32.5s65.167 -10.833 87.5 -32.5zM262.5 765c-9 -9.33301 -13.5 -22.333 -13.5 -39
c0 -17.333 4.5 -30.833 13.5 -40.5s21.5 -14.5 37.5 -14.5c15.333 0 27.5 4.83301 36.5 14.5s13.5 23.167 13.5 40.5c0 16.667 -4.5 29.667 -13.5 39s-21.167 14 -36.5 14c-16 0 -28.5 -4.66699 -37.5 -14z" />
    <glyph glyph-name="ogonek" unicode="&#x2db;" 
d="M399 0c-46 -18.667 -77.5 -36.833 -94.5 -54.5s-25.5 -37.167 -25.5 -58.5c0 -32 18.667 -48 56 -48c18.667 0 38.334 2.33301 59.001 7l-10 -77c-22 -4.66699 -42.667 -7 -62 -7c-39.333 0 -71.333 9.83301 -96 29.5s-37 45.5 -37 77.5
c0 40.667 16.167 74.167 48.5 100.5s81.166 49.5 146.499 69.5z" />
    <glyph glyph-name="tilde" unicode="&#x2dc;" 
d="M321.5 657c-10.333 4.66699 -21.8301 11.333 -34.4971 20c-10 7.33301 -18.167 12.5 -24.5 15.5s-13.166 4.5 -20.499 4.5c-11.333 0 -20.833 -3.66699 -28.5 -11s-15.834 -19 -24.501 -35l-63 31c13.333 29.333 29.666 53 48.999 71s41.333 27 66 27
c14 0 26.5 -2.5 37.5 -7.5s22.5 -11.833 34.5 -20.5c9.33301 -6.66699 17.166 -11.667 23.499 -15s13.166 -5 20.499 -5c10 0 19 3.5 27 10.5s16.667 18.167 26 33.5l63 -31c-13.333 -30.667 -29.833 -54.167 -49.5 -70.5s-41.834 -24.5 -66.501 -24.5
c-13.333 0 -25.166 2.33301 -35.499 7z" />
    <glyph glyph-name="hungarumlaut" unicode="&#x2dd;" 
d="M215 844l87 -41l-108 -171l-65 30zM385 844l86 -44l-115 -170l-63 32z" />
    <glyph glyph-name="gravecomb" unicode="&#x300;" horiz-adv-x="0" 
d="M-174 692l-33 -59l-219 89l47 89z" />
    <glyph glyph-name="acutecomb" unicode="&#x301;" horiz-adv-x="0" 
d="M-172 722l-219 -89l-33 59l205 119z" />
    <glyph glyph-name="uni0302" unicode="&#x302;" horiz-adv-x="0" 
d="M-127 645l-44 -51l-129 82l-128 -82l-45 51l138 116h72z" />
    <glyph glyph-name="tildecomb" unicode="&#x303;" horiz-adv-x="0" 
d="M-277.5 657c-10.333 4.66699 -21.8301 11.333 -34.4971 20c-10 7.33301 -18.167 12.5 -24.5 15.5s-13.166 4.5 -20.499 4.5c-11.333 0 -20.833 -3.66699 -28.5 -11s-15.834 -19 -24.501 -35l-63 31c13.333 29.333 29.666 53 48.999 71s41.333 27 66 27
c14 0 26.5 -2.5 37.5 -7.5s22.5 -11.833 34.5 -20.5c9.33301 -6.66699 17.166 -11.667 23.499 -15s13.166 -5 20.499 -5c10 0 19 3.5 27 10.5s16.667 18.167 26 33.5l63 -31c-13.333 -30.667 -29.833 -54.167 -49.5 -70.5s-41.834 -24.5 -66.501 -24.5
c-13.333 0 -25.166 2.33301 -35.499 7z" />
    <glyph glyph-name="uni0304" unicode="&#x304;" horiz-adv-x="0" 
d="M-441 621v81h283v-81h-283z" />
    <glyph glyph-name="uni0306" unicode="&#x306;" horiz-adv-x="0" 
d="M-409.5 623.5c-28.333 24.333 -44.499 56.166 -48.499 95.499l69 14c14 -42.667 43.333 -64 88 -64c23.333 0 42.5 5.5 57.5 16.5s25.833 26.833 32.5 47.5l69 -14c-4 -39.333 -20.333 -71.166 -49 -95.499s-65.334 -36.5 -110.001 -36.5
c-44 0 -80.167 12.167 -108.5 36.5z" />
    <glyph glyph-name="uni0307" unicode="&#x307;" horiz-adv-x="0" 
d="M-246.5 719c13.667 -13.333 20.5 -30 20.5 -50c0 -20.667 -6.83301 -37.667 -20.5 -51s-31.5 -20 -53.5 -20c-21.333 0 -38.833 6.66699 -52.5 20s-20.5 30.333 -20.5 51c0 20 6.83301 36.667 20.5 50s31.167 20 52.5 20c22 0 39.833 -6.66699 53.5 -20z" />
    <glyph glyph-name="uni0308" unicode="&#x308;" horiz-adv-x="0" 
d="M-455 662c-12.667 12 -19 27 -19 45c0 18.667 6.33301 34 19 46s28.334 18 47.001 18c18 0 33.167 -6 45.5 -18s18.5 -27.333 18.5 -46c0 -18 -6.16699 -33 -18.5 -45s-27.5 -18 -45.5 -18c-18.667 0 -34.334 6 -47.001 18zM-238 662c-12.667 12 -19 27 -19 45
s6.33301 33.167 19 45.5s28 18.5 46 18.5c18.667 0 34.167 -6 46.5 -18s18.5 -27.333 18.5 -46c0 -18 -6.16699 -33 -18.5 -45s-27.833 -18 -46.5 -18c-18 0 -33.333 6 -46 18z" />
    <glyph glyph-name="uni030A" unicode="&#x30a;" horiz-adv-x="0" 
d="M-212.5 758.5c22.333 -21.667 33.5 -48.5 33.5 -80.5s-11.167 -59 -33.5 -81s-51.5 -33 -87.5 -33s-65.333 11 -88 33s-34 49 -34 81s11.333 58.833 34 80.5s52 32.5 88 32.5s65.167 -10.833 87.5 -32.5zM-337.5 717c-9 -9.33301 -13.5 -22.333 -13.5 -39
c0 -17.333 4.5 -30.833 13.5 -40.5s21.5 -14.5 37.5 -14.5c15.333 0 27.5 4.83301 36.5 14.5s13.5 23.167 13.5 40.5c0 16.667 -4.5 29.667 -13.5 39s-21.167 14 -36.5 14c-16 0 -28.5 -4.66699 -37.5 -14z" />
    <glyph glyph-name="uni030B" unicode="&#x30b;" horiz-adv-x="0" 
d="M-385 796l87 -41l-108 -171l-65 30zM-215 796l86 -44l-115 -170l-63 32z" />
    <glyph glyph-name="uni030C" unicode="&#x30c;" horiz-adv-x="0" 
d="M-127 700l-136 -116h-72l-138 116l45 51l128 -82l129 82z" />
    <glyph glyph-name="uni030F" unicode="&#x30f;" horiz-adv-x="0" 
d="M-356 630l-115 170l86 44l92 -182zM-194 632l-108 171l87 41l86 -182z" />
    <glyph glyph-name="uni0313" unicode="&#x313;" horiz-adv-x="0" 
d="M-288.5 755.5c12.333 -11.667 18.5 -26.499 18.5 -44.499c0 -18.667 -6 -40.334 -18 -65.001l-50 -104h-62l29 117c-17.333 12.667 -26 30 -26 52c0 17.333 6 32 18 44s27 18 45 18s33.167 -5.83301 45.5 -17.5z" />
    <glyph glyph-name="uni0314" unicode="&#x314;" horiz-adv-x="0" 
d="M-348.5 580c-12.333 12 -18.5 27 -18.5 45s6.33301 39.667 19 65l49 103h62l-28 -116c8 -6 14.167 -13.667 18.5 -23s6.5 -19 6.5 -29c0 -18 -6 -33 -18 -45s-27 -18 -45 -18s-33.167 6 -45.5 18z" />
    <glyph glyph-name="uni0326" unicode="&#x326;" horiz-adv-x="0" 
d="M-252.5 -86.5c12.333 -11.667 18.5 -26.499 18.5 -44.499c0 -18.667 -6 -40.334 -18 -65.001l-50 -104h-62l29 117c-17.333 12.667 -26 30 -26 52c0 17.333 6 32 18 44s27 18 45 18s33.167 -5.83301 45.5 -17.5z" />
    <glyph glyph-name="uni0327" unicode="&#x327;" horiz-adv-x="0" 
d="M-288.5 -118c-14.333 5.33301 -36.501 8.00098 -66.501 8.00098l10 119h70v-70c32 -2.66699 56.167 -12.167 72.5 -28.5s24.5 -36.5 24.5 -60.5c0 -32 -12.667 -57.333 -38 -76s-57 -28 -95 -28c-20.667 0 -40.667 2.33301 -60 7s-35.666 11 -48.999 19l30 58
c22.667 -11.333 44.667 -17 66 -17c38 0 57 12.667 57 38c0 15.333 -7.16699 25.666 -21.5 30.999z" />
    <glyph glyph-name="uni0335" unicode="&#x335;" horiz-adv-x="0" 
d="M-482 279v77h363v-77h-363z" />
    <glyph glyph-name="uni0336" unicode="&#x336;" horiz-adv-x="0" 
d="M-628 279v77h657v-77h-657z" />
    <glyph glyph-name="uni0342" unicode="&#x342;" horiz-adv-x="0" 
d="M-278.5 657c-10.333 4.66699 -21.8301 11.333 -34.4971 20c-10 7.33301 -18.167 12.5 -24.5 15.5s-13.166 4.5 -20.499 4.5c-11.333 0 -20.833 -3.66699 -28.5 -11s-15.834 -19 -24.501 -35l-63 31c13.333 29.333 29.666 53 48.999 71s41.333 27 66 27
c14 0 26.5 -2.5 37.5 -7.5s22.5 -11.833 34.5 -20.5c9.33301 -6.66699 17.166 -11.667 23.499 -15s13.166 -5 20.499 -5c10 0 19 3.5 27 10.5s16.667 18.167 26 33.5l63 -31c-13.333 -30.667 -29.833 -54.167 -49.5 -70.5s-41.834 -24.5 -66.501 -24.5
c-13.333 0 -25.166 2.33301 -35.499 7z" />
    <glyph glyph-name="uni0345" unicode="&#x345;" horiz-adv-x="0" 
d="M-379 -163.5c-20.667 20.333 -31 47.5 -31 81.5v42h89v-40c0 -27.333 13.667 -41 41 -41c11.333 0 21 1.16699 29 3.5s16.667 6.5 26 12.5l36 -54c-30 -23.333 -64.333 -35 -103 -35c-37.333 0 -66.333 10.167 -87 30.5z" />
    <glyph glyph-name="uni0370" unicode="&#x370;" 
d="M223 314v-314h-116v690h116v-281h270v-95h-270z" />
    <glyph glyph-name="uni0371" unicode="&#x371;" 
d="M527 225l-289 -0.000976562v-225h-112v365c0 58.667 -8.33301 112.334 -25 161.001l103 15c10.667 -22 19 -48.167 25 -78.5s9 -70.833 9 -121.5v-25h289v-91z" />
    <glyph glyph-name="uni0372" unicode="&#x372;" 
d="M572 690v-275h-93v181h-121v-596h-116v596h-120v-182h-93v276h543z" />
    <glyph glyph-name="uni0373" unicode="&#x373;" 
d="M568 440h-213.001v-643l-112 -13v656h-116c-20 0 -36.5 -0.666992 -49.5 -2s-27.5 -4.33301 -43.5 -9l-18 83c16.667 6 32.834 10.167 48.501 12.5s36.5 3.5 62.5 3.5h441v-88z" />
    <glyph glyph-name="uni0374" unicode="&#x374;" 
d="M286 690h112l-116 -267h-80z" />
    <glyph glyph-name="uni0375" unicode="&#x375;" 
d="M314 -133h-112l116 267h80z" />
    <glyph glyph-name="uni0376" unicode="&#x376;" 
d="M71 690h111v-305c0 -60 -1.66699 -111 -5 -153s-8.33301 -85.333 -15 -130l229 588h138v-690h-111v304c0 96.667 6.33301 190 19 280l-225 -584h-141v690z" />
    <glyph glyph-name="uni0377" unicode="&#x377;" 
d="M515 98.5c6.66699 -11.667 18.332 -21.5 34.999 -29.5l-35 -82c-41.333 10 -71.666 27.5 -90.999 52.5s-29 59.833 -29 104.5c0 25.333 3 70.333 9 135s11 110 15 136l-210 -415h-125v528h109v-218c0 -38 -1.66699 -76 -5 -114s-7 -64.667 -11 -80l207 412h121v-376
c0 -24 3.33301 -41.833 10 -53.5z" />
    <glyph glyph-name="uni037A" unicode="&#x37a;" 
d="M221 -163.5c-20.667 20.333 -31 47.5 -31 81.5v42h89v-40c0 -27.333 13.667 -41 41 -41c11.333 0 21 1.16699 29 3.5s16.667 6.5 26 12.5l36 -54c-30 -23.333 -64.333 -35 -103 -35c-37.333 0 -66.333 10.167 -87 30.5z" />
    <glyph glyph-name="uni037B" unicode="&#x37b;" 
d="M162 2.5c-29.333 10.333 -56.999 25.499 -82.999 45.499l51 71c23.333 -14 44 -24.167 62 -30.5s39 -9.5 63 -9.5c45.333 0 80.666 14.5 105.999 43.5s38 75.167 38 138.5c0 66 -11.167 114.333 -33.5 145s-55.833 46 -100.5 46c-26.667 0 -50.167 -3.16699 -70.5 -9.5
s-41.5 -16.166 -63.5 -29.499l-52 69c30.667 21.333 60.5 36.666 89.5 45.999s62.167 14 99.5 14c79.333 0 140.833 -25.167 184.5 -75.5s65.5 -119.166 65.5 -206.499c0 -56 -10.5 -104.5 -31.5 -145.5s-50.833 -72.5 -89.5 -94.5s-84 -33 -136 -33
c-36.667 0 -69.667 5.16699 -99 15.5z" />
    <glyph glyph-name="uni037C" unicode="&#x37c;" 
d="M474 124l51.001 -71.999c-23.333 -20 -51.333 -35.833 -84 -47.5s-66.334 -17.5 -101.001 -17.5c-80.667 0 -143.667 24.833 -189 74.5s-68 116.167 -68 199.5c0 54 10.333 102.167 31 144.5s50.5 75.666 89.5 99.999s85.167 36.5 138.5 36.5c70 0 131 -21.333 183 -64
l-52 -70c-42.667 29.333 -85.667 44 -129 44c-44 0 -78.667 -15.833 -104 -47.5s-38 -79.5 -38 -143.5c0 -62.667 12.667 -108.667 38 -138s60 -44 104 -44c42 0 85.333 15 130 45zM407.001 315.001c13.333 -12.667 20 -28.667 20 -48c0 -20 -6.66699 -36.5 -20 -49.5
s-30.333 -19.5 -51 -19.5s-37.667 6.5 -51 19.5s-20 29.5 -20 49.5c0 19.333 6.66699 35.333 20 48s30.333 19 51 19s37.667 -6.33301 51 -19z" />
    <glyph glyph-name="uni037D" unicode="&#x37d;" 
d="M162 2.5c-29.333 10.333 -56.999 25.499 -82.999 45.499l51 71c23.333 -14 44 -24.167 62 -30.5s39 -9.5 63 -9.5c45.333 0 80.666 14.5 105.999 43.5s38 75.167 38 138.5c0 66 -11.167 114.333 -33.5 145s-55.833 46 -100.5 46c-26.667 0 -50.167 -3.16699 -70.5 -9.5
s-41.5 -16.166 -63.5 -29.499l-52 69c30.667 21.333 60.5 36.666 89.5 45.999s62.167 14 99.5 14c79.333 0 140.833 -25.167 184.5 -75.5s65.5 -119.166 65.5 -206.499c0 -56 -10.5 -104.5 -31.5 -145.5s-50.833 -72.5 -89.5 -94.5s-84 -33 -136 -33
c-36.667 0 -69.667 5.16699 -99 15.5zM293.001 314.999c13.333 -12.667 20 -28.667 20 -48c0 -20 -6.66699 -36.5 -20 -49.5s-30.333 -19.5 -51 -19.5s-37.667 6.5 -51 19.5s-20 29.5 -20 49.5c0 19.333 6.66699 35.333 20 48s30.333 19 51 19s37.667 -6.33301 51 -19z" />
    <glyph glyph-name="uni037E" unicode="&#x37e;" 
d="M369 495.5c17.333 -17.667 26 -38.834 26 -63.501s-8.66699 -45.834 -26 -63.501s-38.666 -26.5 -63.999 -26.5c-24.667 0 -45.667 8.83301 -63 26.5s-26 38.834 -26 63.501s8.66699 45.834 26 63.501s38.333 26.5 63 26.5c25.333 0 46.666 -8.83301 63.999 -26.5z
M369.5 152c17 -17.333 25.5 -38.666 25.5 -63.999c0 -14 -2 -28.5 -6 -43.5s-11 -33.5 -21 -55.5l-77 -176h-86l48 201c-11.333 8 -20.333 18.667 -27 32s-10 27.333 -10 42c0 25.333 8.5 46.666 25.5 63.999s38.167 26 63.5 26c26 0 47.5 -8.66699 64.5 -26z" />
    <glyph glyph-name="uni037F" unicode="&#x37f;" 
d="M508 237c0 -72.667 -20.832 -132.5 -62.499 -179.5s-104.834 -70.5 -189.501 -70.5c-72.667 0 -138 21.333 -196 64l47 73c26 -16.667 50.667 -28.5 74 -35.5s47 -10.5 71 -10.5c43.333 0 77.5 14 102.5 42s37.5 67.667 37.5 119v362h-207v89h323v-453z" />
    <glyph glyph-name="tonos" unicode="&#x384;" 
d="M376 800l-74 -207l-77 12l37 218z" />
    <glyph glyph-name="dieresistonos" unicode="&#x385;" 
d="M396 908l-64 -176l-69 11l29 186zM232.5 726c12.333 -12 18.5 -27 18.5 -45s-6.16699 -33.167 -18.5 -45.5s-27.5 -18.5 -45.5 -18.5c-18.667 0 -34.167 6.16699 -46.5 18.5s-18.5 27.5 -18.5 45.5s6.16699 33 18.5 45s27.833 18 46.5 18c18 0 33.167 -6 45.5 -18z
M458.5 726c12.333 -12 18.5 -27 18.5 -45s-6.16699 -33.167 -18.5 -45.5s-27.833 -18.5 -46.5 -18.5c-18 0 -33.167 6.16699 -45.5 18.5s-18.5 27.5 -18.5 45.5s6.16699 33 18.5 45s27.5 18 45.5 18c18.667 0 34.167 -6 46.5 -18z" />
    <glyph glyph-name="Alphatonos" unicode="&#x386;" 
d="M175 166l-48 -166h-119l220 690h144l220 -690h-123l-48 166h-246zM397 256l-99 344l-99 -344h198zM179 690l-77 -207l-79 13l37 216z" />
    <glyph glyph-name="anoteleia" unicode="&#x387;" 
d="M232 410c18.667 18.667 41.334 28 68.001 28c27.333 0 50.333 -9.33301 69 -28s28 -41.334 28 -68.001c0 -27.333 -9.33301 -50.333 -28 -69s-41.667 -28 -69 -28c-26.667 0 -49.334 9.33301 -68.001 28s-28 41.667 -28 69c0 26.667 9.33301 49.334 28 68.001z" />
    <glyph glyph-name="Epsilontonos" unicode="&#x388;" 
d="M229 394h250v-87h-250v-219h305v-88h-421v690h415l-13 -88h-286v-208zM91 690l-77 -207l-79 13l37 216z" />
    <glyph glyph-name="Etatonos" unicode="&#x389;" 
d="M413 314h-226v-314h-116v690h116v-281h226v281h116v-690h-116v314zM50 690l-77 -207l-79 13l37 216z" />
    <glyph glyph-name="Iotatonos" unicode="&#x38a;" 
d="M508 602h-150v-513h150v-89h-416v89h150v513h-150v88h416v-88zM71 690l-77 -207l-79 13l37 216z" />
    <glyph glyph-name="Omicrontonos" unicode="&#x38c;" 
d="M494.5 84c-45 -64.667 -109.833 -97 -194.5 -97s-149.5 31.833 -194.5 95.5s-67.5 150.834 -67.5 261.501c0 109.333 22.5 196.666 67.5 261.999s109.833 98 194.5 98s149.5 -32.167 194.5 -96.5s67.5 -151.833 67.5 -262.5c0 -109.333 -22.5 -196.333 -67.5 -261z
M409 547c-22.667 44 -59 66 -109 66s-86.333 -22 -109 -66s-34 -111.667 -34 -203c0 -90 11.5 -157 34.5 -201s59.167 -66 108.5 -66c50 0 86.333 22 109 66s34 111.333 34 202s-11.333 158 -34 202zM89 690l-77 -207l-79 13l37 216z" />
    <glyph glyph-name="Upsilontonos" unicode="&#x38e;" 
d="M358 0h-116v263l-231 427h128l163 -327l165 327h122l-231 -426v-264zM0 690l-77 -207l-79 13l37 216z" />
    <glyph glyph-name="Omegatonos" unicode="&#x38f;" 
d="M192.5 552.5c-23.667 -40.333 -35.499 -104.499 -35.499 -192.499c0 -76.667 9.16699 -137 27.5 -181s46.5 -75.667 84.5 -95v-84h-220v88h118c-86 44 -129 134.667 -129 272c0 70 10.5 131 31.5 183s51.167 91.833 90.5 119.5s86 41.5 140 41.5
s100.667 -13.833 140 -41.5s69.5 -67.5 90.5 -119.5s31.5 -113 31.5 -183c0 -68.667 -10.833 -125.334 -32.5 -170.001s-54.167 -78.667 -97.5 -102h119v-88h-219v84c37.333 19.333 65.166 51 83.499 95s27.5 104.333 27.5 181c0 87.333 -11.833 151.333 -35.5 192
s-59.5 61 -107.5 61s-83.833 -20.167 -107.5 -60.5zM90.001 690.001l-77 -207l-79 13l37 216z" />
    <glyph glyph-name="iotadieresistonos" unicode="&#x390;" 
d="M53 440l11.001 88.001h273v-384c0 -44.667 26.667 -67 80 -67c27.333 0 55.333 6 84 18l28 -78c-14.667 -8.66699 -34.334 -15.834 -59.001 -21.501s-50.334 -8.5 -77.001 -8.5c-51.333 0 -92.166 14.333 -122.499 43s-45.5 68 -45.5 118v292h-172zM382.001 908.001
l-64 -176l-69 11l29 186zM218.501 726.001c12.333 -12 18.5 -27 18.5 -45s-6.16699 -33.167 -18.5 -45.5s-27.5 -18.5 -45.5 -18.5c-18.667 0 -34.167 6.16699 -46.5 18.5s-18.5 27.5 -18.5 45.5s6.16699 33 18.5 45s27.833 18 46.5 18c18 0 33.167 -6 45.5 -18z
M444.501 726.001c12.333 -12 18.5 -27 18.5 -45s-6.16699 -33.167 -18.5 -45.5s-27.833 -18.5 -46.5 -18.5c-18 0 -33.167 6.16699 -45.5 18.5s-18.5 27.5 -18.5 45.5s6.16699 33 18.5 45s27.5 18 45.5 18c18.667 0 34.167 -6 46.5 -18z" />
    <glyph glyph-name="Alpha" unicode="&#x391;" 
d="M175 166l-48 -166h-119l220 690h144l220 -690h-123l-48 166h-246zM397 256l-99 344l-99 -344h198z" />
    <glyph glyph-name="Beta" unicode="&#x392;" 
d="M476 46c-50.667 -30.667 -114.999 -46 -192.999 -46h-202v690h189c73.333 0 133.666 -13.5 180.999 -40.5s71 -71.833 71 -134.5c0 -40 -12.167 -72.833 -36.5 -98.5s-54.833 -42.5 -91.5 -50.5c45.333 -8 83 -24.833 113 -50.5s45 -64.5 45 -116.5
c0 -71.333 -25.333 -122.333 -76 -153zM372.501 580c-21 15.333 -51.832 23.001 -92.499 23.001h-83v-199h90c39.333 0 68.666 8.16699 87.999 24.5s29 42.166 29 77.499c0 34 -10.5 58.667 -31.5 74zM395.002 290.501c-24 17.667 -57.333 26.5 -100 26.5h-98v-227h94
c93.333 0 140 36.333 140 109c0 43.333 -12 73.833 -36 91.5z" />
    <glyph glyph-name="Gamma" unicode="&#x393;" 
d="M538 594h-303v-594h-116v690h431z" />
    <glyph glyph-name="uni0394" unicode="&#x394;" 
d="M592 0h-584l220 690h144zM153 95h289l-144 504z" />
    <glyph glyph-name="Epsilon" unicode="&#x395;" 
d="M229 394h250v-87h-250v-219h305v-88h-421v690h415l-13 -88h-286v-208z" />
    <glyph glyph-name="Zeta" unicode="&#x396;" 
d="M540 96l-12 -96h-469v90l351 506h-315v94h443v-91l-346 -503h348z" />
    <glyph glyph-name="Eta" unicode="&#x397;" 
d="M413 314h-226v-314h-116v690h116v-281h226v281h116v-690h-116v314z" />
    <glyph glyph-name="Theta" unicode="&#x398;" 
d="M494.5 84c-45 -64.667 -109.833 -97 -194.5 -97s-149.5 31.833 -194.5 95.5s-67.5 150.834 -67.5 261.501c0 109.333 22.5 196.666 67.5 261.999s109.833 98 194.5 98s149.5 -32.167 194.5 -96.5s67.5 -151.833 67.5 -262.5c0 -109.333 -22.5 -196.333 -67.5 -261z
M409.5 547c-23 44 -59.499 66 -109.499 66s-86.5 -22 -109.5 -66s-34.5 -111.667 -34.5 -203c0 -90 11.667 -157 35 -201s59.666 -66 108.999 -66c50 0 86.5 22 109.5 66s34.5 111.333 34.5 202s-11.5 158 -34.5 202zM207.001 313v79h185v-79h-185z" />
    <glyph glyph-name="Iota" unicode="&#x399;" 
d="M508 602h-150v-513h150v-89h-416v89h150v513h-150v88h416v-88z" />
    <glyph glyph-name="Kappa" unicode="&#x39a;" 
d="M88 0v690h116v-690h-116zM448 690h128l-241 -314l260 -376h-139l-247 369z" />
    <glyph glyph-name="Lambda" unicode="&#x39b;" 
d="M587 0h-123l-166 594l-166 -594h-120l216 690h144z" />
    <glyph glyph-name="Mu" unicode="&#x39c;" 
d="M575 0l-107 -0.000976562l-16 336c-2 44 -3 86.333 -3 127c0 52.667 1 94.334 3 125.001l-102 -466h-101l-109 466c2.66699 -34 4 -86.333 4 -157c0 -42.667 -0.333008 -74.667 -1 -96l-14 -335h-104l39 690h139l99 -462l94 462h140z" />
    <glyph glyph-name="Nu" unicode="&#x39d;" 
d="M158 587c10.667 -109.333 16 -200.667 16 -274v-313h-103v690h151l220 -587c-4.66699 49.333 -8.5 93.833 -11.5 133.5s-4.5 86.167 -4.5 139.5v314h103v-690h-151z" />
    <glyph glyph-name="Xi" unicode="&#x39e;" 
d="M511 592h-443v98h458zM472 302h-351v96h351v-96zM532 0h-464v101h464v-101z" />
    <glyph glyph-name="Omicron" unicode="&#x39f;" 
d="M494.5 84c-45 -64.667 -109.833 -97 -194.5 -97s-149.5 31.833 -194.5 95.5s-67.5 150.834 -67.5 261.501c0 109.333 22.5 196.666 67.5 261.999s109.833 98 194.5 98s149.5 -32.167 194.5 -96.5s67.5 -151.833 67.5 -262.5c0 -109.333 -22.5 -196.333 -67.5 -261z
M409 547c-22.667 44 -59 66 -109 66s-86.333 -22 -109 -66s-34 -111.667 -34 -203c0 -90 11.5 -157 34.5 -201s59.167 -66 108.5 -66c50 0 86.333 22 109 66s34 111.333 34 202s-11.333 158 -34 202z" />
    <glyph glyph-name="Pi" unicode="&#x3a0;" 
d="M413 596h-226v-596h-116v690h458v-690h-116v596z" />
    <glyph glyph-name="Rho" unicode="&#x3a1;" 
d="M492 301.5c-48 -37 -113.667 -55.5 -197 -55.5h-84v-246h-115v690h191c88.667 0 157 -18.167 205 -54.5s72 -90.5 72 -162.5c0 -77.333 -24 -134.5 -72 -171.5zM295 603h-84.001v-269h85c46.667 0 82.834 10.667 108.501 32s38.5 57 38.5 107
c0 86.667 -49.333 130 -148 130z" />
    <glyph glyph-name="Sigma" unicode="&#x3a3;" 
d="M197 91h337v-91h-468v90l239 253l-239 256v91h468v-90h-337l214 -223v-63z" />
    <glyph glyph-name="Tau" unicode="&#x3a4;" 
d="M357 0h-116v596h-208v94h535l-12 -94h-199v-596z" />
    <glyph glyph-name="Upsilon" unicode="&#x3a5;" 
d="M358 0h-116v263l-231 427h128l163 -327l165 327h122l-231 -426v-264z" />
    <glyph glyph-name="Phi" unicode="&#x3a6;" 
d="M348 611c82 -3.33301 143.167 -26.665 183.5 -69.998s60.5 -107.666 60.5 -192.999c0 -86 -20.667 -151.333 -62 -196s-102 -68.334 -182 -71.001v-81h-96v81c-80.667 2.66699 -141.5 26.167 -182.5 70.5s-61.5 109.833 -61.5 196.5c0 85.333 20 149.666 60 192.999
s101.333 66.666 184 69.999v79h96v-79zM150.5 492.501c-21.667 -29 -32.5 -77.168 -32.5 -144.501c0 -65.333 10.667 -113.166 32 -143.499s57 -46.833 107 -49.5v383c-49.333 -1.33301 -84.833 -16.5 -106.5 -45.5zM343 155c50 2.66699 85.667 19.1689 107 49.502
s32 78.166 32 143.499c0 67.333 -11 115.666 -33 144.999s-57.333 44.333 -106 45v-383z" />
    <glyph glyph-name="Chi" unicode="&#x3a7;" 
d="M167 690l133 -248l135 248h123l-191 -317l213 -373h-129l-153 293l-154 -293h-123l208 367l-191 323h129z" />
    <glyph glyph-name="Psi" unicode="&#x3a8;" 
d="M245 189c-78 8 -136.332 32.834 -174.999 74.501s-58 96.167 -58 163.5v263h108v-261c0 -48 9.5 -84.333 28.5 -109s52.833 -40 101.5 -46v416h101v-415c47.333 6 80.666 21.333 99.999 46s29 60.667 29 108v261h108v-263c0 -66.667 -19.5 -120.834 -58.5 -162.501
s-97.167 -66.5 -174.5 -74.5v-190h-110v189z" />
    <glyph glyph-name="uni03A9" unicode="&#x3a9;" 
d="M192.5 552.5c-23.667 -40.333 -35.499 -104.499 -35.499 -192.499c0 -76.667 9.16699 -137 27.5 -181s46.5 -75.667 84.5 -95v-84h-220v88h118c-86 44 -129 134.667 -129 272c0 70 10.5 131 31.5 183s51.167 91.833 90.5 119.5s86 41.5 140 41.5
s100.667 -13.833 140 -41.5s69.5 -67.5 90.5 -119.5s31.5 -113 31.5 -183c0 -68.667 -10.833 -125.334 -32.5 -170.001s-54.167 -78.667 -97.5 -102h119v-88h-219v84c37.333 19.333 65.166 51 83.499 95s27.5 104.333 27.5 181c0 87.333 -11.833 151.333 -35.5 192
s-59.5 61 -107.5 61s-83.833 -20.167 -107.5 -60.5z" />
    <glyph glyph-name="Iotadieresis" unicode="&#x3aa;" 
d="M508 602h-150v-513h150v-89h-416v89h150v513h-150v88h416v-88zM145.5 784c-12.333 12 -18.5 27 -18.5 45s6.16699 33.167 18.5 45.5s27.833 18.5 46.5 18.5s34.167 -6.16699 46.5 -18.5s18.5 -27.5 18.5 -45.5s-6.16699 -33 -18.5 -45s-27.833 -18 -46.5 -18
s-34.167 6 -46.5 18zM362 784c-12.667 12 -19 27 -19 45s6.33301 33.167 19 45.5s28 18.5 46 18.5c18.667 0 34.167 -6.16699 46.5 -18.5s18.5 -27.5 18.5 -45.5s-6.16699 -33 -18.5 -45s-27.833 -18 -46.5 -18c-18 0 -33.333 6 -46 18z" />
    <glyph glyph-name="Upsilondieresis" unicode="&#x3ab;" 
d="M358 0h-116v263l-231 427h128l163 -327l165 327h122l-231 -426v-264zM147.5 784c-12.333 12 -18.5 27 -18.5 45s6.16699 33.167 18.5 45.5s27.833 18.5 46.5 18.5s34.167 -6.16699 46.5 -18.5s18.5 -27.5 18.5 -45.5s-6.16699 -33 -18.5 -45s-27.833 -18 -46.5 -18
s-34.167 6 -46.5 18zM364 784c-12.667 12 -19 27 -19 45s6.33301 33.167 19 45.5s28 18.5 46 18.5c18.667 0 34.167 -6.16699 46.5 -18.5s18.5 -27.5 18.5 -45.5s-6.16699 -33 -18.5 -45s-27.833 -18 -46.5 -18c-18 0 -33.333 6 -46 18z" />
    <glyph glyph-name="alphatonos" unicode="&#x3ac;" 
d="M362 504.5c26.667 -25 44.333 -64.834 53 -119.501l26 143h101l-63 -268l26 -128c3.33301 -16.667 8.66602 -29.167 15.999 -37.5s18.333 -14.833 33 -19.5l-38 -89c-55.333 9.33301 -88 41 -98 95l-10 55c-29.333 -99.333 -84 -149 -164 -149
c-61.333 0 -109 23.333 -143 70s-51 114.334 -51 203.001c0 84 17.833 152 53.5 204s85.167 78 148.5 78c46.667 0 83.334 -12.5 110.001 -37.5zM191.499 405.999c-17 -33.333 -25.5 -82 -25.5 -146c0 -125.333 31.333 -188 94 -188c26 0 50 14 72 42s39.667 79 53 153
c-12 70 -27.5 119 -46.5 147s-43.833 42 -74.5 42c-31.333 0 -55.5 -16.667 -72.5 -50zM390.999 799.999l-74 -207l-77 12l37 218z" />
    <glyph glyph-name="epsilontonos" unicode="&#x3ad;" 
d="M308 234c-40 0 -68.999 -6.16602 -86.999 -18.499s-27 -31.5 -27 -57.5c0 -26.667 11.333 -47.667 34 -63s54.667 -23 96 -23c65.333 0 124.666 17.333 177.999 52l55 -69c-29.333 -20.667 -64.5 -37.167 -105.5 -49.5s-86.167 -18.5 -135.5 -18.5
c-71.333 0 -129.166 14.333 -173.499 43s-66.5 69 -66.5 121c0 39.333 11.167 69.5 33.5 90.5s56.166 34.5 101.499 40.5c-38 8.66699 -66.667 23.167 -86 43.5s-29 45.166 -29 74.499c0 44.667 20.667 79.5 62 104.5s94 37.5 158 37.5c38.667 0 76.5 -4.5 113.5 -13.5
s69.167 -22.833 96.5 -41.5l-52 -64c-40 23.333 -89.667 35 -149 35c-76 0 -114 -23.667 -114 -71c0 -22 9 -39.5 27 -52.5s43.667 -19.5 77 -19.5h99l-12 -81h-94zM429.001 800.001l-74 -207l-77 12l37 218z" />
    <glyph glyph-name="etatonos" unicode="&#x3ae;" 
d="M477 501.5c24.667 -27 37 -65.834 37 -116.501v-588l-112 -13v545c0 32.667 -1.83301 57.834 -5.5 75.501s-11 30.667 -22 39s-27.167 12.5 -48.5 12.5c-23.333 0 -45.833 -7.5 -67.5 -22.5s-40.167 -33.5 -55.5 -55.5v-378h-112v365c0 48 -8.33301 101.667 -25 161
l104 15c4.66699 -8.66699 9.33398 -21.167 14.001 -37.5s8 -31.833 10 -46.5c22.667 27.333 49.167 48.333 79.5 63s61.166 22 92.499 22c49.333 0 86.333 -13.5 111 -40.5zM416 799.999l-74 -207l-77 12l37 218z" />
    <glyph glyph-name="iotatonos" unicode="&#x3af;" 
d="M53 440l11.001 88.001h273v-384c0 -44.667 26.667 -67 80 -67c27.333 0 55.333 6 84 18l28 -78c-14.667 -8.66699 -34.334 -15.834 -59.001 -21.501s-50.334 -8.5 -77.001 -8.5c-51.333 0 -92.166 14.333 -122.499 43s-45.5 68 -45.5 118v292h-172zM400.001 800.001
l-74 -207l-77 12l37 218z" />
    <glyph glyph-name="upsilondieresistonos" unicode="&#x3b0;" 
d="M535 255c0 -59.333 -11.499 -109.168 -34.499 -149.501s-53.333 -70.166 -91 -89.499s-78.834 -29 -123.501 -29c-59.333 0 -107 15.5 -143 46.5s-54 75.833 -54 134.5v360h112v-351c0 -69.333 30.333 -104 91 -104c37.333 0 68.333 15 93 45s37 78.667 37 146
c0 85.333 -8.66699 173.333 -26 264h112c18 -94.667 27 -185.667 27 -273zM396.001 907.998l-64 -176l-69 11l29 186zM232.501 725.998c12.333 -12 18.5 -27 18.5 -45s-6.16699 -33.167 -18.5 -45.5s-27.5 -18.5 -45.5 -18.5c-18.667 0 -34.167 6.16699 -46.5 18.5
s-18.5 27.5 -18.5 45.5s6.16699 33 18.5 45s27.833 18 46.5 18c18 0 33.167 -6 45.5 -18zM458.501 725.998c12.333 -12 18.5 -27 18.5 -45s-6.16699 -33.167 -18.5 -45.5s-27.833 -18.5 -46.5 -18.5c-18 0 -33.167 6.16699 -45.5 18.5s-18.5 27.5 -18.5 45.5
s6.16699 33 18.5 45s27.5 18 45.5 18c18.667 0 34.167 -6 46.5 -18z" />
    <glyph glyph-name="alpha" unicode="&#x3b1;" 
d="M362 504.5c26.667 -25 44.333 -64.834 53 -119.501l26 143h101l-63 -268l26 -128c3.33301 -16.667 8.66602 -29.167 15.999 -37.5s18.333 -14.833 33 -19.5l-38 -89c-55.333 9.33301 -88 41 -98 95l-10 55c-29.333 -99.333 -84 -149 -164 -149
c-61.333 0 -109 23.333 -143 70s-51 114.334 -51 203.001c0 84 17.833 152 53.5 204s85.167 78 148.5 78c46.667 0 83.334 -12.5 110.001 -37.5zM191.499 405.999c-17 -33.333 -25.5 -82 -25.5 -146c0 -125.333 31.333 -188 94 -188c26 0 50 14 72 42s39.667 79 53 153
c-12 70 -27.5 119 -46.5 147s-43.833 42 -74.5 42c-31.333 0 -55.5 -16.667 -72.5 -50z" />
    <glyph glyph-name="beta" unicode="&#x3b2;" 
d="M554 205c0 -43.333 -9.83105 -81.667 -29.498 -115s-46.334 -59 -80.001 -77s-71.167 -27 -112.5 -27c-52 0 -99.667 16 -143 48v-235l-112 -17v761c0 66 19.167 117.667 57.5 155s89.833 56 154.5 56c40 0 76.167 -7.66699 108.5 -23s57.666 -37 75.999 -65
s27.5 -60 27.5 -96c0 -47.333 -12.833 -84.666 -38.5 -111.999s-61.167 -45 -106.5 -53c132 -14.667 198 -81.334 198 -200.001zM402.502 107.999c24.333 23.333 36.501 57 36.501 101c0 48 -13.5 84.5 -40.5 109.5s-65.5 37.5 -115.5 37.5h-46l10 83h41
c30.667 0 55.5 10 74.5 30s28.5 50 28.5 90c0 36.667 -9 64.167 -27 82.5s-42.667 27.5 -74 27.5c-67.333 0 -101 -41 -101 -123v-434c32.667 -26 73 -39 121 -39c37.333 0 68.166 11.667 92.499 35z" />
    <glyph glyph-name="gamma" unicode="&#x3b3;" 
d="M568 515l-215.001 -495.001c-16 -37.333 -24 -77.666 -24 -120.999c0 -28 3.66699 -62 11 -102l-89 -12c-18 36 -27 75.667 -27 119c0 38 7 75.667 21 113c-24.667 101.333 -56.167 196.333 -94.5 285s-77.833 155 -118.5 199l112 40
c32.667 -42.667 63.334 -101 92.001 -175s51 -156 67 -246l152 421z" />
    <glyph glyph-name="delta" unicode="&#x3b4;" 
d="M493 692l-53.998 -64c-20.667 15.333 -40.5 26.166 -59.5 32.499s-39.833 9.5 -62.5 9.5c-26.667 0 -47.334 -5.33301 -62.001 -16s-22 -25.334 -22 -44.001c0 -14 3.16699 -25.5 9.5 -34.5s16.833 -17.5 31.5 -25.5s37.334 -18 68.001 -30
c48.667 -20 87.667 -41.667 117 -65s51.333 -51.833 66 -85.5s22 -75.167 22 -124.5c0 -48 -10 -91.667 -30 -131s-48.5 -70.333 -85.5 -93s-80.167 -34 -129.5 -34c-50 0 -93.333 11.167 -130 33.5s-64.834 52.833 -84.501 91.5s-29.5 82.334 -29.5 131.001
c0 55.333 14.167 103 42.5 143s66.833 70 115.5 90c-36 18 -61.333 37.333 -76 58s-22 45.667 -22 75c0 44.667 18 79.834 54 105.501s84.667 38.5 146 38.5c67.333 0 125.666 -20.333 174.999 -61zM202.002 363.5c-17.333 -31.667 -26.001 -71.167 -26.001 -118.5
c0 -54.667 11 -97 33 -127s53 -45 93 -45c40.667 0 71.834 14.5 93.501 43.5s32.5 71.833 32.5 128.5c0 38 -4.16699 68.5 -12.5 91.5s-22.333 42.5 -42 58.5s-48.167 32 -85.5 48c-40 -21.333 -68.667 -47.833 -86 -79.5z" />
    <glyph glyph-name="epsilon" unicode="&#x3b5;" 
d="M308 234c-40 0 -68.999 -6.16602 -86.999 -18.499s-27 -31.5 -27 -57.5c0 -26.667 11.333 -47.667 34 -63s54.667 -23 96 -23c65.333 0 124.666 17.333 177.999 52l55 -69c-29.333 -20.667 -64.5 -37.167 -105.5 -49.5s-86.167 -18.5 -135.5 -18.5
c-71.333 0 -129.166 14.333 -173.499 43s-66.5 69 -66.5 121c0 39.333 11.167 69.5 33.5 90.5s56.166 34.5 101.499 40.5c-38 8.66699 -66.667 23.167 -86 43.5s-29 45.166 -29 74.499c0 44.667 20.667 79.5 62 104.5s94 37.5 158 37.5c38.667 0 76.5 -4.5 113.5 -13.5
s69.167 -22.833 96.5 -41.5l-52 -64c-40 23.333 -89.667 35 -149 35c-76 0 -114 -23.667 -114 -71c0 -22 9 -39.5 27 -52.5s43.667 -19.5 77 -19.5h99l-12 -81h-94z" />
    <glyph glyph-name="zeta" unicode="&#x3b6;" 
d="M543 669c-75.333 -60.667 -135.832 -114.167 -181.499 -160.5s-80 -89.833 -103 -130.5s-34.5 -81.334 -34.5 -122.001c0 -30 4.66699 -54 14 -72s24.166 -33 44.499 -45s49.833 -24.667 88.5 -38c42.667 -14.667 75 -27.5 97 -38.5s38.833 -24.5 50.5 -40.5
s17.5 -36.333 17.5 -61c0 -38.667 -13.5 -72.834 -40.5 -102.501s-69.167 -57.167 -126.5 -82.5l-43 74c30.667 16 53.667 31.333 69 46s23 32.334 23 53.001c0 10 -2.83301 18.333 -8.5 25s-14.834 12.834 -27.501 18.501s-32.667 13.167 -60 22.5
c-52.667 19.333 -94.167 38.333 -124.5 57s-53.333 42.167 -69 70.5s-23.5 64.833 -23.5 109.5c0 68 26 134.5 78 199.5s136.333 136.833 253 215.5c-19.333 -8.66699 -72.666 -13 -159.999 -13h-133l13 86h374z" />
    <glyph glyph-name="eta" unicode="&#x3b7;" 
d="M477 501.5c24.667 -27 37 -65.834 37 -116.501v-588l-112 -13v545c0 32.667 -1.83301 57.834 -5.5 75.501s-11 30.667 -22 39s-27.167 12.5 -48.5 12.5c-23.333 0 -45.833 -7.5 -67.5 -22.5s-40.167 -33.5 -55.5 -55.5v-378h-112v365c0 48 -8.33301 101.667 -25 161
l104 15c4.66699 -8.66699 9.33398 -21.167 14.001 -37.5s8 -31.833 10 -46.5c22.667 27.333 49.167 48.333 79.5 63s61.166 22 92.499 22c49.333 0 86.333 -13.5 111 -40.5z" />
    <glyph glyph-name="theta" unicode="&#x3b8;" 
d="M477.5 654c41 -66 61.499 -160 61.499 -282c0 -120.667 -20.833 -215 -62.5 -283s-100.5 -102 -176.5 -102c-76.667 0 -135.667 33.5 -177 100.5s-62 161.5 -62 283.5c0 120.667 20.833 214.5 62.5 281.5s100.834 100.5 177.501 100.5s135.5 -33 176.5 -99z
M207.499 606.5c-20.333 -39.667 -31.5 -105.167 -33.5 -196.5h252c-2 91.333 -13 156.833 -33 196.5s-50.667 59.5 -92 59.5c-42 0 -73.167 -19.833 -93.5 -59.5zM173.999 333c2.66699 -92.667 14.167 -159.167 34.5 -199.5s50.833 -60.5 91.5 -60.5s71 20.167 91 60.5
s31.333 106.833 34 199.5h-251z" />
    <glyph glyph-name="iota" unicode="&#x3b9;" 
d="M53 440l11.001 88.001h273v-384c0 -44.667 26.667 -67 80 -67c27.333 0 55.333 6 84 18l28 -78c-14.667 -8.66699 -34.334 -15.834 -59.001 -21.501s-50.334 -8.5 -77.001 -8.5c-51.333 0 -92.166 14.333 -122.499 43s-45.5 68 -45.5 118v292h-172z" />
    <glyph glyph-name="kappa" unicode="&#x3ba;" 
d="M540 489l-201 -203l133 -147c18 -20 34 -34.5 48 -43.5s30.333 -15.5 49 -19.5l-39 -90c-30 4 -55.5 13 -76.5 27s-43.167 35.333 -66.5 64l-173 204l233 260zM203 435.5c4.66699 -35 7 -70.5 7 -106.5v-329h-112v343c0 63.333 -8 125 -24 185h108
c9.33301 -26.667 16.333 -57.5 21 -92.5z" />
    <glyph glyph-name="lambda" unicode="&#x3bb;" 
d="M268 528c-10 30.667 -21.5 55.335 -34.5 74.002s-30.333 33.667 -52 45s-50.5 19.666 -86.5 24.999l15 82c58 -8 104.667 -21.833 140 -41.5s63.833 -47.5 85.5 -83.5s39.834 -84.667 54.501 -146c29.333 -122.667 57.5 -219.5 84.5 -290.5s59.167 -126.833 96.5 -167.5
l-113 -38c-36 47.333 -66.833 107.666 -92.5 180.999s-48.834 166 -69.501 278l-147 -460l-109 25l187 517h41z" />
    <glyph glyph-name="uni03BC" unicode="&#x3bc;" 
d="M499 176c0 -54.667 7.33203 -113.333 21.999 -176l-103 -13c-4 9.33301 -8 21.833 -12 37.5s-6.66699 30.5 -8 44.5c-16 -24.667 -35.667 -44.5 -59 -59.5s-47.333 -22.5 -72 -22.5c-24 0 -42.833 3.66699 -56.5 11s-27.5 20.333 -41.5 39
c6.66699 -23.333 11.667 -43.333 15 -60s5 -33.667 5 -51v-129l-109 -12v743h112v-298c0 -37.333 1.66699 -66.333 5 -87s10.333 -36.667 21 -48s27.334 -17 50.001 -17c24.667 0 47 6.33301 67 19s37.333 29.667 52 51v380h112v-352z" />
    <glyph glyph-name="nu" unicode="&#x3bd;" 
d="M135 309c-35.333 94.667 -71.667 159.333 -109 194l107 38c34 -40 65 -99.5 93 -178.5s51.333 -169.5 70 -271.5l151 451l111 -25l-202 -517h-132c-24 111.333 -53.667 214.333 -89 309z" />
    <glyph glyph-name="xi" unicode="&#x3be;" 
d="M560 693l-51.999 -63.001c-20.667 13.333 -43.334 23.333 -68.001 30s-49.334 10 -74.001 10c-38.667 0 -69 -8 -91 -24s-33 -38.667 -33 -68c0 -32 10.167 -56 30.5 -72s49.5 -24 87.5 -24h113l-13 -86h-107c-44.667 0 -80 -11.667 -106 -35s-39 -53.666 -39 -90.999
c0 -32 5.83301 -57 17.5 -75s29.667 -33.167 54 -45.5s62.5 -27.166 114.5 -44.499c39.333 -13.333 70 -25.833 92 -37.5s38.5 -25.834 49.5 -42.501s16.5 -38 16.5 -64c0 -38.667 -13.667 -72.834 -41 -102.501s-69.333 -57.167 -126 -82.5l-43 74
c28.667 14 51 29.167 67 45.5s24 35.5 24 57.5c0 15.333 -5.33301 27 -16 35s-32.334 17.333 -65.001 28c-63.333 22 -112.666 42.333 -147.999 61s-63.166 42.667 -83.499 72s-30.5 67.666 -30.5 114.999c0 52.667 16.5 93.834 49.5 123.501s70.833 48.5 113.5 56.5
c-38.667 14 -69.167 31.833 -91.5 53.5s-33.5 50.5 -33.5 86.5c0 34 10.333 63.833 31 89.5s48.5 45.334 83.5 59.001s73.5 20.5 115.5 20.5c78 0 145.333 -20 202 -60z" />
    <glyph glyph-name="omicron" unicode="&#x3bf;" 
d="M477 467.5c41.333 -49.667 62.001 -117.167 62.001 -202.5s-21 -153 -63 -203s-100.667 -75 -176 -75c-76 0 -134.833 24.5 -176.5 73.5s-62.5 116.833 -62.5 203.5c0 84 21.167 151.333 63.5 202s101.166 76 176.499 76c76 0 134.667 -24.833 176 -74.5zM209.501 408
c-20.333 -31.333 -30.5 -79.332 -30.5 -143.999c0 -65.333 10 -113.5 30 -144.5s50.333 -46.5 91 -46.5s71 15.667 91 47s30 79.666 30 144.999c0 64.667 -10 112.5 -30 143.5s-50 46.5 -90 46.5c-40.667 0 -71.167 -15.667 -91.5 -47z" />
    <glyph glyph-name="pi" unicode="&#x3c0;" 
d="M487 441v-288.996c0 -24 3.5 -41.833 10.5 -53.5s19.167 -20.167 36.5 -25.5l-36 -86c-42 9.33301 -72.833 25.666 -92.5 48.999s-29.5 57.666 -29.5 102.999v302h-159v-441h-110v441c-16.667 -0.666992 -30.667 -1.83398 -42 -3.50098s-24 -4.83398 -38 -9.50098l-22 81
c16.667 7.33301 34.5 12.333 53.5 15s42.167 4 69.5 4h437v-87h-78z" />
    <glyph glyph-name="rho" unicode="&#x3c1;" 
d="M537 265c0 -52 -7.83301 -99 -23.5 -141s-39 -75.333 -70 -100s-68.5 -37 -112.5 -37c-56 0 -101 19.333 -135 58v-248l-112 -13v488c0 88 18.833 155 56.5 201s93.5 69 167.5 69c152.667 0 229 -92.333 229 -277zM221 407.5c-16.667 -33 -25 -84.167 -25 -153.5v-121
c12.667 -19.333 28 -34 46 -44s37.667 -15 59 -15c38.667 0 68 16 88 48s30 79.333 30 142c0 67.333 -9.33301 116.333 -28 147s-47 46 -85 46c-40 0 -68.333 -16.5 -85 -49.5z" />
    <glyph glyph-name="uni03C2" unicode="&#x3c2;" 
d="M451.5 528c29 -9.33301 57.499 -24.6709 85.499 -46.0039l-52 -70c-20.667 14 -40.667 24.167 -60 30.5s-41.666 9.5 -66.999 9.5c-42.667 0 -77.834 -15.167 -105.501 -45.5s-41.5 -74.5 -41.5 -132.5c0 -32 4.33301 -57.333 13 -76s23.334 -34.667 44.001 -48
s52 -28 94 -44c37.333 -13.333 66.833 -26 88.5 -38s38.5 -26.5 50.5 -43.5s18 -38.5 18 -64.5c0 -38 -13.167 -70.833 -39.5 -98.5s-68.5 -54.167 -126.5 -79.5l-45 74c30.667 12.667 53.667 25.834 69 39.501s23 30.834 23 51.501c0 12.667 -3 22.834 -9 30.501
s-16.333 15 -31 22s-38.667 16.5 -72 28.5c-44.667 16.667 -81 34.834 -109 54.501s-49.333 45 -64 76s-22 69.5 -22 115.5c0 54 11 101.167 33 141.5s52.5 71.5 91.5 93.5s83.5 33 133.5 33c38 0 71.5 -4.66699 100.5 -14z" />
    <glyph glyph-name="sigma" unicode="&#x3c3;" 
d="M566 445l-114.001 8.00098c26.667 -18 47.5 -43.667 62.5 -77s22.5 -73.333 22.5 -120c0 -82 -21 -147.333 -63 -196s-100 -73 -174 -73c-75.333 0 -134 24.667 -176 74s-63 116.666 -63 201.999c0 83.333 22.333 149.5 67 198.5s107.334 73.5 188.001 73.5
c58 0 141.333 -2.33301 250 -7v-83zM389.499 119.501c19.667 31 29.499 79.167 29.499 144.5c0 92.667 -21 156.667 -63 192c-39.333 0 -71.666 -5.33301 -96.999 -16s-45 -30.167 -59 -58.5s-21 -67.833 -21 -118.5c0 -64.667 10 -112.5 30 -143.5s50.333 -46.5 91 -46.5
c40 0 69.833 15.5 89.5 46.5z" />
    <glyph glyph-name="tau" unicode="&#x3c4;" 
d="M518 17c-14.667 -8.66699 -34.333 -15.833 -59 -21.5s-50.334 -8.5 -77.001 -8.5c-51.333 0 -92 14.333 -122 43s-45 68 -45 118v293h-45c-22 0 -42 -1 -60 -3s-38 -6 -60 -12l-18 82c36.667 13.333 84.334 20 143.001 20h343v-87h-191v-297c0 -44.667 26.333 -67 79 -67
c27.333 0 55.333 6 84 18z" />
    <glyph glyph-name="upsilon" unicode="&#x3c5;" 
d="M535 255c0 -59.333 -11.499 -109.168 -34.499 -149.501s-53.333 -70.166 -91 -89.499s-78.834 -29 -123.501 -29c-59.333 0 -107 15.5 -143 46.5s-54 75.833 -54 134.5v360h112v-351c0 -69.333 30.333 -104 91 -104c37.333 0 68.333 15 93 45s37 78.667 37 146
c0 85.333 -8.66699 173.333 -26 264h112c18 -94.667 27 -185.667 27 -273z" />
    <glyph glyph-name="phi" unicode="&#x3c6;" 
d="M531 474.5c27.333 -45 41.002 -113.497 41.002 -205.497c0 -171.333 -77.333 -264.666 -232 -279.999v-193l-95 -12v205c-74 6.66699 -128.667 31.167 -164 73.5s-53 101.166 -53 176.499c0 95.333 18 191.666 54 288.999h101c-18 -55.333 -31.333 -104.333 -40 -147
s-13 -82.667 -13 -120c0 -61.333 8.33301 -107.333 25 -138s46.667 -49.334 90 -56.001v253c0 73.333 12.167 128.666 36.5 165.999s64.166 56 119.499 56c59.333 0 102.666 -22.5 129.999 -67.5zM360.002 444.003c-8.66699 -12.667 -14.167 -29.1689 -16.5 -49.502
s-3.5 -48.5 -3.5 -84.5v-244c46.667 6.66699 79.5 25.834 98.5 57.501s28.5 79.834 28.5 144.501c0 48 -2 86 -6 114s-10.833 48.5 -20.5 61.5s-23.167 19.5 -40.5 19.5c-18 0 -31.333 -6.33301 -40 -19z" />
    <glyph glyph-name="chi" unicode="&#x3c7;" 
d="M565 -199l-113.999 -21l-147 325l-149 -324l-113 18l199 381c-34.667 82 -66.834 146.5 -96.501 193.5s-64.5 89.833 -104.5 128.5l109 39c31.333 -34.667 59.333 -74.167 84 -118.5s49 -101.5 73 -171.5l128 288l111 -16l-178 -341z" />
    <glyph glyph-name="psi" unicode="&#x3c8;" 
d="M349 74c33.333 4.66699 58.668 14.167 76.001 28.5s29.166 34 35.499 59s9.5 58.167 9.5 99.5c0 74.667 -8.33301 163.667 -25 267h101c18 -90 27 -181 27 -273c0 -79.333 -18 -141 -54 -185s-92.667 -70.333 -170 -79v-194l-96 -13v207
c-74.667 6.66699 -129.5 28.5 -164.5 65.5s-52.5 83.833 -52.5 140.5v331h102v-326c0 -40 8.83301 -70.167 26.5 -90.5s47.167 -32.833 88.5 -37.5v454h96v-454z" />
    <glyph glyph-name="omega" unicode="&#x3c9;" 
d="M578 240c0 -81.333 -13 -143.833 -39 -187.5s-64 -65.5 -114 -65.5c-70.667 0 -112.667 37 -126 111c-18 -74 -59.333 -111 -124 -111c-50.667 0 -88.834 21.333 -114.501 64s-38.5 105.667 -38.5 189c0 100 17 196 51 288h93c-15.333 -51.333 -25.833 -99 -31.5 -143
s-8.5 -91.333 -8.5 -142c0 -56.667 4.66699 -99.167 14 -127.5s26.333 -42.5 51 -42.5c24 0 40.5 13.5 49.5 40.5s13.5 66.5 13.5 118.5v119l93 15v-133c0 -55.333 4.5 -95.833 13.5 -121.5s25.5 -38.5 49.5 -38.5c24.667 0 41.5 14 50.5 42s13.5 70.667 13.5 128
c0 48.667 -3.16699 95.167 -9.5 139.5s-17.166 92.833 -32.499 145.5h95c34 -102 51 -198 51 -288z" />
    <glyph glyph-name="iotadieresis" unicode="&#x3ca;" 
d="M53 440l11.001 88.001h273v-384c0 -44.667 26.667 -67 80 -67c27.333 0 55.333 6 84 18l28 -78c-14.667 -8.66699 -34.334 -15.834 -59.001 -21.501s-50.334 -8.5 -77.001 -8.5c-51.333 0 -92.166 14.333 -122.499 43s-45.5 68 -45.5 118v292h-172zM131.001 662.001
c-12.667 12 -19 27 -19 45c0 18.667 6.33301 34 19 46s28.334 18 47.001 18c18 0 33.167 -6 45.5 -18s18.5 -27.333 18.5 -46c0 -18 -6.16699 -33 -18.5 -45s-27.5 -18 -45.5 -18c-18.667 0 -34.334 6 -47.001 18zM348.001 662.001c-12.667 12 -19 27 -19 45
s6.33301 33.167 19 45.5s28 18.5 46 18.5c18.667 0 34.167 -6 46.5 -18s18.5 -27.333 18.5 -46c0 -18 -6.16699 -33 -18.5 -45s-27.833 -18 -46.5 -18c-18 0 -33.333 6 -46 18z" />
    <glyph glyph-name="upsilondieresis" unicode="&#x3cb;" 
d="M535 255c0 -59.333 -11.499 -109.168 -34.499 -149.501s-53.333 -70.166 -91 -89.499s-78.834 -29 -123.501 -29c-59.333 0 -107 15.5 -143 46.5s-54 75.833 -54 134.5v360h112v-351c0 -69.333 30.333 -104 91 -104c37.333 0 68.333 15 93 45s37 78.667 37 146
c0 85.333 -8.66699 173.333 -26 264h112c18 -94.667 27 -185.667 27 -273zM145.001 661.998c-12.667 12 -19 27 -19 45c0 18.667 6.33301 34 19 46s28.334 18 47.001 18c18 0 33.167 -6 45.5 -18s18.5 -27.333 18.5 -46c0 -18 -6.16699 -33 -18.5 -45s-27.5 -18 -45.5 -18
c-18.667 0 -34.334 6 -47.001 18zM362.001 661.998c-12.667 12 -19 27 -19 45s6.33301 33.167 19 45.5s28 18.5 46 18.5c18.667 0 34.167 -6 46.5 -18s18.5 -27.333 18.5 -46c0 -18 -6.16699 -33 -18.5 -45s-27.833 -18 -46.5 -18c-18 0 -33.333 6 -46 18z" />
    <glyph glyph-name="omicrontonos" unicode="&#x3cc;" 
d="M477 467.5c41.333 -49.667 62.001 -117.167 62.001 -202.5s-21 -153 -63 -203s-100.667 -75 -176 -75c-76 0 -134.833 24.5 -176.5 73.5s-62.5 116.833 -62.5 203.5c0 84 21.167 151.333 63.5 202s101.166 76 176.499 76c76 0 134.667 -24.833 176 -74.5zM209.501 408
c-20.333 -31.333 -30.5 -79.332 -30.5 -143.999c0 -65.333 10 -113.5 30 -144.5s50.333 -46.5 91 -46.5s71 15.667 91 47s30 79.666 30 144.999c0 64.667 -10 112.5 -30 143.5s-50 46.5 -90 46.5c-40.667 0 -71.167 -15.667 -91.5 -47zM413.001 800.001l-74 -207l-77 12
l37 218z" />
    </font>
</defs>
</svg>
